<?xml version="1.0" encoding="utf-8"?>
<!-- Generator: Adobe Illustrator 22.0.1, SVG Export Plug-In . SVG Version: 6.00 Build 0)  -->
<svg version="1.1" xmlns="http://www.w3.org/2000/svg" xmlns:xlink="http://www.w3.org/1999/xlink" x="0px" y="0px"
	 viewBox="0 0 1423.7 1191.3" style="enable-background:new 0 0 1423.7 1191.3;" xml:space="preserve">
<style type="text/css">
	.st0{display:none;}
	.st1{display:inline;}
	.st2{fill:#FBD471;}
	.st3{fill:#98E5ED;}
	.st4{fill:#E3EAE5;}
	.st5{fill:url(#SVGID_1_);}
	.st6{fill:url(#SVGID_2_);}
	.st7{fill:url(#SVGID_3_);}
	.st8{fill:url(#SVGID_4_);}
	.st9{fill:url(#SVGID_5_);}
	.st10{fill:url(#SVGID_6_);}
	.st11{fill:url(#SVGID_7_);}
	.st12{fill:url(#SVGID_8_);}
	.st13{fill:url(#SVGID_9_);}
	.st14{fill:url(#SVGID_10_);}
	.st15{fill:url(#SVGID_11_);}
	.st16{fill:url(#SVGID_12_);}
	.st17{fill:url(#SVGID_13_);}
	.st18{fill:url(#SVGID_14_);}
	.st19{fill:url(#SVGID_15_);}
	.st20{fill:url(#SVGID_16_);}
	.st21{fill:url(#SVGID_17_);}
	.st22{fill:url(#SVGID_18_);}
	.st23{fill:url(#SVGID_19_);}
	.st24{fill:url(#SVGID_20_);}
	.st25{fill:url(#SVGID_21_);}
	.st26{fill:url(#SVGID_22_);}
	.st27{fill:url(#SVGID_23_);}
	.st28{fill:url(#SVGID_24_);}
	.st29{fill:url(#SVGID_25_);}
	.st30{fill:url(#SVGID_26_);}
	.st31{fill:url(#SVGID_27_);}
	.st32{fill:url(#SVGID_28_);}
	.st33{fill:url(#SVGID_29_);}
	.st34{fill:url(#SVGID_30_);}
	.st35{fill:url(#SVGID_31_);}
	.st36{fill:url(#SVGID_32_);}
	.st37{fill:url(#SVGID_33_);}
	.st38{fill:url(#SVGID_34_);}
	.st39{fill:url(#SVGID_35_);}
	.st40{fill:url(#SVGID_36_);}
	.st41{fill:url(#SVGID_37_);}
	.st42{fill:url(#SVGID_38_);}
	.st43{fill:url(#SVGID_39_);}
	.st44{fill:url(#SVGID_40_);}
	.st45{fill:url(#SVGID_41_);}
	.st46{fill:url(#SVGID_42_);}
	.st47{fill:url(#SVGID_43_);}
	.st48{fill:url(#SVGID_44_);}
	.st49{fill:url(#SVGID_45_);}
	.st50{fill:url(#SVGID_46_);}
	.st51{fill:url(#SVGID_47_);}
	.st52{fill:url(#SVGID_48_);}
	.st53{fill:url(#SVGID_49_);}
	.st54{fill:url(#SVGID_50_);}
	.st55{fill:url(#SVGID_51_);}
	.st56{fill:url(#SVGID_52_);}
	.st57{fill:url(#SVGID_53_);}
	.st58{fill:url(#SVGID_54_);}
	.st59{fill:url(#SVGID_55_);}
	.st60{fill:url(#SVGID_56_);}
	.st61{fill:url(#SVGID_57_);}
	.st62{fill:url(#SVGID_58_);}
	.st63{fill:url(#SVGID_59_);}
	.st64{fill:url(#SVGID_60_);}
	.st65{fill:url(#SVGID_61_);}
	.st66{fill:url(#SVGID_62_);}
	.st67{fill:url(#SVGID_63_);}
	.st68{fill:url(#SVGID_64_);}
	.st69{fill:url(#SVGID_65_);}
	.st70{fill:url(#SVGID_66_);}
	.st71{fill:url(#SVGID_67_);}
	.st72{fill:url(#SVGID_68_);}
	.st73{fill:url(#SVGID_69_);}
	.st74{fill:url(#SVGID_70_);}
	.st75{fill:url(#SVGID_71_);}
	.st76{fill:url(#SVGID_72_);}
	.st77{fill:url(#SVGID_73_);}
	.st78{fill:url(#SVGID_74_);}
	.st79{fill:url(#SVGID_75_);}
	.st80{fill:url(#SVGID_76_);}
	.st81{fill:url(#SVGID_77_);}
	.st82{fill:url(#SVGID_78_);}
	.st83{fill:url(#SVGID_79_);}
	.st84{fill:url(#SVGID_80_);}
	.st85{fill:url(#SVGID_81_);}
	.st86{fill:url(#SVGID_82_);}
	.st87{fill:url(#SVGID_83_);}
	.st88{fill:url(#SVGID_84_);}
	.st89{fill:url(#SVGID_85_);}
	.st90{fill:url(#SVGID_86_);}
	.st91{fill:url(#SVGID_87_);}
	.st92{fill:url(#SVGID_88_);}
	.st93{fill:url(#SVGID_89_);}
	.st94{fill:url(#SVGID_90_);}
	.st95{fill:url(#SVGID_91_);}
	.st96{fill:url(#SVGID_92_);}
	.st97{fill:url(#SVGID_93_);}
	.st98{fill:url(#SVGID_94_);}
	.st99{fill:url(#SVGID_95_);}
	.st100{fill:url(#SVGID_96_);}
	.st101{fill:url(#SVGID_97_);}
	.st102{fill:url(#SVGID_98_);}
	.st103{fill:url(#SVGID_99_);}
	.st104{fill:url(#SVGID_100_);}
	.st105{fill:url(#SVGID_101_);}
	.st106{fill:url(#SVGID_102_);}
	.st107{fill:url(#SVGID_103_);}
	.st108{fill:url(#SVGID_104_);}
	.st109{fill:url(#SVGID_105_);}
	.st110{fill:url(#SVGID_106_);}
	.st111{fill:url(#SVGID_107_);}
	.st112{fill:url(#SVGID_108_);}
	.st113{fill:url(#SVGID_109_);}
	.st114{fill:url(#SVGID_110_);}
	.st115{fill:url(#SVGID_111_);}
	.st116{fill:url(#SVGID_112_);}
	.st117{fill:url(#SVGID_113_);}
	.st118{fill:url(#SVGID_114_);}
	.st119{fill:url(#SVGID_115_);}
	.st120{fill:url(#SVGID_116_);}
	.st121{fill:url(#SVGID_117_);}
	.st122{fill:url(#SVGID_118_);}
	.st123{fill:url(#SVGID_119_);}
	.st124{fill:url(#SVGID_120_);}
	.st125{fill:url(#SVGID_121_);}
	.st126{fill:url(#SVGID_122_);}
	.st127{fill:url(#SVGID_123_);}
	.st128{fill:url(#SVGID_124_);}
	.st129{fill:url(#SVGID_125_);}
	.st130{fill:url(#SVGID_126_);}
	.st131{fill:url(#SVGID_127_);}
	.st132{fill:url(#SVGID_128_);}
	.st133{fill:url(#SVGID_129_);}
	.st134{fill:url(#SVGID_130_);}
	.st135{fill:url(#SVGID_131_);}
	.st136{fill:url(#SVGID_132_);}
	.st137{fill:url(#SVGID_133_);}
	.st138{fill:url(#SVGID_134_);}
	.st139{fill:url(#SVGID_135_);}
	.st140{fill:url(#SVGID_136_);}
	.st141{fill:url(#SVGID_137_);}
	.st142{fill:url(#SVGID_138_);}
	.st143{fill:url(#SVGID_139_);}
	.st144{fill:url(#SVGID_140_);}
	.st145{fill:url(#SVGID_141_);}
	.st146{fill:url(#SVGID_142_);}
	.st147{fill:url(#SVGID_143_);}
	.st148{fill:url(#SVGID_144_);}
	.st149{fill:url(#SVGID_145_);}
	.st150{fill:url(#SVGID_146_);}
	.st151{fill:url(#SVGID_147_);}
	.st152{fill:url(#SVGID_148_);}
	.st153{fill:url(#SVGID_149_);}
	.st154{fill:url(#SVGID_150_);}
	.st155{fill:url(#SVGID_151_);}
	.st156{fill:url(#SVGID_152_);}
	.st157{fill:url(#SVGID_153_);}
	.st158{fill:url(#SVGID_154_);}
	.st159{fill:url(#SVGID_155_);}
	.st160{fill:url(#SVGID_156_);}
	.st161{fill:url(#SVGID_157_);}
	.st162{fill:url(#SVGID_158_);}
	.st163{fill:url(#SVGID_159_);}
	.st164{fill:url(#SVGID_160_);}
	.st165{fill:url(#SVGID_161_);}
	.st166{fill:url(#SVGID_162_);}
	.st167{fill:url(#SVGID_163_);}
	.st168{fill:url(#SVGID_164_);}
	.st169{fill:url(#SVGID_165_);}
	.st170{fill:url(#SVGID_166_);}
	.st171{fill:url(#SVGID_167_);}
	.st172{fill:url(#SVGID_168_);}
	.st173{fill:url(#SVGID_169_);}
	.st174{fill:url(#SVGID_170_);}
	.st175{fill:url(#SVGID_171_);}
	.st176{fill:url(#SVGID_172_);}
	.st177{fill:url(#SVGID_173_);}
	.st178{fill:url(#SVGID_174_);}
	.st179{fill:url(#SVGID_175_);}
	.st180{fill:url(#SVGID_176_);}
	.st181{fill:url(#SVGID_177_);}
	.st182{fill:url(#SVGID_178_);}
	.st183{fill:url(#SVGID_179_);}
	.st184{fill:url(#SVGID_180_);}
	.st185{fill:url(#SVGID_181_);}
	.st186{fill:url(#SVGID_182_);}
	.st187{fill:url(#SVGID_183_);}
	.st188{fill:url(#SVGID_184_);}
	.st189{fill:url(#SVGID_185_);}
	.st190{fill:url(#SVGID_186_);}
	.st191{fill:url(#SVGID_187_);}
	.st192{fill:url(#SVGID_188_);}
	.st193{fill:url(#SVGID_189_);}
	.st194{fill:url(#SVGID_190_);}
	.st195{fill:url(#SVGID_191_);}
	.st196{fill:url(#SVGID_192_);}
	.st197{fill:url(#SVGID_193_);}
	.st198{fill:url(#SVGID_194_);}
	.st199{fill:url(#SVGID_195_);}
	.st200{fill:url(#SVGID_196_);}
	.st201{fill:url(#SVGID_197_);}
	.st202{fill:url(#SVGID_198_);}
	.st203{fill:url(#SVGID_199_);}
	.st204{fill:url(#SVGID_200_);}
	.st205{fill:url(#SVGID_201_);}
	.st206{fill:url(#SVGID_202_);}
	.st207{fill:url(#SVGID_203_);}
	.st208{fill:url(#SVGID_204_);}
	.st209{fill:url(#SVGID_205_);}
	.st210{fill:url(#SVGID_206_);}
	.st211{fill:url(#SVGID_207_);}
	.st212{fill:url(#SVGID_208_);}
	.st213{fill:url(#SVGID_209_);}
	.st214{fill:url(#SVGID_210_);}
	.st215{fill:url(#SVGID_211_);}
	.st216{fill:url(#SVGID_212_);}
	.st217{fill:url(#SVGID_213_);}
	.st218{fill:url(#SVGID_214_);}
	.st219{fill:url(#SVGID_215_);}
	.st220{fill:url(#SVGID_216_);}
	.st221{fill:url(#SVGID_217_);}
	.st222{fill:url(#SVGID_218_);}
	.st223{fill:url(#SVGID_219_);}
	.st224{fill:url(#SVGID_220_);}
	.st225{fill:url(#SVGID_221_);}
	.st226{fill:url(#SVGID_222_);}
	.st227{fill:url(#SVGID_223_);}
	.st228{fill:url(#SVGID_224_);}
	.st229{fill:url(#SVGID_225_);}
	.st230{fill:url(#SVGID_226_);}
	.st231{fill:url(#SVGID_227_);}
	.st232{fill:url(#SVGID_228_);}
	.st233{fill:url(#SVGID_229_);}
	.st234{fill:url(#SVGID_230_);}
	.st235{fill:url(#SVGID_231_);}
	.st236{fill:url(#SVGID_232_);}
	.st237{fill:url(#SVGID_233_);}
	.st238{fill:url(#SVGID_234_);}
	.st239{fill:url(#SVGID_235_);}
	.st240{fill:url(#SVGID_236_);}
	.st241{fill:url(#SVGID_237_);}
	.st242{fill:url(#SVGID_238_);}
	.st243{fill:url(#SVGID_239_);}
	.st244{fill:url(#SVGID_240_);}
	.st245{fill:url(#SVGID_241_);}
	.st246{fill:url(#SVGID_242_);}
	.st247{fill:url(#SVGID_243_);}
	.st248{fill:url(#SVGID_244_);}
	.st249{fill:url(#SVGID_245_);}
	.st250{fill:url(#SVGID_246_);}
	.st251{fill:url(#SVGID_247_);}
	.st252{fill:url(#SVGID_248_);}
	.st253{fill:url(#SVGID_249_);}
	.st254{fill:url(#SVGID_250_);}
	.st255{fill:url(#SVGID_251_);}
	.st256{fill:url(#SVGID_252_);}
	.st257{fill:url(#SVGID_253_);}
	.st258{fill:url(#SVGID_254_);}
	.st259{fill:url(#SVGID_255_);}
	.st260{fill:url(#SVGID_256_);}
	.st261{fill:url(#SVGID_257_);}
	.st262{fill:url(#SVGID_258_);}
	.st263{fill:url(#SVGID_259_);}
	.st264{fill:url(#SVGID_260_);}
	.st265{fill:url(#SVGID_261_);}
	.st266{fill:url(#SVGID_262_);}
	.st267{fill:url(#SVGID_263_);}
	.st268{fill:url(#SVGID_264_);}
	.st269{fill:url(#SVGID_265_);}
	.st270{fill:url(#SVGID_266_);}
	.st271{fill:url(#SVGID_267_);}
	.st272{fill:url(#SVGID_268_);}
	.st273{fill:url(#SVGID_269_);}
	.st274{fill:url(#SVGID_270_);}
</style>
<g id="Layer_2">
</g>
<g id="Layer_1">
</g>
<g id="Color" class="st0">
</g>
<g id="DEVELOPMENT">
	<g>
		<g>
			<linearGradient id="SVGID_1_" gradientUnits="userSpaceOnUse" x1="544.166" y1="1218.8811" x2="544.166" y2="5.4186">
				<stop  offset="0" style="stop-color:#5398AA"/>
				<stop  offset="1" style="stop-color:#1D9CB9"/>
			</linearGradient>
			<path class="st5" d="M611.5,783.7H476.8c-17.4,0-31.5-14.1-31.5-31.5V536.8c0-17.4,14.1-31.5,31.5-31.5h134.6
				c17.4,0,31.5,14.1,31.5,31.5v215.4C643,769.6,628.9,783.7,611.5,783.7z M476.8,519c-9.8,0-17.8,8-17.8,17.8v215.4
				c0,9.8,8,17.8,17.8,17.8h134.6c9.8,0,17.8-8,17.8-17.8V536.8c0-9.8-8-17.8-17.8-17.8H476.8z"/>
		</g>
		<g>
			<linearGradient id="SVGID_2_" gradientUnits="userSpaceOnUse" x1="818.0135" y1="1218.8811" x2="818.0135" y2="5.4186">
				<stop  offset="0" style="stop-color:#5398AA"/>
				<stop  offset="1" style="stop-color:#1D9CB9"/>
			</linearGradient>
			<path class="st6" d="M835.1,801.6c-19.8,0-39.3-2.7-57.8-8.1c-45.8-13.3-93.4-21.4-141.6-24c-3.6-0.2-6.5-3.2-6.5-6.8V532.7
				c0-3.7,2.9-6.7,6.5-6.8c23.4-1.1,41.1-8.3,53.9-22.1c6.5-6.9,10.6-15.9,11.7-26c2.8-24.6,9.8-47.5,20.7-68.2
				c6.9-16.9,9-33.3,6.7-51.6c-6.6-14.2-7.3-26-2.1-35c5.9-10.2,18.7-15.9,39-17.4c0.2,0,0.3,0,0.5,0c14.5,0,28,5.9,38.8,17.1
				c19.5,20.1,30.5,56.4,29.3,97.2c0,0,0,0.1,0,0.1l-2.8,67.5h91.7c14.3,0,27.9,2.7,40.5,8c19.5,8.2,32,20.7,37.2,37.1
				c4.5,14.3,3.4,31.7-3.3,51.8c13.2,29.9,12.4,56.4-2.3,78.8c5.3,26.9-0.9,50-18.5,68.6c2.5,16.1-2.1,29.7-13.9,40.2
				c-10,9-24.8,15.8-46.7,21.4c-0.1,0-0.3,0.1-0.4,0.1c-24.8,4.8-50.7,7.4-77,7.9C837.6,801.6,836.3,801.6,835.1,801.6z
				 M642.8,756.1c47,3,93.5,11.2,138.2,24.2c18.4,5.4,37.8,7.9,57.5,7.6c25.4-0.4,50.4-3,74.4-7.6c40.1-10.4,55-25.1,49.7-49.1
				c-0.5-2.3,0.2-4.7,1.9-6.4c16.8-16.4,22.3-36.4,16.7-61.4c-0.4-1.9,0-3.9,1.1-5.5c13.9-19.5,14.5-42.5,1.6-70.2
				c-0.8-1.6-0.8-3.5-0.2-5.2c13.4-37.8,5.3-61.4-25.4-74.3c-10.9-4.6-22.7-6.9-35.2-6.9h-98.8c-1.9,0-3.7-0.8-4.9-2.1
				c-1.3-1.3-2-3.2-1.9-5l3.1-74.6c1-36.6-8.7-70-25.5-87.2c-8.3-8.5-18-12.9-28.8-13c-14.8,1.1-24.4,4.7-27.8,10.5
				c-2.9,5-1.9,12.8,3.1,23.2c0.3,0.7,0.5,1.3,0.6,2.1c2.8,21.3,0.4,40.4-7.6,60c-0.1,0.2-0.2,0.4-0.3,0.6
				c-10.3,19.3-16.8,40.7-19.4,63.6c-1.5,13-6.8,24.7-15.3,33.9c-14,14.9-33,23.6-56.8,25.9V756.1z M914.5,786.9L914.5,786.9
				L914.5,786.9z"/>
		</g>
	</g>
	<g>
		<linearGradient id="SVGID_3_" gradientUnits="userSpaceOnUse" x1="1191.3529" y1="1218.8811" x2="1191.3529" y2="5.4186">
			<stop  offset="0" style="stop-color:#5398AA"/>
			<stop  offset="1" style="stop-color:#1D9CB9"/>
		</linearGradient>
		<path class="st7" d="M1335.8,501.7h-288.8c-17.6,0-32-14.3-32-32V89.1c0-17.6,14.3-32,32-32h288.8c17.6,0,31.9,14.3,31.9,32v380.6
			C1367.7,487.3,1353.4,501.7,1335.8,501.7z M1046.9,70.8c-10.1,0-18.2,8.2-18.2,18.2v380.6c0,10.1,8.2,18.2,18.2,18.2h288.8
			c10.1,0,18.2-8.2,18.2-18.2V89.1c0-10.1-8.2-18.2-18.2-18.2H1046.9z"/>
	</g>
	<g>
		<linearGradient id="SVGID_4_" gradientUnits="userSpaceOnUse" x1="1268.7225" y1="1218.8811" x2="1268.7225" y2="5.4186">
			<stop  offset="0" style="stop-color:#5398AA"/>
			<stop  offset="1" style="stop-color:#1D9CB9"/>
		</linearGradient>
		<path class="st8" d="M1268.7,236.2c-7.7,0-13.5-4.5-18.7-8.5c-2.6-2-5-3.8-7.1-4.7c-2.3-1-5.4-1.4-8.8-1.8
			c-6.3-0.9-13.5-1.8-18.8-7.1c-5.2-5.2-6.2-12.4-7.1-18.8c-0.5-3.3-0.9-6.5-1.8-8.8c-0.9-2.1-2.7-4.5-4.7-7.1
			c-4-5.2-8.5-11-8.5-18.7s4.5-13.5,8.5-18.7c2-2.6,3.8-5,4.7-7.1c1-2.3,1.4-5.4,1.8-8.8c0.9-6.3,1.8-13.5,7.1-18.8
			c5.2-5.2,12.4-6.2,18.8-7.1c3.3-0.5,6.5-0.9,8.8-1.8c2.1-0.9,4.5-2.7,7.1-4.7c5.2-4,11-8.5,18.7-8.5s13.5,4.5,18.7,8.5
			c2.6,2,5,3.8,7.1,4.7c2.3,1,5.4,1.4,8.8,1.8c6.3,0.9,13.5,1.8,18.8,7.1c0,0,0,0,0,0c5.2,5.2,6.2,12.4,7.1,18.8
			c0.5,3.3,0.9,6.5,1.8,8.8c0.9,2.1,2.7,4.5,4.7,7.1c4,5.2,8.5,11,8.5,18.7s-4.5,13.5-8.5,18.7c-2,2.6-3.8,5-4.7,7.1
			c-1,2.3-1.4,5.4-1.8,8.8c-0.9,6.3-1.8,13.5-7.1,18.8c-5.2,5.2-12.4,6.2-18.8,7.1c-3.3,0.5-6.5,0.9-8.8,1.8
			c-2.1,0.9-4.5,2.7-7.1,4.7C1282.3,231.7,1276.4,236.2,1268.7,236.2z M1268.7,99.1c-3,0-6.6,2.7-10.3,5.6
			c-3.2,2.4-6.4,4.9-10.2,6.5c-3.9,1.6-8.1,2.2-12.2,2.8c-4.4,0.6-9,1.2-10.9,3.2c-2,2-2.6,6.5-3.2,10.9c-0.6,4.1-1.1,8.2-2.8,12.2
			c-1.6,3.8-4.1,7.1-6.5,10.2c-2.9,3.8-5.6,7.3-5.6,10.3s2.7,6.6,5.6,10.3c2.4,3.2,4.9,6.4,6.5,10.2c1.6,3.9,2.2,8.1,2.8,12.2
			c0.6,4.4,1.2,9,3.2,10.9c2,2,6.5,2.6,10.9,3.2c4.1,0.6,8.2,1.1,12.2,2.8c3.8,1.6,7.1,4.1,10.2,6.5c3.8,2.9,7.3,5.6,10.3,5.6
			s6.6-2.7,10.3-5.6c3.2-2.4,6.4-4.9,10.2-6.5c3.9-1.6,8.1-2.2,12.2-2.8c4.4-0.6,9-1.2,10.9-3.2c2-2,2.6-6.5,3.2-10.9
			c0.6-4.1,1.1-8.2,2.8-12.2c1.6-3.8,4.1-7.1,6.5-10.2c2.9-3.8,5.6-7.3,5.6-10.3s-2.7-6.6-5.6-10.3c-2.4-3.2-4.9-6.4-6.5-10.2
			c-1.6-3.9-2.2-8.1-2.8-12.2c-0.6-4.4-1.2-9-3.2-10.9c-2-2-6.5-2.6-10.9-3.2c-4.1-0.6-8.2-1.1-12.2-2.8c-3.8-1.6-7.1-4.1-10.2-6.5
			C1275.3,101.8,1271.7,99.1,1268.7,99.1z"/>
	</g>
	<g>
		<linearGradient id="SVGID_5_" gradientUnits="userSpaceOnUse" x1="1268.7225" y1="1218.8811" x2="1268.7225" y2="5.4186">
			<stop  offset="0" style="stop-color:#5398AA"/>
			<stop  offset="1" style="stop-color:#1D9CB9"/>
		</linearGradient>
		<path class="st9" d="M1268.7,204.4c-24,0-43.6-19.5-43.6-43.6s19.5-43.6,43.6-43.6c24,0,43.6,19.5,43.6,43.6
			S1292.7,204.4,1268.7,204.4z M1268.7,130.9c-16.5,0-29.9,13.4-29.9,29.9s13.4,29.9,29.9,29.9s29.9-13.4,29.9-29.9
			S1285.2,130.9,1268.7,130.9z"/>
	</g>
	<g>
		<linearGradient id="SVGID_6_" gradientUnits="userSpaceOnUse" x1="1248.5757" y1="1218.8811" x2="1248.5757" y2="5.4186">
			<stop  offset="0" style="stop-color:#5398AA"/>
			<stop  offset="1" style="stop-color:#1D9CB9"/>
		</linearGradient>
		<path class="st10" d="M1197.3,322.2c-2.1,0-4.2-1-5.5-2.8c-1.5-2-1.8-4.7-0.7-7l45.5-98c1.6-3.4,5.7-4.9,9.1-3.3
			c3.4,1.6,4.9,5.7,3.3,9.1l-40.1,86.6l44-6.4l40.8-87c1.6-3.4,5.7-4.9,9.1-3.3c3.4,1.6,4.9,5.7,3.3,9.1l-42.4,90.3
			c-1,2.1-2.9,3.5-5.2,3.9l-60.2,8.7C1198,322.2,1197.6,322.2,1197.3,322.2z"/>
	</g>
	<g>
		<linearGradient id="SVGID_7_" gradientUnits="userSpaceOnUse" x1="1304.6871" y1="1218.8811" x2="1304.6871" y2="5.4186">
			<stop  offset="0" style="stop-color:#5398AA"/>
			<stop  offset="1" style="stop-color:#1D9CB9"/>
		</linearGradient>
		<path class="st11" d="M1333.7,300.6c-0.5,0-0.9,0-1.4-0.1l-52.8-11.1c-2.2-0.5-4.1-2-5-4.2l-5.1-12.8c-1.4-3.5,0.3-7.5,3.8-8.9
			c3.5-1.4,7.5,0.3,8.9,3.8l3.8,9.4l35.6,7.5l-30.8-63.9c-1.6-3.4-0.2-7.5,3.2-9.2c3.4-1.6,7.5-0.2,9.2,3.2l36.9,76.4
			c1.1,2.4,0.8,5.1-0.8,7.2C1337.7,299.7,1335.7,300.6,1333.7,300.6z"/>
	</g>
	<g>
		<linearGradient id="SVGID_8_" gradientUnits="userSpaceOnUse" x1="1116.0002" y1="1218.8811" x2="1116.0002" y2="5.4186">
			<stop  offset="0" style="stop-color:#5398AA"/>
			<stop  offset="1" style="stop-color:#1D9CB9"/>
		</linearGradient>
		<path class="st12" d="M1172.1,132.5h-112.1c-3.8,0-6.9-3.1-6.9-6.9c0-3.8,3.1-6.9,6.9-6.9h112.1c3.8,0,6.9,3.1,6.9,6.9
			C1178.9,129.5,1175.9,132.5,1172.1,132.5z"/>
	</g>
	<g>
		<linearGradient id="SVGID_9_" gradientUnits="userSpaceOnUse" x1="1107.5291" y1="1218.8811" x2="1107.5291" y2="5.4186">
			<stop  offset="0" style="stop-color:#5398AA"/>
			<stop  offset="1" style="stop-color:#1D9CB9"/>
		</linearGradient>
		<path class="st13" d="M1155.1,194.7h-95.2c-3.8,0-6.9-3.1-6.9-6.9c0-3.8,3.1-6.9,6.9-6.9h95.2c3.8,0,6.9,3.1,6.9,6.9
			C1162,191.6,1158.9,194.7,1155.1,194.7z"/>
	</g>
	<g>
		<linearGradient id="SVGID_10_" gradientUnits="userSpaceOnUse" x1="1182.5602" y1="1218.8811" x2="1182.5602" y2="5.4186">
			<stop  offset="0" style="stop-color:#5398AA"/>
			<stop  offset="1" style="stop-color:#1D9CB9"/>
		</linearGradient>
		<path class="st14" d="M1305.2,440.7h-245.3c-3.8,0-6.9-3.1-6.9-6.9s3.1-6.9,6.9-6.9h245.3c3.8,0,6.9,3.1,6.9,6.9
			S1309,440.7,1305.2,440.7z"/>
	</g>
	<g>
		<linearGradient id="SVGID_11_" gradientUnits="userSpaceOnUse" x1="1174.4923" y1="1218.8811" x2="1174.4923" y2="5.4186">
			<stop  offset="0" style="stop-color:#5398AA"/>
			<stop  offset="1" style="stop-color:#1D9CB9"/>
		</linearGradient>
		<path class="st15" d="M1289.1,378.6h-229.1c-3.8,0-6.9-3.1-6.9-6.9c0-3.8,3.1-6.9,6.9-6.9h229.1c3.8,0,6.9,3.1,6.9,6.9
			C1295.9,375.5,1292.8,378.6,1289.1,378.6z"/>
	</g>
	<g>
		<linearGradient id="SVGID_12_" gradientUnits="userSpaceOnUse" x1="1102.2849" y1="1218.8811" x2="1102.2849" y2="5.4186">
			<stop  offset="0" style="stop-color:#5398AA"/>
			<stop  offset="1" style="stop-color:#1D9CB9"/>
		</linearGradient>
		<path class="st16" d="M1144.6,317.3h-84.7c-3.8,0-6.9-3.1-6.9-6.9c0-3.8,3.1-6.9,6.9-6.9h84.7c3.8,0,6.9,3.1,6.9,6.9
			C1151.5,314.2,1148.4,317.3,1144.6,317.3z"/>
	</g>
	<g>
		<linearGradient id="SVGID_13_" gradientUnits="userSpaceOnUse" x1="1116.0002" y1="1218.8811" x2="1116.0002" y2="5.4186">
			<stop  offset="0" style="stop-color:#5398AA"/>
			<stop  offset="1" style="stop-color:#1D9CB9"/>
		</linearGradient>
		<path class="st17" d="M1172.1,256h-112.1c-3.8,0-6.9-3.1-6.9-6.9c0-3.8,3.1-6.9,6.9-6.9h112.1c3.8,0,6.9,3.1,6.9,6.9
			C1178.9,252.9,1175.9,256,1172.1,256z"/>
	</g>
	<g>
		<linearGradient id="SVGID_14_" gradientUnits="userSpaceOnUse" x1="493.9674" y1="1218.8811" x2="493.9674" y2="5.4186">
			<stop  offset="0" style="stop-color:#5398AA"/>
			<stop  offset="1" style="stop-color:#1D9CB9"/>
		</linearGradient>
		<path class="st18" d="M494,719.5c-3.8,0-6.9-3.1-6.9-6.9V586.8c0-3.8,3.1-6.9,6.9-6.9s6.9,3.1,6.9,6.9v125.9
			C500.8,716.4,497.8,719.5,494,719.5z"/>
	</g>
	<g>
		<linearGradient id="SVGID_15_" gradientUnits="userSpaceOnUse" x1="137.9689" y1="1218.8811" x2="137.9689" y2="5.4186">
			<stop  offset="0" style="stop-color:#5398AA"/>
			<stop  offset="1" style="stop-color:#1D9CB9"/>
		</linearGradient>
		<path class="st19" d="M186.4,928.9H89.5c-3.8,0-6.9-3.1-6.9-6.9v-96.9c0-3.8,3.1-6.9,6.9-6.9h96.9c3.8,0,6.9,3.1,6.9,6.9V922
			C193.3,925.8,190.2,928.9,186.4,928.9z M96.4,915.2h83.1V832H96.4V915.2z"/>
	</g>
	<g>
		<linearGradient id="SVGID_16_" gradientUnits="userSpaceOnUse" x1="137.9693" y1="1218.8811" x2="137.9693" y2="5.4186">
			<stop  offset="0" style="stop-color:#5398AA"/>
			<stop  offset="1" style="stop-color:#1D9CB9"/>
		</linearGradient>
		<path class="st20" d="M130.2,898c-1.8,0-3.6-0.7-4.8-2l-19.7-19.7c-2.7-2.7-2.7-7,0-9.7c2.7-2.7,7-2.7,9.7,0l14.8,14.8l30.4-30.4
			c2.7-2.7,7-2.7,9.7,0c2.7,2.7,2.7,7,0,9.7L135.1,896C133.8,897.3,132,898,130.2,898z"/>
	</g>
	<g>
		<linearGradient id="SVGID_17_" gradientUnits="userSpaceOnUse" x1="135.5489" y1="1218.8811" x2="135.5489" y2="5.4186">
			<stop  offset="0" style="stop-color:#5398AA"/>
			<stop  offset="1" style="stop-color:#1D9CB9"/>
		</linearGradient>
		<path class="st21" d="M127.8,1090.1c-1.8,0-3.6-0.7-4.8-2l-19.7-19.7c-2.7-2.7-2.7-7,0-9.7c2.7-2.7,7-2.7,9.7,0l14.8,14.8
			l30.4-30.4c2.7-2.7,7-2.7,9.7,0c2.7,2.7,2.7,7,0,9.7l-35.2,35.2C131.3,1089.3,129.6,1090.1,127.8,1090.1z"/>
	</g>
	<g>
		<g>
			<linearGradient id="SVGID_18_" gradientUnits="userSpaceOnUse" x1="467.3436" y1="1218.8811" x2="467.3436" y2="5.4186">
				<stop  offset="0" style="stop-color:#5398AA"/>
				<stop  offset="1" style="stop-color:#1D9CB9"/>
			</linearGradient>
			<path class="st22" d="M659.8,849.8H274.9c-3.8,0-6.9-3.1-6.9-6.9s3.1-6.9,6.9-6.9h384.8c3.8,0,6.9,3.1,6.9,6.9
				S663.5,849.8,659.8,849.8z"/>
		</g>
		<g>
			<linearGradient id="SVGID_19_" gradientUnits="userSpaceOnUse" x1="368.5122" y1="1218.8811" x2="368.5122" y2="5.4186">
				<stop  offset="0" style="stop-color:#5398AA"/>
				<stop  offset="1" style="stop-color:#1D9CB9"/>
			</linearGradient>
			<path class="st23" d="M462.1,911.1H274.9c-3.8,0-6.9-3.1-6.9-6.9s3.1-6.9,6.9-6.9h187.2c3.8,0,6.9,3.1,6.9,6.9
				S465.9,911.1,462.1,911.1z"/>
		</g>
	</g>
	<g>
		<linearGradient id="SVGID_20_" gradientUnits="userSpaceOnUse" x1="135.5485" y1="1218.8811" x2="135.5485" y2="5.4186">
			<stop  offset="0" style="stop-color:#5398AA"/>
			<stop  offset="1" style="stop-color:#1D9CB9"/>
		</linearGradient>
		<path class="st24" d="M184,1120.9H87.1c-3.8,0-6.9-3.1-6.9-6.9v-96.9c0-3.8,3.1-6.9,6.9-6.9H184c3.8,0,6.9,3.1,6.9,6.9v96.9
			C190.8,1117.8,187.8,1120.9,184,1120.9z M94,1107.2h83.1V1024H94V1107.2z"/>
	</g>
	<g>
		<g>
			<linearGradient id="SVGID_21_" gradientUnits="userSpaceOnUse" x1="464.9232" y1="1218.8811" x2="464.9232" y2="5.4186">
				<stop  offset="0" style="stop-color:#5398AA"/>
				<stop  offset="1" style="stop-color:#1D9CB9"/>
			</linearGradient>
			<path class="st25" d="M657.3,1041.8H272.5c-3.8,0-6.9-3.1-6.9-6.9c0-3.8,3.1-6.9,6.9-6.9h384.8c3.8,0,6.9,3.1,6.9,6.9
				C664.2,1038.7,661.1,1041.8,657.3,1041.8z"/>
		</g>
		<g>
			<linearGradient id="SVGID_22_" gradientUnits="userSpaceOnUse" x1="366.0918" y1="1218.8811" x2="366.0918" y2="5.4186">
				<stop  offset="0" style="stop-color:#5398AA"/>
				<stop  offset="1" style="stop-color:#1D9CB9"/>
			</linearGradient>
			<path class="st26" d="M459.7,1103.1H272.5c-3.8,0-6.9-3.1-6.9-6.9c0-3.8,3.1-6.9,6.9-6.9h187.2c3.8,0,6.9,3.1,6.9,6.9
				C466.5,1100,463.5,1103.1,459.7,1103.1z"/>
		</g>
	</g>
	<g>
		<linearGradient id="SVGID_23_" gradientUnits="userSpaceOnUse" x1="450.8044" y1="1218.8811" x2="450.8044" y2="5.4186">
			<stop  offset="0" style="stop-color:#5398AA"/>
			<stop  offset="1" style="stop-color:#1D9CB9"/>
		</linearGradient>
		<path class="st27" d="M660.6,136.6H241c-3.8,0-6.9-3.1-6.9-6.9c0-3.8,3.1-6.9,6.9-6.9h419.5c3.8,0,6.9,3.1,6.9,6.9
			C667.4,133.5,664.4,136.6,660.6,136.6z"/>
	</g>
	<g>
		<linearGradient id="SVGID_24_" gradientUnits="userSpaceOnUse" x1="262.8231" y1="1218.8811" x2="262.8231" y2="5.4186">
			<stop  offset="0" style="stop-color:#5398AA"/>
			<stop  offset="1" style="stop-color:#1D9CB9"/>
		</linearGradient>
		<path class="st28" d="M387.9,263.2H137.8c-3.8,0-6.9-3.1-6.9-6.9s3.1-6.9,6.9-6.9h250.1c3.8,0,6.9,3.1,6.9,6.9
			S391.7,263.2,387.9,263.2z"/>
	</g>
	<g>
		<linearGradient id="SVGID_25_" gradientUnits="userSpaceOnUse" x1="1216.2046" y1="1218.8811" x2="1216.2046" y2="5.4186">
			<stop  offset="0" style="stop-color:#5398AA"/>
			<stop  offset="1" style="stop-color:#1D9CB9"/>
		</linearGradient>
		<path class="st29" d="M1216.2,689.5c-12.5,0-22.6-10.1-22.6-22.6c0-12.5,10.1-22.6,22.6-22.6s22.6,10.1,22.6,22.6
			C1238.8,679.3,1228.7,689.5,1216.2,689.5z M1216.2,658c-4.9,0-8.9,4-8.9,8.9c0,4.9,4,8.9,8.9,8.9c4.9,0,8.9-4,8.9-8.9
			C1225.1,662,1221.1,658,1216.2,658z"/>
	</g>
	<g>
		<linearGradient id="SVGID_26_" gradientUnits="userSpaceOnUse" x1="1255.4156" y1="1218.8811" x2="1255.4156" y2="5.4186">
			<stop  offset="0" style="stop-color:#5398AA"/>
			<stop  offset="1" style="stop-color:#1D9CB9"/>
		</linearGradient>
		<path class="st30" d="M1255.4,1040.4c-12.5,0-22.6-10.1-22.6-22.6c0-12.5,10.1-22.6,22.6-22.6s22.6,10.1,22.6,22.6
			C1278,1030.2,1267.9,1040.4,1255.4,1040.4z M1255.4,1008.9c-4.9,0-8.9,4-8.9,8.9s4,8.9,8.9,8.9c4.9,0,8.9-4,8.9-8.9
			S1260.3,1008.9,1255.4,1008.9z"/>
	</g>
	<g>
		<linearGradient id="SVGID_27_" gradientUnits="userSpaceOnUse" x1="165.4103" y1="1218.8811" x2="165.4103" y2="5.4186">
			<stop  offset="0" style="stop-color:#5398AA"/>
			<stop  offset="1" style="stop-color:#1D9CB9"/>
		</linearGradient>
		<path class="st31" d="M165.4,534.8c-12.5,0-22.6-10.1-22.6-22.6s10.1-22.6,22.6-22.6c12.5,0,22.6,10.1,22.6,22.6
			S177.9,534.8,165.4,534.8z M165.4,503.3c-4.9,0-8.9,4-8.9,8.9c0,4.9,4,8.9,8.9,8.9c4.9,0,8.9-4,8.9-8.9
			C174.3,507.3,170.3,503.3,165.4,503.3z"/>
	</g>
	<g>
		<linearGradient id="SVGID_28_" gradientUnits="userSpaceOnUse" x1="659.7619" y1="1218.8811" x2="659.7619" y2="5.4186">
			<stop  offset="0" style="stop-color:#5398AA"/>
			<stop  offset="1" style="stop-color:#1D9CB9"/>
		</linearGradient>
		<path class="st32" d="M659.8,278.1c-12.5,0-22.6-10.1-22.6-22.6c0-12.5,10.1-22.6,22.6-22.6s22.6,10.1,22.6,22.6
			C682.4,268,672.2,278.1,659.8,278.1z M659.8,246.6c-4.9,0-8.9,4-8.9,8.9c0,4.9,4,8.9,8.9,8.9c4.9,0,8.9-4,8.9-8.9
			C668.6,250.6,664.7,246.6,659.8,246.6z"/>
	</g>
	<g>
		<g>
			<linearGradient id="SVGID_29_" gradientUnits="userSpaceOnUse" x1="885.259" y1="1218.8811" x2="885.259" y2="5.4186">
				<stop  offset="0" style="stop-color:#5398AA"/>
				<stop  offset="1" style="stop-color:#1D9CB9"/>
			</linearGradient>
			<path class="st33" d="M885.3,1020.4c-3.8,0-6.9-3.1-6.9-6.9V991c0-3.8,3.1-6.9,6.9-6.9s6.9,3.1,6.9,6.9v22.6
				C892.1,1017.3,889,1020.4,885.3,1020.4z"/>
		</g>
		<g>
			<linearGradient id="SVGID_30_" gradientUnits="userSpaceOnUse" x1="885.6626" y1="1218.8811" x2="885.6626" y2="5.4186">
				<stop  offset="0" style="stop-color:#5398AA"/>
				<stop  offset="1" style="stop-color:#1D9CB9"/>
			</linearGradient>
			<path class="st34" d="M897,1009.5h-22.6c-3.8,0-6.9-3.1-6.9-6.9s3.1-6.9,6.9-6.9H897c3.8,0,6.9,3.1,6.9,6.9
				S900.7,1009.5,897,1009.5z"/>
		</g>
	</g>
	<g>
		<g>
			<linearGradient id="SVGID_31_" gradientUnits="userSpaceOnUse" x1="931.2459" y1="1218.8811" x2="931.2459" y2="5.4186">
				<stop  offset="0" style="stop-color:#5398AA"/>
				<stop  offset="1" style="stop-color:#1D9CB9"/>
			</linearGradient>
			<path class="st35" d="M931.2,128.9c-3.8,0-6.9-3.1-6.9-6.9V99.5c0-3.8,3.1-6.9,6.9-6.9s6.9,3.1,6.9,6.9v22.6
				C938.1,125.8,935,128.9,931.2,128.9z"/>
		</g>
		<g>
			<linearGradient id="SVGID_32_" gradientUnits="userSpaceOnUse" x1="931.6495" y1="1218.8811" x2="931.6495" y2="5.4186">
				<stop  offset="0" style="stop-color:#5398AA"/>
				<stop  offset="1" style="stop-color:#1D9CB9"/>
			</linearGradient>
			<path class="st36" d="M942.9,118h-22.6c-3.8,0-6.9-3.1-6.9-6.9s3.1-6.9,6.9-6.9h22.6c3.8,0,6.9,3.1,6.9,6.9S946.7,118,942.9,118z
				"/>
		</g>
	</g>
	<g>
		<g>
			<linearGradient id="SVGID_33_" gradientUnits="userSpaceOnUse" x1="341.4846" y1="1218.8811" x2="341.4846" y2="5.4186">
				<stop  offset="0" style="stop-color:#5398AA"/>
				<stop  offset="1" style="stop-color:#1D9CB9"/>
			</linearGradient>
			<path class="st37" d="M341.5,663c-3.8,0-6.9-3.1-6.9-6.9v-22.6c0-3.8,3.1-6.9,6.9-6.9s6.9,3.1,6.9,6.9v22.6
				C348.3,659.9,345.3,663,341.5,663z"/>
		</g>
		<g>
			<linearGradient id="SVGID_34_" gradientUnits="userSpaceOnUse" x1="341.8882" y1="1218.8811" x2="341.8882" y2="5.4186">
				<stop  offset="0" style="stop-color:#5398AA"/>
				<stop  offset="1" style="stop-color:#1D9CB9"/>
			</linearGradient>
			<path class="st38" d="M353.2,652.1h-22.6c-3.8,0-6.9-3.1-6.9-6.9s3.1-6.9,6.9-6.9h22.6c3.8,0,6.9,3.1,6.9,6.9
				S357,652.1,353.2,652.1z"/>
		</g>
	</g>
	<g>
		<g>
			<linearGradient id="SVGID_35_" gradientUnits="userSpaceOnUse" x1="414.0955" y1="1218.8811" x2="414.0955" y2="5.4186">
				<stop  offset="0" style="stop-color:#5398AA"/>
				<stop  offset="1" style="stop-color:#1D9CB9"/>
			</linearGradient>
			<path class="st39" d="M414.1,364.5c-3.8,0-6.9-3.1-6.9-6.9v-22.6c0-3.8,3.1-6.9,6.9-6.9c3.8,0,6.9,3.1,6.9,6.9v22.6
				C421,361.4,417.9,364.5,414.1,364.5z"/>
		</g>
		<g>
			<linearGradient id="SVGID_36_" gradientUnits="userSpaceOnUse" x1="414.499" y1="1218.8811" x2="414.499" y2="5.4186">
				<stop  offset="0" style="stop-color:#5398AA"/>
				<stop  offset="1" style="stop-color:#1D9CB9"/>
			</linearGradient>
			<path class="st40" d="M425.8,353.6h-22.6c-3.8,0-6.9-3.1-6.9-6.9s3.1-6.9,6.9-6.9h22.6c3.8,0,6.9,3.1,6.9,6.9
				S429.6,353.6,425.8,353.6z"/>
		</g>
	</g>
</g>
<g id="EXPERIENCE">
</g>
<g id="CREATIVITY">
</g>
<g id="WEBINAR">
</g>
<g id="COACHING">
</g>
</svg>
