<?xml version="1.0" encoding="utf-8"?>
<!-- Generator: Adobe Illustrator 22.0.1, SVG Export Plug-In . SVG Version: 6.00 Build 0)  -->
<svg version="1.1" xmlns="http://www.w3.org/2000/svg" xmlns:xlink="http://www.w3.org/1999/xlink" x="0px" y="0px"
	 viewBox="0 0 1453.4 1233.8" style="enable-background:new 0 0 1453.4 1233.8;" xml:space="preserve">
<style type="text/css">
	.st0{display:none;}
	.st1{display:inline;}
	.st2{fill:#FBD471;}
	.st3{fill:#98E5ED;}
	.st4{fill:#E3EAE5;}
	.st5{fill:url(#SVGID_1_);}
	.st6{fill:url(#SVGID_2_);}
	.st7{fill:url(#SVGID_3_);}
	.st8{fill:url(#SVGID_4_);}
	.st9{fill:url(#SVGID_5_);}
	.st10{fill:url(#SVGID_6_);}
	.st11{fill:url(#SVGID_7_);}
	.st12{fill:url(#SVGID_8_);}
	.st13{fill:url(#SVGID_9_);}
	.st14{fill:url(#SVGID_10_);}
	.st15{fill:url(#SVGID_11_);}
	.st16{fill:url(#SVGID_12_);}
	.st17{fill:url(#SVGID_13_);}
	.st18{fill:url(#SVGID_14_);}
	.st19{fill:url(#SVGID_15_);}
	.st20{fill:url(#SVGID_16_);}
	.st21{fill:url(#SVGID_17_);}
	.st22{fill:url(#SVGID_18_);}
	.st23{fill:url(#SVGID_19_);}
	.st24{fill:url(#SVGID_20_);}
	.st25{fill:url(#SVGID_21_);}
	.st26{fill:url(#SVGID_22_);}
	.st27{fill:url(#SVGID_23_);}
	.st28{fill:url(#SVGID_24_);}
	.st29{fill:url(#SVGID_25_);}
	.st30{fill:url(#SVGID_26_);}
	.st31{fill:url(#SVGID_27_);}
	.st32{fill:url(#SVGID_28_);}
	.st33{fill:url(#SVGID_29_);}
	.st34{fill:url(#SVGID_30_);}
	.st35{fill:url(#SVGID_31_);}
	.st36{fill:url(#SVGID_32_);}
	.st37{fill:url(#SVGID_33_);}
	.st38{fill:url(#SVGID_34_);}
	.st39{fill:url(#SVGID_35_);}
	.st40{fill:url(#SVGID_36_);}
	.st41{fill:url(#SVGID_37_);}
	.st42{fill:url(#SVGID_38_);}
	.st43{fill:url(#SVGID_39_);}
	.st44{fill:url(#SVGID_40_);}
	.st45{fill:url(#SVGID_41_);}
	.st46{fill:url(#SVGID_42_);}
	.st47{fill:url(#SVGID_43_);}
	.st48{fill:url(#SVGID_44_);}
	.st49{fill:url(#SVGID_45_);}
	.st50{fill:url(#SVGID_46_);}
	.st51{fill:url(#SVGID_47_);}
	.st52{fill:url(#SVGID_48_);}
	.st53{fill:url(#SVGID_49_);}
	.st54{fill:url(#SVGID_50_);}
	.st55{fill:url(#SVGID_51_);}
	.st56{fill:url(#SVGID_52_);}
	.st57{fill:url(#SVGID_53_);}
	.st58{fill:url(#SVGID_54_);}
	.st59{fill:url(#SVGID_55_);}
	.st60{fill:url(#SVGID_56_);}
	.st61{fill:url(#SVGID_57_);}
	.st62{fill:url(#SVGID_58_);}
	.st63{fill:url(#SVGID_59_);}
	.st64{fill:url(#SVGID_60_);}
	.st65{fill:url(#SVGID_61_);}
	.st66{fill:url(#SVGID_62_);}
	.st67{fill:url(#SVGID_63_);}
	.st68{fill:url(#SVGID_64_);}
	.st69{fill:url(#SVGID_65_);}
	.st70{fill:url(#SVGID_66_);}
	.st71{fill:url(#SVGID_67_);}
	.st72{fill:url(#SVGID_68_);}
	.st73{fill:url(#SVGID_69_);}
	.st74{fill:url(#SVGID_70_);}
	.st75{fill:url(#SVGID_71_);}
	.st76{fill:url(#SVGID_72_);}
	.st77{fill:url(#SVGID_73_);}
	.st78{fill:url(#SVGID_74_);}
	.st79{fill:url(#SVGID_75_);}
	.st80{fill:url(#SVGID_76_);}
	.st81{fill:url(#SVGID_77_);}
	.st82{fill:url(#SVGID_78_);}
	.st83{fill:url(#SVGID_79_);}
	.st84{fill:url(#SVGID_80_);}
	.st85{fill:url(#SVGID_81_);}
	.st86{fill:url(#SVGID_82_);}
	.st87{fill:url(#SVGID_83_);}
	.st88{fill:url(#SVGID_84_);}
	.st89{fill:url(#SVGID_85_);}
	.st90{fill:url(#SVGID_86_);}
	.st91{fill:url(#SVGID_87_);}
	.st92{fill:url(#SVGID_88_);}
	.st93{fill:url(#SVGID_89_);}
	.st94{fill:url(#SVGID_90_);}
	.st95{fill:url(#SVGID_91_);}
	.st96{fill:url(#SVGID_92_);}
	.st97{fill:url(#SVGID_93_);}
	.st98{fill:url(#SVGID_94_);}
	.st99{fill:url(#SVGID_95_);}
	.st100{fill:url(#SVGID_96_);}
	.st101{fill:url(#SVGID_97_);}
	.st102{fill:url(#SVGID_98_);}
	.st103{fill:url(#SVGID_99_);}
	.st104{fill:url(#SVGID_100_);}
	.st105{fill:url(#SVGID_101_);}
	.st106{fill:url(#SVGID_102_);}
	.st107{fill:url(#SVGID_103_);}
	.st108{fill:url(#SVGID_104_);}
	.st109{fill:url(#SVGID_105_);}
	.st110{fill:url(#SVGID_106_);}
	.st111{fill:url(#SVGID_107_);}
	.st112{fill:url(#SVGID_108_);}
	.st113{fill:url(#SVGID_109_);}
	.st114{fill:url(#SVGID_110_);}
	.st115{fill:url(#SVGID_111_);}
	.st116{fill:url(#SVGID_112_);}
	.st117{fill:url(#SVGID_113_);}
	.st118{fill:url(#SVGID_114_);}
	.st119{fill:url(#SVGID_115_);}
	.st120{fill:url(#SVGID_116_);}
	.st121{fill:url(#SVGID_117_);}
	.st122{fill:url(#SVGID_118_);}
	.st123{fill:url(#SVGID_119_);}
	.st124{fill:url(#SVGID_120_);}
	.st125{fill:url(#SVGID_121_);}
	.st126{fill:url(#SVGID_122_);}
	.st127{fill:url(#SVGID_123_);}
	.st128{fill:url(#SVGID_124_);}
	.st129{fill:url(#SVGID_125_);}
	.st130{fill:url(#SVGID_126_);}
	.st131{fill:url(#SVGID_127_);}
	.st132{fill:url(#SVGID_128_);}
	.st133{fill:url(#SVGID_129_);}
	.st134{fill:url(#SVGID_130_);}
	.st135{fill:url(#SVGID_131_);}
	.st136{fill:url(#SVGID_132_);}
	.st137{fill:url(#SVGID_133_);}
	.st138{fill:url(#SVGID_134_);}
	.st139{fill:url(#SVGID_135_);}
	.st140{fill:url(#SVGID_136_);}
	.st141{fill:url(#SVGID_137_);}
	.st142{fill:url(#SVGID_138_);}
	.st143{fill:url(#SVGID_139_);}
	.st144{fill:url(#SVGID_140_);}
	.st145{fill:url(#SVGID_141_);}
	.st146{fill:url(#SVGID_142_);}
	.st147{fill:url(#SVGID_143_);}
	.st148{fill:url(#SVGID_144_);}
	.st149{fill:url(#SVGID_145_);}
	.st150{fill:url(#SVGID_146_);}
	.st151{fill:url(#SVGID_147_);}
	.st152{fill:url(#SVGID_148_);}
	.st153{fill:url(#SVGID_149_);}
	.st154{fill:url(#SVGID_150_);}
	.st155{fill:url(#SVGID_151_);}
	.st156{fill:url(#SVGID_152_);}
	.st157{fill:url(#SVGID_153_);}
	.st158{fill:url(#SVGID_154_);}
	.st159{fill:url(#SVGID_155_);}
	.st160{fill:url(#SVGID_156_);}
	.st161{fill:url(#SVGID_157_);}
	.st162{fill:url(#SVGID_158_);}
	.st163{fill:url(#SVGID_159_);}
	.st164{fill:url(#SVGID_160_);}
	.st165{fill:url(#SVGID_161_);}
	.st166{fill:url(#SVGID_162_);}
	.st167{fill:url(#SVGID_163_);}
	.st168{fill:url(#SVGID_164_);}
	.st169{fill:url(#SVGID_165_);}
	.st170{fill:url(#SVGID_166_);}
	.st171{fill:url(#SVGID_167_);}
	.st172{fill:url(#SVGID_168_);}
	.st173{fill:url(#SVGID_169_);}
	.st174{fill:url(#SVGID_170_);}
	.st175{fill:url(#SVGID_171_);}
	.st176{fill:url(#SVGID_172_);}
	.st177{fill:url(#SVGID_173_);}
	.st178{fill:url(#SVGID_174_);}
	.st179{fill:url(#SVGID_175_);}
	.st180{fill:url(#SVGID_176_);}
	.st181{fill:url(#SVGID_177_);}
	.st182{fill:url(#SVGID_178_);}
	.st183{fill:url(#SVGID_179_);}
	.st184{fill:url(#SVGID_180_);}
	.st185{fill:url(#SVGID_181_);}
	.st186{fill:url(#SVGID_182_);}
	.st187{fill:url(#SVGID_183_);}
	.st188{fill:url(#SVGID_184_);}
	.st189{fill:url(#SVGID_185_);}
	.st190{fill:url(#SVGID_186_);}
	.st191{fill:url(#SVGID_187_);}
	.st192{fill:url(#SVGID_188_);}
	.st193{fill:url(#SVGID_189_);}
	.st194{fill:url(#SVGID_190_);}
	.st195{fill:url(#SVGID_191_);}
	.st196{fill:url(#SVGID_192_);}
	.st197{fill:url(#SVGID_193_);}
	.st198{fill:url(#SVGID_194_);}
	.st199{fill:url(#SVGID_195_);}
	.st200{fill:url(#SVGID_196_);}
	.st201{fill:url(#SVGID_197_);}
	.st202{fill:url(#SVGID_198_);}
	.st203{fill:url(#SVGID_199_);}
	.st204{fill:url(#SVGID_200_);}
	.st205{fill:url(#SVGID_201_);}
	.st206{fill:url(#SVGID_202_);}
	.st207{fill:url(#SVGID_203_);}
	.st208{fill:url(#SVGID_204_);}
	.st209{fill:url(#SVGID_205_);}
	.st210{fill:url(#SVGID_206_);}
	.st211{fill:url(#SVGID_207_);}
	.st212{fill:url(#SVGID_208_);}
	.st213{fill:url(#SVGID_209_);}
	.st214{fill:url(#SVGID_210_);}
	.st215{fill:url(#SVGID_211_);}
	.st216{fill:url(#SVGID_212_);}
	.st217{fill:url(#SVGID_213_);}
	.st218{fill:url(#SVGID_214_);}
	.st219{fill:url(#SVGID_215_);}
	.st220{fill:url(#SVGID_216_);}
	.st221{fill:url(#SVGID_217_);}
	.st222{fill:url(#SVGID_218_);}
	.st223{fill:url(#SVGID_219_);}
	.st224{fill:url(#SVGID_220_);}
	.st225{fill:url(#SVGID_221_);}
	.st226{fill:url(#SVGID_222_);}
	.st227{fill:url(#SVGID_223_);}
	.st228{fill:url(#SVGID_224_);}
	.st229{fill:url(#SVGID_225_);}
	.st230{fill:url(#SVGID_226_);}
	.st231{fill:url(#SVGID_227_);}
	.st232{fill:url(#SVGID_228_);}
	.st233{fill:url(#SVGID_229_);}
	.st234{fill:url(#SVGID_230_);}
	.st235{fill:url(#SVGID_231_);}
	.st236{fill:url(#SVGID_232_);}
	.st237{fill:url(#SVGID_233_);}
	.st238{fill:url(#SVGID_234_);}
	.st239{fill:url(#SVGID_235_);}
	.st240{fill:url(#SVGID_236_);}
	.st241{fill:url(#SVGID_237_);}
	.st242{fill:url(#SVGID_238_);}
	.st243{fill:url(#SVGID_239_);}
	.st244{fill:url(#SVGID_240_);}
	.st245{fill:url(#SVGID_241_);}
	.st246{fill:url(#SVGID_242_);}
	.st247{fill:url(#SVGID_243_);}
	.st248{fill:url(#SVGID_244_);}
	.st249{fill:url(#SVGID_245_);}
	.st250{fill:url(#SVGID_246_);}
	.st251{fill:url(#SVGID_247_);}
	.st252{fill:url(#SVGID_248_);}
	.st253{fill:url(#SVGID_249_);}
	.st254{fill:url(#SVGID_250_);}
	.st255{fill:url(#SVGID_251_);}
	.st256{fill:url(#SVGID_252_);}
	.st257{fill:url(#SVGID_253_);}
	.st258{fill:url(#SVGID_254_);}
	.st259{fill:url(#SVGID_255_);}
	.st260{fill:url(#SVGID_256_);}
	.st261{fill:url(#SVGID_257_);}
	.st262{fill:url(#SVGID_258_);}
	.st263{fill:url(#SVGID_259_);}
	.st264{fill:url(#SVGID_260_);}
	.st265{fill:url(#SVGID_261_);}
	.st266{fill:url(#SVGID_262_);}
	.st267{fill:url(#SVGID_263_);}
	.st268{fill:url(#SVGID_264_);}
	.st269{fill:url(#SVGID_265_);}
	.st270{fill:url(#SVGID_266_);}
	.st271{fill:url(#SVGID_267_);}
	.st272{fill:url(#SVGID_268_);}
	.st273{fill:url(#SVGID_269_);}
	.st274{fill:url(#SVGID_270_);}
</style>
<g id="Layer_2">
</g>
<g id="Layer_1">
</g>
<g id="Color" class="st0">
</g>
<g id="DEVELOPMENT">
	<g>
		<g>
			<linearGradient id="SVGID_1_" gradientUnits="userSpaceOnUse" x1="755.2209" y1="1226.8368" x2="755.2209" y2="-147.6227">
				<stop  offset="0" style="stop-color:#5398AA"/>
				<stop  offset="1" style="stop-color:#1D9CB9"/>
			</linearGradient>
			<path class="st5" d="M990.2,989.2H520.2c-11.2,0-20.2-9.1-20.2-20.2V284.3c0-11.2,9.1-20.2,20.2-20.2h113.3
				c3.8,0,6.9,3.1,6.9,6.9c0,3.8-3.1,6.9-6.9,6.9H520.2c-3.6,0-6.5,2.9-6.5,6.5V969c0,3.6,2.9,6.5,6.5,6.5h470.1
				c3.6,0,6.5-2.9,6.5-6.5V284.3c0-3.6-2.9-6.5-6.5-6.5H875.6c-3.8,0-6.9-3.1-6.9-6.9c0-3.8,3.1-6.9,6.9-6.9h114.7
				c11.2,0,20.2,9.1,20.2,20.2V969C1010.5,980.1,1001.4,989.2,990.2,989.2z"/>
		</g>
		<g>
			<linearGradient id="SVGID_2_" gradientUnits="userSpaceOnUse" x1="755.2209" y1="1226.8368" x2="755.2209" y2="-147.6227">
				<stop  offset="0" style="stop-color:#5398AA"/>
				<stop  offset="1" style="stop-color:#1D9CB9"/>
			</linearGradient>
			<path class="st6" d="M856,352H654.4c-10.2,0-18.5-8.3-18.5-18.5v-93.4c0-10.2,8.3-18.5,18.5-18.5H856c10.2,0,18.5,8.3,18.5,18.5
				v93.4C874.5,343.7,866.2,352,856,352z M654.4,235.3c-2.6,0-4.8,2.1-4.8,4.8v93.4c0,2.6,2.1,4.8,4.8,4.8H856
				c2.6,0,4.8-2.1,4.8-4.8v-93.4c0-2.6-2.1-4.8-4.8-4.8H654.4z"/>
		</g>
		<g>
			<linearGradient id="SVGID_3_" gradientUnits="userSpaceOnUse" x1="755.2209" y1="1226.8368" x2="755.2209" y2="-147.6227">
				<stop  offset="0" style="stop-color:#5398AA"/>
				<stop  offset="1" style="stop-color:#1D9CB9"/>
			</linearGradient>
			<path class="st7" d="M797.2,235.3h-83.9c-3.8,0-6.9-3.1-6.9-6.9v-9.7c0-26.9,21.9-48.8,48.8-48.8c26.9,0,48.8,21.9,48.8,48.8v9.7
				C804,232.2,801,235.3,797.2,235.3z M720.1,221.6h70.2v-2.8c0-19.4-15.7-35.1-35.1-35.1s-35.1,15.7-35.1,35.1V221.6z"/>
		</g>
		<g>
			<g>
				<linearGradient id="SVGID_4_" gradientUnits="userSpaceOnUse" x1="755.2209" y1="1226.8368" x2="755.2209" y2="-147.6227">
					<stop  offset="0" style="stop-color:#5398AA"/>
					<stop  offset="1" style="stop-color:#1D9CB9"/>
				</linearGradient>
				<path class="st8" d="M755.2,610.6c-30,0-54.5-24.4-54.5-54.5c0-30,24.4-54.5,54.5-54.5c30,0,54.5,24.4,54.5,54.5
					C809.7,586.2,785.3,610.6,755.2,610.6z M755.2,515.4c-22.5,0-40.8,18.3-40.8,40.8c0,22.5,18.3,40.8,40.8,40.8
					c22.5,0,40.8-18.3,40.8-40.8C796,533.7,777.7,515.4,755.2,515.4z"/>
			</g>
			<g>
				<linearGradient id="SVGID_5_" gradientUnits="userSpaceOnUse" x1="755.2209" y1="1226.8368" x2="755.2209" y2="-147.6227">
					<stop  offset="0" style="stop-color:#5398AA"/>
					<stop  offset="1" style="stop-color:#1D9CB9"/>
				</linearGradient>
				<path class="st9" d="M755.2,720.4c-38.7,0-75.5-14.7-103.5-41.3c-1.3-1.3-2.1-3-2.1-4.9c0-1.8,0.7-3.6,2-4.9l34.4-34.4
					c2.6-2.6,6.8-2.7,9.5-0.2c16.3,15.1,37.6,23.4,59.8,23.4c22.2,0,43.5-8.3,59.8-23.4c2.7-2.5,6.9-2.4,9.5,0.2l34.4,34.4
					c1.3,1.3,2,3.1,2,4.9c0,1.8-0.8,3.6-2.1,4.9C830.7,705.8,793.9,720.4,755.2,720.4z M666.4,673.9c24.8,21.2,56,32.8,88.9,32.8
					c32.8,0,64.1-11.6,88.9-32.8l-24.7-24.7c-18.1,14.7-40.6,22.7-64.1,22.7c-23.5,0-46-8-64.1-22.7L666.4,673.9z"/>
			</g>
			<g>
				<linearGradient id="SVGID_6_" gradientUnits="userSpaceOnUse" x1="755.2209" y1="1226.8368" x2="755.2209" y2="-147.6227">
					<stop  offset="0" style="stop-color:#5398AA"/>
					<stop  offset="1" style="stop-color:#1D9CB9"/>
				</linearGradient>
				<path class="st10" d="M822.4,481.9c-1.8,0-3.6-0.7-4.8-2c-16.6-16.6-38.8-25.8-62.3-25.8s-45.7,9.2-62.3,25.8
					c-1.3,1.3-3,2-4.8,2c-1.8,0-3.6-0.7-4.8-2l-34.3-34.3c-2.7-2.7-2.7-7,0-9.7c28.4-28.4,66.2-44,106.3-44s77.9,15.6,106.3,44
					c2.7,2.7,2.7,7,0,9.7l-34.3,34.3C825.9,481.2,824.2,481.9,822.4,481.9z M755.2,440.4c24.9,0,48.4,8.9,67,25.1l24.7-24.7
					c-25.2-22.8-57.5-35.3-91.7-35.3s-66.5,12.5-91.7,35.3l24.7,24.7C706.8,449.3,730.3,440.4,755.2,440.4z"/>
			</g>
			<g>
				<linearGradient id="SVGID_7_" gradientUnits="userSpaceOnUse" x1="874.4709" y1="1226.8368" x2="874.4709" y2="-147.6227">
					<stop  offset="0" style="stop-color:#5398AA"/>
					<stop  offset="1" style="stop-color:#1D9CB9"/>
				</linearGradient>
				<path class="st11" d="M870.6,664.5c-1.8,0-3.6-0.7-4.8-2l-34.3-34.3c-2.7-2.7-2.7-7,0-9.7c16.6-16.6,25.8-38.8,25.8-62.3
					c0-22.2-8.3-43.5-23.4-59.8c-2.5-2.7-2.4-6.9,0.2-9.5l34.4-34.4c1.3-1.3,3.1-2,4.9-2c1.8,0,3.6,0.8,4.9,2.1
					c26.7,28.1,41.3,64.8,41.3,103.5c0,40.2-15.6,77.9-44,106.3C874.2,663.8,872.4,664.5,870.6,664.5z M845.8,623.1l24.7,24.7
					c22.8-25.2,35.3-57.5,35.3-91.7c0-32.8-11.6-64.1-32.8-88.9L848.2,492c14.7,18.1,22.7,40.6,22.7,64.1
					C871,581.1,862.1,604.6,845.8,623.1z"/>
			</g>
			<g>
				<linearGradient id="SVGID_8_" gradientUnits="userSpaceOnUse" x1="635.9711" y1="1226.8368" x2="635.9711" y2="-147.6227">
					<stop  offset="0" style="stop-color:#5398AA"/>
					<stop  offset="1" style="stop-color:#1D9CB9"/>
				</linearGradient>
				<path class="st12" d="M639.8,664.5c-1.8,0-3.6-0.7-4.8-2c-28.4-28.4-44-66.2-44-106.3c0-38.7,14.7-75.5,41.3-103.5
					c1.3-1.3,3-2.1,4.9-2.1c1.9,0,3.6,0.7,4.9,2l34.4,34.4c2.6,2.6,2.7,6.8,0.2,9.5c-15.1,16.3-23.4,37.6-23.4,59.8
					c0,23.5,9.2,45.7,25.8,62.3c1.3,1.3,2,3,2,4.8c0,1.8-0.7,3.6-2,4.8l-34.3,34.3C643.4,663.8,641.6,664.5,639.8,664.5z
					 M637.5,467.3c-21.2,24.8-32.8,56-32.8,88.9c0,34.2,12.5,66.5,35.3,91.7l24.7-24.7c-16.3-18.6-25.1-42.1-25.1-67
					c0-23.5,8-46,22.7-64.1L637.5,467.3z"/>
			</g>
		</g>
		<g>
			<g>
				<linearGradient id="SVGID_9_" gradientUnits="userSpaceOnUse" x1="595.6364" y1="1226.8368" x2="595.6364" y2="-147.6227">
					<stop  offset="0" style="stop-color:#5398AA"/>
					<stop  offset="1" style="stop-color:#1D9CB9"/>
				</linearGradient>
				<path class="st13" d="M622.6,828h-53.9c-3.8,0-6.9-3.1-6.9-6.9v-53.9c0-3.8,3.1-6.9,6.9-6.9h53.9c3.8,0,6.9,3.1,6.9,6.9v53.9
					C629.4,824.9,626.3,828,622.6,828z M575.6,814.3h40.1v-40.1h-40.1V814.3z"/>
			</g>
			<g>
				<g>
					<linearGradient id="SVGID_10_" gradientUnits="userSpaceOnUse" x1="807.5646" y1="1226.8368" x2="807.5646" y2="-147.6227">
						<stop  offset="0" style="stop-color:#5398AA"/>
						<stop  offset="1" style="stop-color:#1D9CB9"/>
					</linearGradient>
					<path class="st14" d="M941.9,778.7H673.2c-3.8,0-6.9-3.1-6.9-6.9s3.1-6.9,6.9-6.9h268.7c3.8,0,6.9,3.1,6.9,6.9
						S945.7,778.7,941.9,778.7z"/>
				</g>
				<g>
					<linearGradient id="SVGID_11_" gradientUnits="userSpaceOnUse" x1="740.1979" y1="1226.8368" x2="740.1979" y2="-147.6227">
						<stop  offset="0" style="stop-color:#5398AA"/>
						<stop  offset="1" style="stop-color:#1D9CB9"/>
					</linearGradient>
					<path class="st15" d="M807.2,823.9H673.2c-3.8,0-6.9-3.1-6.9-6.9s3.1-6.9,6.9-6.9h133.9c3.8,0,6.9,3.1,6.9,6.9
						S810.9,823.9,807.2,823.9z"/>
				</g>
			</g>
		</g>
		<g>
			<g>
				<linearGradient id="SVGID_12_" gradientUnits="userSpaceOnUse" x1="595.6364" y1="1226.8368" x2="595.6364" y2="-147.6227">
					<stop  offset="0" style="stop-color:#5398AA"/>
					<stop  offset="1" style="stop-color:#1D9CB9"/>
				</linearGradient>
				<path class="st16" d="M622.6,935.5h-53.9c-3.8,0-6.9-3.1-6.9-6.9v-53.9c0-3.8,3.1-6.9,6.9-6.9h53.9c3.8,0,6.9,3.1,6.9,6.9v53.9
					C629.4,932.5,626.3,935.5,622.6,935.5z M575.6,921.8h40.1v-40.1h-40.1V921.8z"/>
			</g>
			<g>
				<g>
					<linearGradient id="SVGID_13_" gradientUnits="userSpaceOnUse" x1="807.5646" y1="1226.8368" x2="807.5646" y2="-147.6227">
						<stop  offset="0" style="stop-color:#5398AA"/>
						<stop  offset="1" style="stop-color:#1D9CB9"/>
					</linearGradient>
					<path class="st17" d="M941.9,886H673.2c-3.8,0-6.9-3.1-6.9-6.9s3.1-6.9,6.9-6.9h268.7c3.8,0,6.9,3.1,6.9,6.9
						S945.7,886,941.9,886z"/>
				</g>
				<g>
					<linearGradient id="SVGID_14_" gradientUnits="userSpaceOnUse" x1="740.1979" y1="1226.8368" x2="740.1979" y2="-147.6227">
						<stop  offset="0" style="stop-color:#5398AA"/>
						<stop  offset="1" style="stop-color:#1D9CB9"/>
					</linearGradient>
					<path class="st18" d="M807.2,931.2H673.2c-3.8,0-6.9-3.1-6.9-6.9s3.1-6.9,6.9-6.9h133.9c3.8,0,6.9,3.1,6.9,6.9
						S810.9,931.2,807.2,931.2z"/>
				</g>
			</g>
		</g>
		<g>
			<linearGradient id="SVGID_15_" gradientUnits="userSpaceOnUse" x1="755.5268" y1="1226.8368" x2="755.5268" y2="-147.6227">
				<stop  offset="0" style="stop-color:#5398AA"/>
				<stop  offset="1" style="stop-color:#1D9CB9"/>
			</linearGradient>
			<path class="st19" d="M816.8,273.6H694.2c-3.8,0-6.9-3.1-6.9-6.9s3.1-6.9,6.9-6.9h122.6c3.8,0,6.9,3.1,6.9,6.9
				S820.6,273.6,816.8,273.6z"/>
		</g>
		<g>
			<linearGradient id="SVGID_16_" gradientUnits="userSpaceOnUse" x1="755.1234" y1="1226.8368" x2="755.1234" y2="-147.6227">
				<stop  offset="0" style="stop-color:#5398AA"/>
				<stop  offset="1" style="stop-color:#1D9CB9"/>
			</linearGradient>
			<path class="st20" d="M771.7,313.2h-33.1c-3.8,0-6.9-3.1-6.9-6.9s3.1-6.9,6.9-6.9h33.1c3.8,0,6.9,3.1,6.9,6.9
				S775.4,313.2,771.7,313.2z"/>
		</g>
	</g>
	<g>
		<linearGradient id="SVGID_17_" gradientUnits="userSpaceOnUse" x1="432.4279" y1="1226.8368" x2="432.4279" y2="-147.6227">
			<stop  offset="0" style="stop-color:#5398AA"/>
			<stop  offset="1" style="stop-color:#1D9CB9"/>
		</linearGradient>
		<path class="st21" d="M506.8,593.1H165.3c-32.9,0-59.6-26.7-59.6-59.6V129.3c0-32.9,26.7-59.6,59.6-59.6h534.2
			c32.9,0,59.6,26.7,59.6,59.6v47.5c0,3.8-3.1,6.9-6.9,6.9c-3.8,0-6.9-3.1-6.9-6.9v-47.5c0-25.3-20.6-45.9-45.9-45.9H165.3
			c-25.3,0-45.9,20.6-45.9,45.9v404.2c0,25.3,20.6,45.9,45.9,45.9h341.5c3.8,0,6.9,3.1,6.9,6.9C513.7,590.1,510.6,593.1,506.8,593.1
			z"/>
	</g>
	<g>
		<linearGradient id="SVGID_18_" gradientUnits="userSpaceOnUse" x1="374.32" y1="1226.8368" x2="374.32" y2="-147.6227">
			<stop  offset="0" style="stop-color:#5398AA"/>
			<stop  offset="1" style="stop-color:#1D9CB9"/>
		</linearGradient>
		<path class="st22" d="M636.1,159.9H112.5c-3.8,0-6.9-3.1-6.9-6.9c0-3.8,3.1-6.9,6.9-6.9h523.6c3.8,0,6.9,3.1,6.9,6.9
			C643,156.8,639.9,159.9,636.1,159.9z"/>
	</g>
	<g>
		<linearGradient id="SVGID_19_" gradientUnits="userSpaceOnUse" x1="269.4377" y1="1226.8368" x2="269.4377" y2="-147.6227">
			<stop  offset="0" style="stop-color:#5398AA"/>
			<stop  offset="1" style="stop-color:#1D9CB9"/>
		</linearGradient>
		<path class="st23" d="M269.4,160.3c-3.8,0-6.9-3.1-6.9-6.9v-36.3c0-3.8,3.1-6.9,6.9-6.9c3.8,0,6.9,3.1,6.9,6.9v36.3
			C276.3,157.2,273.2,160.3,269.4,160.3z"/>
	</g>
	<g>
		<linearGradient id="SVGID_20_" gradientUnits="userSpaceOnUse" x1="432.428" y1="1226.8368" x2="432.428" y2="-147.6227">
			<stop  offset="0" style="stop-color:#5398AA"/>
			<stop  offset="1" style="stop-color:#1D9CB9"/>
		</linearGradient>
		<path class="st24" d="M503.6,322.1H253.7c-3.8,0-6.9-3.1-6.9-6.9V199.9c0-3.8,3.1-6.9,6.9-6.9h357.4c3.8,0,6.9,3.1,6.9,6.9v71
			c0,3.8-3.1,6.9-6.9,6.9s-6.9-3.1-6.9-6.9v-64.1H260.6v101.6h243c3.8,0,6.9,3.1,6.9,6.9C510.5,319,507.4,322.1,503.6,322.1z"/>
	</g>
	<g>
		<linearGradient id="SVGID_21_" gradientUnits="userSpaceOnUse" x1="403.5734" y1="1226.8368" x2="403.5734" y2="-147.6227">
			<stop  offset="0" style="stop-color:#5398AA"/>
			<stop  offset="1" style="stop-color:#1D9CB9"/>
		</linearGradient>
		<path class="st25" d="M394.7,299.5c-1.8,0-3.6-0.7-4.8-2l-57.4-57.4l-51.5,51.5c-2.7,2.7-7,2.7-9.7,0c-2.7-2.7-2.7-7,0-9.7
			l56.4-56.4c2.7-2.7,7-2.7,9.7,0l57.4,57.4l39.9-39.9c1.3-1.3,3-2,4.8-2c1.8,0,3.6,0.7,4.8,2l30.9,30.9l51.1-51.1
			c2.7-2.7,7-2.7,9.7,0c2.7,2.7,2.7,7,0,9.7l-56,56c-2.7,2.7-7,2.7-9.7,0l-30.9-30.9l-39.9,39.9
			C398.2,298.8,396.5,299.5,394.7,299.5z"/>
	</g>
	<g>
		<linearGradient id="SVGID_22_" gradientUnits="userSpaceOnUse" x1="316.6347" y1="1226.8368" x2="316.6347" y2="-147.6227">
			<stop  offset="0" style="stop-color:#5398AA"/>
			<stop  offset="1" style="stop-color:#1D9CB9"/>
		</linearGradient>
		<path class="st26" d="M460.2,412.4H173c-3.8,0-6.9-3.1-6.9-6.9c0-3.8,3.1-6.9,6.9-6.9h287.2c3.8,0,6.9,3.1,6.9,6.9
			C467.1,409.3,464,412.4,460.2,412.4z"/>
	</g>
	<g>
		<linearGradient id="SVGID_23_" gradientUnits="userSpaceOnUse" x1="316.6347" y1="1226.8368" x2="316.6347" y2="-147.6227">
			<stop  offset="0" style="stop-color:#5398AA"/>
			<stop  offset="1" style="stop-color:#1D9CB9"/>
		</linearGradient>
		<path class="st27" d="M460.2,502.8H173c-3.8,0-6.9-3.1-6.9-6.9c0-3.8,3.1-6.9,6.9-6.9h287.2c3.8,0,6.9,3.1,6.9,6.9
			C467.1,499.7,464,502.8,460.2,502.8z"/>
	</g>
	<g>
		<linearGradient id="SVGID_24_" gradientUnits="userSpaceOnUse" x1="1126.1624" y1="1226.8368" x2="1126.1624" y2="-147.6227">
			<stop  offset="0" style="stop-color:#5398AA"/>
			<stop  offset="1" style="stop-color:#1D9CB9"/>
		</linearGradient>
		<path class="st28" d="M1108.1,1131.6c-51.7,0-102.4-13.9-146.7-40.3c-42.9-25.6-78.6-62.1-103.2-105.6c-1.9-3.3-0.7-7.5,2.6-9.3
			c3.3-1.9,7.5-0.7,9.3,2.6c48.4,85.7,139.6,138.9,237.9,138.9c150.6,0,273.1-122.5,273.1-273.1c0-150.6-122.5-273.1-273.1-273.1
			c-33,0-65.3,5.8-96,17.3c-3.5,1.3-7.5-0.5-8.8-4c-1.3-3.5,0.5-7.5,4-8.8c32.2-12.1,66.1-18.2,100.8-18.2
			c38.7,0,76.3,7.6,111.6,22.5c34.1,14.4,64.8,35.1,91.2,61.5c26.3,26.3,47,57,61.5,91.2c15,35.4,22.5,72.9,22.5,111.6
			c0,38.7-7.6,76.3-22.5,111.6c-14.4,34.1-35.1,64.8-61.5,91.2c-26.3,26.3-57,47-91.2,61.5C1184.4,1124,1146.8,1131.6,1108.1,1131.6
			z"/>
	</g>
	<g>
		<linearGradient id="SVGID_25_" gradientUnits="userSpaceOnUse" x1="1108.1339" y1="1226.8368" x2="1108.1339" y2="-147.6227">
			<stop  offset="0" style="stop-color:#5398AA"/>
			<stop  offset="1" style="stop-color:#1D9CB9"/>
		</linearGradient>
		<path class="st29" d="M1108.1,870.2c-14,0-25.4-11.4-25.4-25.4c0-14,11.4-25.4,25.4-25.4c14,0,25.4,11.4,25.4,25.4
			C1133.5,858.8,1122.1,870.2,1108.1,870.2z M1108.1,833.1c-6.5,0-11.7,5.2-11.7,11.7s5.2,11.7,11.7,11.7c6.5,0,11.7-5.2,11.7-11.7
			S1114.6,833.1,1108.1,833.1z"/>
	</g>
	<g>
		<linearGradient id="SVGID_26_" gradientUnits="userSpaceOnUse" x1="1108.4961" y1="1226.8368" x2="1108.4961" y2="-147.6227">
			<stop  offset="0" style="stop-color:#5398AA"/>
			<stop  offset="1" style="stop-color:#1D9CB9"/>
		</linearGradient>
		<path class="st30" d="M1108.5,610.5c-3.8,0-6.9-3.1-6.9-6.9v-38.7c0-3.8,3.1-6.9,6.9-6.9s6.9,3.1,6.9,6.9v38.7
			C1115.4,607.4,1112.3,610.5,1108.5,610.5z"/>
	</g>
	<g>
		<linearGradient id="SVGID_27_" gradientUnits="userSpaceOnUse" x1="1108.4961" y1="1226.8368" x2="1108.4961" y2="-147.6227">
			<stop  offset="0" style="stop-color:#5398AA"/>
			<stop  offset="1" style="stop-color:#1D9CB9"/>
		</linearGradient>
		<path class="st31" d="M1108.5,1131.6c-3.8,0-6.9-3.1-6.9-6.9v-38.7c0-3.8,3.1-6.9,6.9-6.9s6.9,3.1,6.9,6.9v38.7
			C1115.4,1128.6,1112.3,1131.6,1108.5,1131.6z"/>
	</g>
	<g>
		<linearGradient id="SVGID_28_" gradientUnits="userSpaceOnUse" x1="1292.7626" y1="1226.8368" x2="1292.7626" y2="-147.6227">
			<stop  offset="0" style="stop-color:#5398AA"/>
			<stop  offset="1" style="stop-color:#1D9CB9"/>
		</linearGradient>
		<path class="st32" d="M1306.5,1049.6c-1.8,0-3.5-0.7-4.8-2l-27.4-27.4c-2.7-2.7-2.7-7,0-9.7c2.7-2.7,7-2.7,9.7,0l27.4,27.4
			c2.7,2.7,2.7,7,0,9.7C1310,1049,1308.2,1049.6,1306.5,1049.6z"/>
	</g>
	<g>
		<linearGradient id="SVGID_29_" gradientUnits="userSpaceOnUse" x1="1369.0883" y1="1226.8368" x2="1369.0883" y2="-147.6227">
			<stop  offset="0" style="stop-color:#5398AA"/>
			<stop  offset="1" style="stop-color:#1D9CB9"/>
		</linearGradient>
		<path class="st33" d="M1388.9,852.1h-39.5c-3.8,0-6.9-3.1-6.9-6.9s3.1-6.9,6.9-6.9h39.5c3.8,0,6.9,3.1,6.9,6.9
			S1392.6,852.1,1388.9,852.1z"/>
	</g>
	<g>
		<linearGradient id="SVGID_30_" gradientUnits="userSpaceOnUse" x1="924.6331" y1="1226.8368" x2="924.6331" y2="-147.6227">
			<stop  offset="0" style="stop-color:#5398AA"/>
			<stop  offset="1" style="stop-color:#1D9CB9"/>
		</linearGradient>
		<path class="st34" d="M910.9,1050c-1.8,0-3.5-0.7-4.8-2c-2.7-2.7-2.7-7,0-9.7l27.4-27.4c2.7-2.7,7-2.7,9.7,0c2.7,2.7,2.7,7,0,9.7
			l-27.4,27.4C914.5,1049.4,912.7,1050,910.9,1050z"/>
	</g>
	<g>
		<linearGradient id="SVGID_31_" gradientUnits="userSpaceOnUse" x1="1292.8807" y1="1226.8368" x2="1292.8807" y2="-147.6227">
			<stop  offset="0" style="stop-color:#5398AA"/>
			<stop  offset="1" style="stop-color:#1D9CB9"/>
		</linearGradient>
		<path class="st35" d="M1278.9,682.1c-1.8,0-3.5-0.7-4.8-2c-2.7-2.7-2.7-7,0-9.7l28-28c2.7-2.7,7-2.7,9.7,0c2.7,2.7,2.7,7,0,9.7
			l-28,28C1282.4,681.4,1280.7,682.1,1278.9,682.1z"/>
	</g>
	<g>
		<linearGradient id="SVGID_32_" gradientUnits="userSpaceOnUse" x1="1108.4961" y1="1226.8368" x2="1108.4961" y2="-147.6227">
			<stop  offset="0" style="stop-color:#5398AA"/>
			<stop  offset="1" style="stop-color:#1D9CB9"/>
		</linearGradient>
		<path class="st36" d="M1108.5,833.1c-3.8,0-6.9-3.1-6.9-6.9V660.9c0-3.8,3.1-6.9,6.9-6.9s6.9,3.1,6.9,6.9v165.4
			C1115.4,830.1,1112.3,833.1,1108.5,833.1z"/>
	</g>
	<g>
		<linearGradient id="SVGID_33_" gradientUnits="userSpaceOnUse" x1="1173.4425" y1="1226.8368" x2="1173.4425" y2="-147.6227">
			<stop  offset="0" style="stop-color:#5398AA"/>
			<stop  offset="1" style="stop-color:#1D9CB9"/>
		</linearGradient>
		<path class="st37" d="M1220.2,851.3h-93.6c-3.8,0-6.9-3.1-6.9-6.9s3.1-6.9,6.9-6.9h93.6c3.8,0,6.9,3.1,6.9,6.9
			S1224,851.3,1220.2,851.3z"/>
	</g>
	<g>
		<g>
			<linearGradient id="SVGID_34_" gradientUnits="userSpaceOnUse" x1="1108.4961" y1="1226.8368" x2="1108.4961" y2="-147.6227">
				<stop  offset="0" style="stop-color:#5398AA"/>
				<stop  offset="1" style="stop-color:#1D9CB9"/>
			</linearGradient>
			<path class="st38" d="M1144.4,571.8c-3.8,0-6.9-3.1-6.9-6.9v-51.5h-58.1v51.5c0,3.8-3.1,6.9-6.9,6.9c-3.8,0-6.9-3.1-6.9-6.9
				v-58.4c0-3.8,3.1-6.9,6.9-6.9h71.8c3.8,0,6.9,3.1,6.9,6.9v58.4C1151.3,568.7,1148.2,571.8,1144.4,571.8z"/>
		</g>
		<g>
			<linearGradient id="SVGID_35_" gradientUnits="userSpaceOnUse" x1="1108.1714" y1="1226.8368" x2="1108.1714" y2="-147.6227">
				<stop  offset="0" style="stop-color:#5398AA"/>
				<stop  offset="1" style="stop-color:#1D9CB9"/>
			</linearGradient>
			<path class="st39" d="M1126.2,513.4c-3.8,0-6.9-3.1-6.9-6.9v-50.2H1097v50.2c0,3.8-3.1,6.9-6.9,6.9c-3.8,0-6.9-3.1-6.9-6.9v-57
				c0-3.8,3.1-6.9,6.9-6.9h36c3.8,0,6.9,3.1,6.9,6.9v57C1133,510.3,1130,513.4,1126.2,513.4z"/>
		</g>
		<g>
			<linearGradient id="SVGID_36_" gradientUnits="userSpaceOnUse" x1="1108.1713" y1="1226.8368" x2="1108.1713" y2="-147.6227">
				<stop  offset="0" style="stop-color:#5398AA"/>
				<stop  offset="1" style="stop-color:#1D9CB9"/>
			</linearGradient>
			<path class="st40" d="M1155,456.4h-93.6c-3.8,0-6.9-3.1-6.9-6.9v-26.6c0-3.8,3.1-6.9,6.9-6.9h93.6c3.8,0,6.9,3.1,6.9,6.9v26.6
				C1161.8,453.3,1158.8,456.4,1155,456.4z M1068.2,442.6h79.9v-12.9h-79.9V442.6z"/>
		</g>
	</g>
	<g>
		<g>
			<linearGradient id="SVGID_37_" gradientUnits="userSpaceOnUse" x1="1253.1796" y1="1226.8368" x2="1253.1796" y2="-147.6227">
				<stop  offset="0" style="stop-color:#5398AA"/>
				<stop  offset="1" style="stop-color:#1D9CB9"/>
			</linearGradient>
			<path class="st41" d="M1261.7,614.4c-1.2,0-2.4-0.3-3.5-0.9c-3.3-1.9-4.4-6.1-2.5-9.4l20.6-35.2l-29.3-17.1l-20.6,35.2
				c-1.9,3.3-6.1,4.4-9.4,2.5c-3.3-1.9-4.4-6.1-2.5-9.4l24-41.1c1.9-3.3,6.1-4.4,9.4-2.5l41.1,24c3.3,1.9,4.4,6.1,2.5,9.4l-24,41.1
				C1266.4,613.2,1264.1,614.4,1261.7,614.4z"/>
		</g>
		<g>
			<linearGradient id="SVGID_38_" gradientUnits="userSpaceOnUse" x1="1272.9246" y1="1226.8368" x2="1272.9246" y2="-147.6227">
				<stop  offset="0" style="stop-color:#5398AA"/>
				<stop  offset="1" style="stop-color:#1D9CB9"/>
			</linearGradient>
			<path class="st42" d="M1265.2,561.1c-1.2,0-2.4-0.3-3.5-0.9c-3.3-1.9-4.4-6.1-2.5-9.4l15.5-26.5c1.9-3.3,6.1-4.4,9.4-2.5
				c3.3,1.9,4.4,6.1,2.5,9.4l-15.5,26.5C1269.8,559.9,1267.5,561.1,1265.2,561.1z"/>
		</g>
		<g>
			<linearGradient id="SVGID_39_" gradientUnits="userSpaceOnUse" x1="1283.7727" y1="1226.8368" x2="1283.7727" y2="-147.6227">
				<stop  offset="0" style="stop-color:#5398AA"/>
				<stop  offset="1" style="stop-color:#1D9CB9"/>
			</linearGradient>
			<path class="st43" d="M1301.2,538.7c-1.2,0-2.4-0.3-3.5-0.9l-34.8-20.4c-3.3-1.9-4.4-6.1-2.5-9.4c1.9-3.3,6.1-4.4,9.4-2.5
				l34.8,20.4c3.3,1.9,4.4,6.1,2.5,9.4C1305.8,537.5,1303.5,538.7,1301.2,538.7z"/>
		</g>
	</g>
	<g>
		<linearGradient id="SVGID_40_" gradientUnits="userSpaceOnUse" x1="1097.6045" y1="1226.8368" x2="1097.6045" y2="-147.6227">
			<stop  offset="0" style="stop-color:#5398AA"/>
			<stop  offset="1" style="stop-color:#1D9CB9"/>
		</linearGradient>
		<path class="st44" d="M1253.3,124.4H941.9c-3.8,0-6.9-3.1-6.9-6.9s3.1-6.9,6.9-6.9h311.4c3.8,0,6.9,3.1,6.9,6.9
			S1257.1,124.4,1253.3,124.4z"/>
	</g>
	<g>
		<linearGradient id="SVGID_41_" gradientUnits="userSpaceOnUse" x1="1266.2229" y1="1226.8368" x2="1266.2229" y2="-147.6227">
			<stop  offset="0" style="stop-color:#5398AA"/>
			<stop  offset="1" style="stop-color:#1D9CB9"/>
		</linearGradient>
		<path class="st45" d="M1335.6,234.9h-138.8c-3.8,0-6.9-3.1-6.9-6.9c0-3.8,3.1-6.9,6.9-6.9h138.8c3.8,0,6.9,3.1,6.9,6.9
			C1342.5,231.8,1339.4,234.9,1335.6,234.9z"/>
	</g>
	<g>
		<linearGradient id="SVGID_42_" gradientUnits="userSpaceOnUse" x1="352.1334" y1="1226.8368" x2="352.1334" y2="-147.6227">
			<stop  offset="0" style="stop-color:#5398AA"/>
			<stop  offset="1" style="stop-color:#1D9CB9"/>
		</linearGradient>
		<path class="st46" d="M531.2,1125.6H173c-3.8,0-6.9-3.1-6.9-6.9c0-3.8,3.1-6.9,6.9-6.9h358.2c3.8,0,6.9,3.1,6.9,6.9
			C538.1,1122.5,535,1125.6,531.2,1125.6z"/>
	</g>
	<g>
		<linearGradient id="SVGID_43_" gradientUnits="userSpaceOnUse" x1="190.3726" y1="1226.8368" x2="190.3726" y2="-147.6227">
			<stop  offset="0" style="stop-color:#5398AA"/>
			<stop  offset="1" style="stop-color:#1D9CB9"/>
		</linearGradient>
		<path class="st47" d="M264.2,1036H116.6c-3.8,0-6.9-3.1-6.9-6.9c0-3.8,3.1-6.9,6.9-6.9h147.6c3.8,0,6.9,3.1,6.9,6.9
			C271.1,1033,268,1036,264.2,1036z"/>
	</g>
	<g>
		<linearGradient id="SVGID_44_" gradientUnits="userSpaceOnUse" x1="432.4279" y1="1226.8368" x2="432.4279" y2="-147.6227">
			<stop  offset="0" style="stop-color:#5398AA"/>
			<stop  offset="1" style="stop-color:#1D9CB9"/>
		</linearGradient>
		<path class="st48" d="M432.4,699.3c-12.5,0-22.6-10.1-22.6-22.6c0-12.5,10.1-22.6,22.6-22.6s22.6,10.1,22.6,22.6
			C455,689.1,444.9,699.3,432.4,699.3z M432.4,667.8c-4.9,0-8.9,4-8.9,8.9c0,4.9,4,8.9,8.9,8.9s8.9-4,8.9-8.9
			C441.3,671.8,437.3,667.8,432.4,667.8z"/>
	</g>
	<g>
		<linearGradient id="SVGID_45_" gradientUnits="userSpaceOnUse" x1="1266.3597" y1="1226.8368" x2="1266.3597" y2="-147.6227">
			<stop  offset="0" style="stop-color:#5398AA"/>
			<stop  offset="1" style="stop-color:#1D9CB9"/>
		</linearGradient>
		<path class="st49" d="M1266.4,419.1c-12.5,0-22.6-10.1-22.6-22.6c0-12.5,10.1-22.6,22.6-22.6c12.5,0,22.6,10.1,22.6,22.6
			C1289,408.9,1278.8,419.1,1266.4,419.1z M1266.4,387.6c-4.9,0-8.9,4-8.9,8.9s4,8.9,8.9,8.9c4.9,0,8.9-4,8.9-8.9
			S1271.3,387.6,1266.4,387.6z"/>
	</g>
	<g>
		<g>
			<linearGradient id="SVGID_46_" gradientUnits="userSpaceOnUse" x1="244.4273" y1="1226.8368" x2="244.4273" y2="-147.6227">
				<stop  offset="0" style="stop-color:#5398AA"/>
				<stop  offset="1" style="stop-color:#1D9CB9"/>
			</linearGradient>
			<path class="st50" d="M244.4,873.5c-3.8,0-6.9-3.1-6.9-6.9V844c0-3.8,3.1-6.9,6.9-6.9c3.8,0,6.9,3.1,6.9,6.9v22.6
				C251.3,870.4,248.2,873.5,244.4,873.5z"/>
		</g>
		<g>
			<linearGradient id="SVGID_47_" gradientUnits="userSpaceOnUse" x1="244.8307" y1="1226.8368" x2="244.8307" y2="-147.6227">
				<stop  offset="0" style="stop-color:#5398AA"/>
				<stop  offset="1" style="stop-color:#1D9CB9"/>
			</linearGradient>
			<path class="st51" d="M256.1,862.6h-22.6c-3.8,0-6.9-3.1-6.9-6.9s3.1-6.9,6.9-6.9h22.6c3.8,0,6.9,3.1,6.9,6.9
				S259.9,862.6,256.1,862.6z"/>
		</g>
	</g>
	<g>
		<g>
			<linearGradient id="SVGID_48_" gradientUnits="userSpaceOnUse" x1="1035.0785" y1="1226.8368" x2="1035.0785" y2="-147.6227">
				<stop  offset="0" style="stop-color:#5398AA"/>
				<stop  offset="1" style="stop-color:#1D9CB9"/>
			</linearGradient>
			<path class="st52" d="M1035.1,218.4c-3.8,0-6.9-3.1-6.9-6.9v-22.6c0-3.8,3.1-6.9,6.9-6.9s6.9,3.1,6.9,6.9v22.6
				C1041.9,215.3,1038.9,218.4,1035.1,218.4z"/>
		</g>
		<g>
			<linearGradient id="SVGID_49_" gradientUnits="userSpaceOnUse" x1="1035.4819" y1="1226.8368" x2="1035.4819" y2="-147.6227">
				<stop  offset="0" style="stop-color:#5398AA"/>
				<stop  offset="1" style="stop-color:#1D9CB9"/>
			</linearGradient>
			<path class="st53" d="M1046.8,207.5h-22.6c-3.8,0-6.9-3.1-6.9-6.9c0-3.8,3.1-6.9,6.9-6.9h22.6c3.8,0,6.9,3.1,6.9,6.9
				C1053.6,204.4,1050.6,207.5,1046.8,207.5z"/>
		</g>
	</g>
	<g>
		<g>
			<linearGradient id="SVGID_50_" gradientUnits="userSpaceOnUse" x1="684.933" y1="1226.8368" x2="684.933" y2="-147.6227">
				<stop  offset="0" style="stop-color:#5398AA"/>
				<stop  offset="1" style="stop-color:#1D9CB9"/>
			</linearGradient>
			<path class="st54" d="M684.9,1104.2c-3.8,0-6.9-3.1-6.9-6.9v-22.6c0-3.8,3.1-6.9,6.9-6.9c3.8,0,6.9,3.1,6.9,6.9v22.6
				C691.8,1101.1,688.7,1104.2,684.9,1104.2z"/>
		</g>
		<g>
			<linearGradient id="SVGID_51_" gradientUnits="userSpaceOnUse" x1="685.3364" y1="1226.8368" x2="685.3364" y2="-147.6227">
				<stop  offset="0" style="stop-color:#5398AA"/>
				<stop  offset="1" style="stop-color:#1D9CB9"/>
			</linearGradient>
			<path class="st55" d="M696.6,1093.3H674c-3.8,0-6.9-3.1-6.9-6.9c0-3.8,3.1-6.9,6.9-6.9h22.6c3.8,0,6.9,3.1,6.9,6.9
				C703.5,1090.2,700.4,1093.3,696.6,1093.3z"/>
		</g>
	</g>
</g>
<g id="EXPERIENCE">
</g>
<g id="CREATIVITY">
</g>
<g id="WEBINAR">
</g>
<g id="COACHING">
</g>
</svg>
