<?xml version="1.0" encoding="utf-8"?>
<!-- Generator: Adobe Illustrator 22.0.1, SVG Export Plug-In . SVG Version: 6.00 Build 0)  -->
<svg version="1.1" xmlns="http://www.w3.org/2000/svg" xmlns:xlink="http://www.w3.org/1999/xlink" x="0px" y="0px"
	 viewBox="0 0 1419.2 1192" style="enable-background:new 0 0 1419.2 1192;" xml:space="preserve">
<style type="text/css">
	.st0{display:none;}
	.st1{display:inline;}
	.st2{fill:#FBD471;}
	.st3{fill:#98E5ED;}
	.st4{fill:#E3EAE5;}
	.st5{fill:url(#SVGID_1_);}
	.st6{fill:url(#SVGID_2_);}
	.st7{fill:url(#SVGID_3_);}
	.st8{fill:url(#SVGID_4_);}
	.st9{fill:url(#SVGID_5_);}
	.st10{fill:url(#SVGID_6_);}
	.st11{fill:url(#SVGID_7_);}
	.st12{fill:url(#SVGID_8_);}
	.st13{fill:url(#SVGID_9_);}
	.st14{fill:url(#SVGID_10_);}
	.st15{fill:url(#SVGID_11_);}
	.st16{fill:url(#SVGID_12_);}
	.st17{fill:url(#SVGID_13_);}
	.st18{fill:url(#SVGID_14_);}
	.st19{fill:url(#SVGID_15_);}
	.st20{fill:url(#SVGID_16_);}
	.st21{fill:url(#SVGID_17_);}
	.st22{fill:url(#SVGID_18_);}
	.st23{fill:url(#SVGID_19_);}
	.st24{fill:url(#SVGID_20_);}
	.st25{fill:url(#SVGID_21_);}
	.st26{fill:url(#SVGID_22_);}
	.st27{fill:url(#SVGID_23_);}
	.st28{fill:url(#SVGID_24_);}
	.st29{fill:url(#SVGID_25_);}
	.st30{fill:url(#SVGID_26_);}
	.st31{fill:url(#SVGID_27_);}
	.st32{fill:url(#SVGID_28_);}
	.st33{fill:url(#SVGID_29_);}
	.st34{fill:url(#SVGID_30_);}
	.st35{fill:url(#SVGID_31_);}
	.st36{fill:url(#SVGID_32_);}
	.st37{fill:url(#SVGID_33_);}
	.st38{fill:url(#SVGID_34_);}
	.st39{fill:url(#SVGID_35_);}
	.st40{fill:url(#SVGID_36_);}
	.st41{fill:url(#SVGID_37_);}
	.st42{fill:url(#SVGID_38_);}
	.st43{fill:url(#SVGID_39_);}
	.st44{fill:url(#SVGID_40_);}
	.st45{fill:url(#SVGID_41_);}
	.st46{fill:url(#SVGID_42_);}
	.st47{fill:url(#SVGID_43_);}
	.st48{fill:url(#SVGID_44_);}
	.st49{fill:url(#SVGID_45_);}
	.st50{fill:url(#SVGID_46_);}
	.st51{fill:url(#SVGID_47_);}
	.st52{fill:url(#SVGID_48_);}
	.st53{fill:url(#SVGID_49_);}
	.st54{fill:url(#SVGID_50_);}
	.st55{fill:url(#SVGID_51_);}
	.st56{fill:url(#SVGID_52_);}
	.st57{fill:url(#SVGID_53_);}
	.st58{fill:url(#SVGID_54_);}
	.st59{fill:url(#SVGID_55_);}
	.st60{fill:url(#SVGID_56_);}
	.st61{fill:url(#SVGID_57_);}
	.st62{fill:url(#SVGID_58_);}
	.st63{fill:url(#SVGID_59_);}
	.st64{fill:url(#SVGID_60_);}
	.st65{fill:url(#SVGID_61_);}
	.st66{fill:url(#SVGID_62_);}
	.st67{fill:url(#SVGID_63_);}
	.st68{fill:url(#SVGID_64_);}
	.st69{fill:url(#SVGID_65_);}
	.st70{fill:url(#SVGID_66_);}
	.st71{fill:url(#SVGID_67_);}
	.st72{fill:url(#SVGID_68_);}
	.st73{fill:url(#SVGID_69_);}
	.st74{fill:url(#SVGID_70_);}
	.st75{fill:url(#SVGID_71_);}
	.st76{fill:url(#SVGID_72_);}
	.st77{fill:url(#SVGID_73_);}
	.st78{fill:url(#SVGID_74_);}
	.st79{fill:url(#SVGID_75_);}
	.st80{fill:url(#SVGID_76_);}
	.st81{fill:url(#SVGID_77_);}
	.st82{fill:url(#SVGID_78_);}
	.st83{fill:url(#SVGID_79_);}
	.st84{fill:url(#SVGID_80_);}
	.st85{fill:url(#SVGID_81_);}
	.st86{fill:url(#SVGID_82_);}
	.st87{fill:url(#SVGID_83_);}
	.st88{fill:url(#SVGID_84_);}
	.st89{fill:url(#SVGID_85_);}
	.st90{fill:url(#SVGID_86_);}
	.st91{fill:url(#SVGID_87_);}
	.st92{fill:url(#SVGID_88_);}
	.st93{fill:url(#SVGID_89_);}
	.st94{fill:url(#SVGID_90_);}
	.st95{fill:url(#SVGID_91_);}
	.st96{fill:url(#SVGID_92_);}
	.st97{fill:url(#SVGID_93_);}
	.st98{fill:url(#SVGID_94_);}
	.st99{fill:url(#SVGID_95_);}
	.st100{fill:url(#SVGID_96_);}
	.st101{fill:url(#SVGID_97_);}
	.st102{fill:url(#SVGID_98_);}
	.st103{fill:url(#SVGID_99_);}
	.st104{fill:url(#SVGID_100_);}
	.st105{fill:url(#SVGID_101_);}
	.st106{fill:url(#SVGID_102_);}
	.st107{fill:url(#SVGID_103_);}
	.st108{fill:url(#SVGID_104_);}
	.st109{fill:url(#SVGID_105_);}
	.st110{fill:url(#SVGID_106_);}
	.st111{fill:url(#SVGID_107_);}
	.st112{fill:url(#SVGID_108_);}
	.st113{fill:url(#SVGID_109_);}
	.st114{fill:url(#SVGID_110_);}
	.st115{fill:url(#SVGID_111_);}
	.st116{fill:url(#SVGID_112_);}
	.st117{fill:url(#SVGID_113_);}
	.st118{fill:url(#SVGID_114_);}
	.st119{fill:url(#SVGID_115_);}
	.st120{fill:url(#SVGID_116_);}
	.st121{fill:url(#SVGID_117_);}
	.st122{fill:url(#SVGID_118_);}
	.st123{fill:url(#SVGID_119_);}
	.st124{fill:url(#SVGID_120_);}
	.st125{fill:url(#SVGID_121_);}
	.st126{fill:url(#SVGID_122_);}
	.st127{fill:url(#SVGID_123_);}
	.st128{fill:url(#SVGID_124_);}
	.st129{fill:url(#SVGID_125_);}
	.st130{fill:url(#SVGID_126_);}
	.st131{fill:url(#SVGID_127_);}
	.st132{fill:url(#SVGID_128_);}
	.st133{fill:url(#SVGID_129_);}
	.st134{fill:url(#SVGID_130_);}
	.st135{fill:url(#SVGID_131_);}
	.st136{fill:url(#SVGID_132_);}
	.st137{fill:url(#SVGID_133_);}
	.st138{fill:url(#SVGID_134_);}
	.st139{fill:url(#SVGID_135_);}
	.st140{fill:url(#SVGID_136_);}
	.st141{fill:url(#SVGID_137_);}
	.st142{fill:url(#SVGID_138_);}
	.st143{fill:url(#SVGID_139_);}
	.st144{fill:url(#SVGID_140_);}
	.st145{fill:url(#SVGID_141_);}
	.st146{fill:url(#SVGID_142_);}
	.st147{fill:url(#SVGID_143_);}
	.st148{fill:url(#SVGID_144_);}
	.st149{fill:url(#SVGID_145_);}
	.st150{fill:url(#SVGID_146_);}
	.st151{fill:url(#SVGID_147_);}
	.st152{fill:url(#SVGID_148_);}
	.st153{fill:url(#SVGID_149_);}
	.st154{fill:url(#SVGID_150_);}
	.st155{fill:url(#SVGID_151_);}
	.st156{fill:url(#SVGID_152_);}
	.st157{fill:url(#SVGID_153_);}
	.st158{fill:url(#SVGID_154_);}
	.st159{fill:url(#SVGID_155_);}
	.st160{fill:url(#SVGID_156_);}
	.st161{fill:url(#SVGID_157_);}
	.st162{fill:url(#SVGID_158_);}
	.st163{fill:url(#SVGID_159_);}
	.st164{fill:url(#SVGID_160_);}
	.st165{fill:url(#SVGID_161_);}
	.st166{fill:url(#SVGID_162_);}
	.st167{fill:url(#SVGID_163_);}
	.st168{fill:url(#SVGID_164_);}
	.st169{fill:url(#SVGID_165_);}
	.st170{fill:url(#SVGID_166_);}
	.st171{fill:url(#SVGID_167_);}
	.st172{fill:url(#SVGID_168_);}
	.st173{fill:url(#SVGID_169_);}
	.st174{fill:url(#SVGID_170_);}
	.st175{fill:url(#SVGID_171_);}
	.st176{fill:url(#SVGID_172_);}
	.st177{fill:url(#SVGID_173_);}
	.st178{fill:url(#SVGID_174_);}
	.st179{fill:url(#SVGID_175_);}
	.st180{fill:url(#SVGID_176_);}
	.st181{fill:url(#SVGID_177_);}
	.st182{fill:url(#SVGID_178_);}
	.st183{fill:url(#SVGID_179_);}
	.st184{fill:url(#SVGID_180_);}
	.st185{fill:url(#SVGID_181_);}
	.st186{fill:url(#SVGID_182_);}
	.st187{fill:url(#SVGID_183_);}
	.st188{fill:url(#SVGID_184_);}
	.st189{fill:url(#SVGID_185_);}
	.st190{fill:url(#SVGID_186_);}
	.st191{fill:url(#SVGID_187_);}
	.st192{fill:url(#SVGID_188_);}
	.st193{fill:url(#SVGID_189_);}
	.st194{fill:url(#SVGID_190_);}
	.st195{fill:url(#SVGID_191_);}
	.st196{fill:url(#SVGID_192_);}
	.st197{fill:url(#SVGID_193_);}
	.st198{fill:url(#SVGID_194_);}
	.st199{fill:url(#SVGID_195_);}
	.st200{fill:url(#SVGID_196_);}
	.st201{fill:url(#SVGID_197_);}
	.st202{fill:url(#SVGID_198_);}
	.st203{fill:url(#SVGID_199_);}
	.st204{fill:url(#SVGID_200_);}
	.st205{fill:url(#SVGID_201_);}
	.st206{fill:url(#SVGID_202_);}
	.st207{fill:url(#SVGID_203_);}
	.st208{fill:url(#SVGID_204_);}
	.st209{fill:url(#SVGID_205_);}
	.st210{fill:url(#SVGID_206_);}
	.st211{fill:url(#SVGID_207_);}
	.st212{fill:url(#SVGID_208_);}
	.st213{fill:url(#SVGID_209_);}
	.st214{fill:url(#SVGID_210_);}
	.st215{fill:url(#SVGID_211_);}
	.st216{fill:url(#SVGID_212_);}
	.st217{fill:url(#SVGID_213_);}
	.st218{fill:url(#SVGID_214_);}
	.st219{fill:url(#SVGID_215_);}
	.st220{fill:url(#SVGID_216_);}
	.st221{fill:url(#SVGID_217_);}
	.st222{fill:url(#SVGID_218_);}
	.st223{fill:url(#SVGID_219_);}
	.st224{fill:url(#SVGID_220_);}
	.st225{fill:url(#SVGID_221_);}
	.st226{fill:url(#SVGID_222_);}
	.st227{fill:url(#SVGID_223_);}
	.st228{fill:url(#SVGID_224_);}
	.st229{fill:url(#SVGID_225_);}
	.st230{fill:url(#SVGID_226_);}
	.st231{fill:url(#SVGID_227_);}
	.st232{fill:url(#SVGID_228_);}
	.st233{fill:url(#SVGID_229_);}
	.st234{fill:url(#SVGID_230_);}
	.st235{fill:url(#SVGID_231_);}
	.st236{fill:url(#SVGID_232_);}
	.st237{fill:url(#SVGID_233_);}
	.st238{fill:url(#SVGID_234_);}
	.st239{fill:url(#SVGID_235_);}
	.st240{fill:url(#SVGID_236_);}
	.st241{fill:url(#SVGID_237_);}
	.st242{fill:url(#SVGID_238_);}
	.st243{fill:url(#SVGID_239_);}
	.st244{fill:url(#SVGID_240_);}
	.st245{fill:url(#SVGID_241_);}
	.st246{fill:url(#SVGID_242_);}
	.st247{fill:url(#SVGID_243_);}
	.st248{fill:url(#SVGID_244_);}
	.st249{fill:url(#SVGID_245_);}
	.st250{fill:url(#SVGID_246_);}
	.st251{fill:url(#SVGID_247_);}
	.st252{fill:url(#SVGID_248_);}
	.st253{fill:url(#SVGID_249_);}
	.st254{fill:url(#SVGID_250_);}
	.st255{fill:url(#SVGID_251_);}
	.st256{fill:url(#SVGID_252_);}
	.st257{fill:url(#SVGID_253_);}
	.st258{fill:url(#SVGID_254_);}
	.st259{fill:url(#SVGID_255_);}
	.st260{fill:url(#SVGID_256_);}
	.st261{fill:url(#SVGID_257_);}
	.st262{fill:url(#SVGID_258_);}
	.st263{fill:url(#SVGID_259_);}
	.st264{fill:url(#SVGID_260_);}
	.st265{fill:url(#SVGID_261_);}
	.st266{fill:url(#SVGID_262_);}
	.st267{fill:url(#SVGID_263_);}
	.st268{fill:url(#SVGID_264_);}
	.st269{fill:url(#SVGID_265_);}
	.st270{fill:url(#SVGID_266_);}
	.st271{fill:url(#SVGID_267_);}
	.st272{fill:url(#SVGID_268_);}
	.st273{fill:url(#SVGID_269_);}
	.st274{fill:url(#SVGID_270_);}
</style>
<g id="Layer_2">
</g>
<g id="Layer_1">
</g>
<g id="Color" class="st0">
	<g class="st1">
		<g>
			<polygon class="st2" points="424.6,427 476.9,384.1 424.6,341.3 			"/>
		</g>
	</g>
	<g class="st1">
		<g>
			<path class="st4" d="M770.2,95.4H109.4c-18.8,0-34.1,15.3-34.1,34.1v36.4h729v-36.4C804.3,110.7,789.1,95.4,770.2,95.4z"/>
		</g>
	</g>
	<g class="st1">
		<g>
			<rect x="1398.2" y="593.4" class="st4" width="152.1" height="172"/>
		</g>
	</g>
	<g class="st1">
		<g>
			<path class="st4" d="M1120.1,492.4l224.7,0.3c27.5,7.9,44.5,22.4,50.3,44.1l0.1,56.5h257.1v-202h-532.2V492.4z"/>
		</g>
	</g>
</g>
<g id="DEVELOPMENT">
</g>
<g id="EXPERIENCE">
</g>
<g id="CREATIVITY">
</g>
<g id="WEBINAR">
	<g>
		<g>
			<g>
				<linearGradient id="SVGID_1_" gradientUnits="userSpaceOnUse" x1="713.2492" y1="1136.2179" x2="713.2492" y2="9.0259">
					<stop  offset="0" style="stop-color:#5398AA"/>
					<stop  offset="1" style="stop-color:#1D9CB9"/>
				</linearGradient>
				<path class="st5" d="M1095.6,963.4H330.9c-26.9,0-48.8-21.9-48.8-48.8V433.8c0-26.9,21.9-48.8,48.8-48.8h764.8
					c26.9,0,48.8,21.9,48.8,48.8v480.8C1144.4,941.5,1122.5,963.4,1095.6,963.4z M330.9,398.7c-19.4,0-35.1,15.7-35.1,35.1v480.8
					c0,19.4,15.7,35.1,35.1,35.1h764.8c19.4,0,35.1-15.7,35.1-35.1V433.8c0-19.4-15.7-35.1-35.1-35.1H330.9z"/>
			</g>
		</g>
		<g>
			<g>
				<linearGradient id="SVGID_2_" gradientUnits="userSpaceOnUse" x1="713.2492" y1="1136.2179" x2="713.2492" y2="9.0259">
					<stop  offset="0" style="stop-color:#5398AA"/>
					<stop  offset="1" style="stop-color:#1D9CB9"/>
				</linearGradient>
				<path class="st6" d="M1105.3,868.6c-3.8,0-6.9-3.1-6.9-6.9V437.3c0-3.5-2.9-6.4-6.4-6.4H334.4c-3.5,0-6.4,2.9-6.4,6.4v424.5
					c0,3.8-3.1,6.9-6.9,6.9s-6.9-3.1-6.9-6.9V437.3c0-11.1,9-20.1,20.1-20.1h757.7c11.1,0,20.1,9,20.1,20.1v424.5
					C1112.2,865.6,1109.1,868.6,1105.3,868.6z"/>
			</g>
		</g>
		<g>
			<g>
				<linearGradient id="SVGID_3_" gradientUnits="userSpaceOnUse" x1="713.2496" y1="1136.2179" x2="713.2496" y2="9.0259">
					<stop  offset="0" style="stop-color:#5398AA"/>
					<stop  offset="1" style="stop-color:#1D9CB9"/>
				</linearGradient>
				<path class="st7" d="M804.3,1121.4H622.2c-3.8,0-6.9-3.1-6.9-6.9V964.6c0-3.8,3.1-6.9,6.9-6.9c3.8,0,6.9,3.1,6.9,6.9v143h168.5
					v-143c0-3.8,3.1-6.9,6.9-6.9c3.8,0,6.9,3.1,6.9,6.9v149.9C811.2,1118.3,808.1,1121.4,804.3,1121.4z"/>
			</g>
		</g>
		<g>
			<g>
				<linearGradient id="SVGID_4_" gradientUnits="userSpaceOnUse" x1="712.6757" y1="1136.2179" x2="712.6757" y2="9.0259">
					<stop  offset="0" style="stop-color:#5398AA"/>
					<stop  offset="1" style="stop-color:#1D9CB9"/>
				</linearGradient>
				<path class="st8" d="M879.3,1121.1H546.1c-3.8,0-6.9-3.1-6.9-6.9s3.1-6.9,6.9-6.9h333.2c3.8,0,6.9,3.1,6.9,6.9
					S883.1,1121.1,879.3,1121.1z"/>
			</g>
		</g>
		<g>
			<g>
				<linearGradient id="SVGID_5_" gradientUnits="userSpaceOnUse" x1="709.0451" y1="1136.2179" x2="709.0451" y2="9.0259">
					<stop  offset="0" style="stop-color:#5398AA"/>
					<stop  offset="1" style="stop-color:#1D9CB9"/>
				</linearGradient>
				<path class="st9" d="M1129.4,878.2H288.7c-3.8,0-6.9-3.1-6.9-6.9c0-3.8,3.1-6.9,6.9-6.9h840.7c3.8,0,6.9,3.1,6.9,6.9
					C1136.2,875.2,1133.2,878.2,1129.4,878.2z"/>
			</g>
		</g>
		<g>
			<g>
				<linearGradient id="SVGID_6_" gradientUnits="userSpaceOnUse" x1="709.5218" y1="1136.2179" x2="709.5218" y2="9.0259">
					<stop  offset="0" style="stop-color:#5398AA"/>
					<stop  offset="1" style="stop-color:#1D9CB9"/>
				</linearGradient>
				<path class="st10" d="M709.5,940.4c-12.2,0-22.2-10-22.2-22.2c0-12.2,10-22.2,22.2-22.2s22.2,10,22.2,22.2
					C731.7,930.5,721.8,940.4,709.5,940.4z M709.5,909.8c-4.7,0-8.5,3.8-8.5,8.5c0,4.7,3.8,8.5,8.5,8.5s8.5-3.8,8.5-8.5
					C718,913.6,714.2,909.8,709.5,909.8z"/>
			</g>
		</g>
	</g>
	<g>
		<g>
			<linearGradient id="SVGID_7_" gradientUnits="userSpaceOnUse" x1="713.1464" y1="1136.2179" x2="713.1464" y2="9.0259">
				<stop  offset="0" style="stop-color:#5398AA"/>
				<stop  offset="1" style="stop-color:#1D9CB9"/>
			</linearGradient>
			<path class="st11" d="M718.2,775.1h-10.2c-11.1,0-21.9-4.5-29.7-12.3l-35.4-35.5c-8.8-8.8-13.6-20.5-13.6-33v-92.7
				c0-3.8,3.1-6.9,6.9-6.9c3.8,0,6.9,3.1,6.9,6.9v92.7c0,8.8,3.4,17.1,9.6,23.3l35.4,35.5c5.2,5.3,12.5,8.3,19.9,8.3h10.2
				c7.4,0,14.7-3,19.9-8.3l35.4-35.5c6.2-6.2,9.6-14.5,9.6-23.3v-92.7c0-3.8,3.1-6.9,6.9-6.9c3.8,0,6.9,3.1,6.9,6.9v92.7
				c0,12.4-4.8,24.2-13.6,33l-35.4,35.5C740.1,770.6,729.3,775.1,718.2,775.1z"/>
		</g>
	</g>
	<g>
		<g>
			<linearGradient id="SVGID_8_" gradientUnits="userSpaceOnUse" x1="713.1464" y1="1136.2179" x2="713.1464" y2="9.0259">
				<stop  offset="0" style="stop-color:#5398AA"/>
				<stop  offset="1" style="stop-color:#1D9CB9"/>
			</linearGradient>
			<path class="st12" d="M824.6,739.1h-54.8c-3.8,0-6.9-3.1-6.9-6.9s3.1-6.9,6.9-6.9h47.9V621c0-55.9-44-96.5-104.6-96.5
				c-60.6,0-104.6,40.6-104.6,96.5v104.4h46.3c3.8,0,6.9,3.1,6.9,6.9s-3.1,6.9-6.9,6.9h-53.1c-3.8,0-6.9-3.1-6.9-6.9V621
				c0-31.2,12.4-59.6,34.9-79.9c21.8-19.6,51.4-30.4,83.4-30.4c32,0,61.6,10.8,83.4,30.4c22.5,20.3,34.9,48.6,34.9,79.9v111.2
				C831.5,736,828.4,739.1,824.6,739.1z"/>
		</g>
	</g>
	<g>
		<g>
			<g>
				<linearGradient id="SVGID_9_" gradientUnits="userSpaceOnUse" x1="675.5801" y1="1136.2179" x2="675.5801" y2="9.0259">
					<stop  offset="0" style="stop-color:#5398AA"/>
					<stop  offset="1" style="stop-color:#1D9CB9"/>
				</linearGradient>
				<path class="st13" d="M639.8,623.3c-0.3,0-0.7,0-1,0h-0.9c-3.8,0-6.9-3.1-6.9-6.9s3.1-6.9,6.9-6.9h0.9c0.1,0,0.1,0,0.2,0
					c34.5,0,66.4-6.1,67.4-48.4c0.1-3.8,3.3-6.9,7-6.8c3.8,0.1,6.8,3.2,6.7,7c-0.6,26.5-11.9,44.9-33.4,54.3
					C670.2,622.9,651.5,623.3,639.8,623.3z"/>
			</g>
		</g>
		<g>
			<g>
				<linearGradient id="SVGID_10_" gradientUnits="userSpaceOnUse" x1="751.0145" y1="1136.2179" x2="751.0145" y2="9.0259">
					<stop  offset="0" style="stop-color:#5398AA"/>
					<stop  offset="1" style="stop-color:#1D9CB9"/>
				</linearGradient>
				<path class="st14" d="M786.4,623.3c-11.6,0-30.1-0.4-46.5-7.6c-21.3-9.4-32.4-27.8-33-54.2c-0.1-3.8,2.9-7,6.7-7.1
					c0.1,0,0.1,0,0.2,0c3.7,0,6.8,3.2,6.9,6.9c1,42.3,32.6,48.4,66.6,48.4c0.1,0,0.1,0,0.1,0h0.9c3.8,0,6.9,3.1,6.9,6.9
					s-3.1,6.9-6.9,6.9h-0.9C787,623.3,786.7,623.3,786.4,623.3z"/>
			</g>
		</g>
	</g>
	<g>
		<g>
			<linearGradient id="SVGID_11_" gradientUnits="userSpaceOnUse" x1="809.1915" y1="1136.2179" x2="809.1915" y2="9.0259">
				<stop  offset="0" style="stop-color:#5398AA"/>
				<stop  offset="1" style="stop-color:#1D9CB9"/>
			</linearGradient>
			<path class="st15" d="M864.6,878.2c-3.8,0-6.9-3.1-6.9-6.9V870c0-36.2-29.4-65.6-65.6-65.6h-19.5c-14.2,0-25.7-11.5-25.7-25.7
				V750c0-3.8,3.1-6.9,6.9-6.9c3.8,0,6.9,3.1,6.9,6.9v28.8c0,6.6,5.4,12,12,12h19.5c43.7,0,79.3,35.6,79.3,79.3v1.4
				C871.4,875.2,868.3,878.2,864.6,878.2z"/>
		</g>
	</g>
	<g>
		<g>
			<linearGradient id="SVGID_12_" gradientUnits="userSpaceOnUse" x1="617.7734" y1="1136.2179" x2="617.7734" y2="9.0259">
				<stop  offset="0" style="stop-color:#5398AA"/>
				<stop  offset="1" style="stop-color:#1D9CB9"/>
			</linearGradient>
			<path class="st16" d="M562.4,878.2c-3.8,0-6.9-3.1-6.9-6.9V870c0-43.7,35.6-79.3,79.3-79.3h19.5c6.6,0,12-5.4,12-12V750
				c0-3.8,3.1-6.9,6.9-6.9c3.8,0,6.9,3.1,6.9,6.9v28.8c0,14.2-11.5,25.7-25.7,25.7h-19.5c-36.2,0-65.6,29.4-65.6,65.6v1.4
				C569.3,875.2,566.2,878.2,562.4,878.2z"/>
		</g>
	</g>
	<g>
		<g>
			<linearGradient id="SVGID_13_" gradientUnits="userSpaceOnUse" x1="983.3527" y1="1136.2179" x2="983.3527" y2="9.0259">
				<stop  offset="0" style="stop-color:#5398AA"/>
				<stop  offset="1" style="stop-color:#1D9CB9"/>
			</linearGradient>
			<path class="st17" d="M1055.2,670.1H911.5c-3.8,0-6.9-3.1-6.9-6.9s3.1-6.9,6.9-6.9h143.6c3.8,0,6.9,3.1,6.9,6.9
				S1058.9,670.1,1055.2,670.1z"/>
		</g>
	</g>
	<g>
		<g>
			<linearGradient id="SVGID_14_" gradientUnits="userSpaceOnUse" x1="906.7079" y1="1136.2179" x2="906.7079" y2="9.0259">
				<stop  offset="0" style="stop-color:#5398AA"/>
				<stop  offset="1" style="stop-color:#1D9CB9"/>
			</linearGradient>
			<path class="st18" d="M966.4,512H847c-3.8,0-6.9-3.1-6.9-6.9c0-3.8,3.1-6.9,6.9-6.9h119.4c3.8,0,6.9,3.1,6.9,6.9
				C973.3,508.9,970.2,512,966.4,512z"/>
		</g>
	</g>
	<g>
		<g>
			<linearGradient id="SVGID_15_" gradientUnits="userSpaceOnUse" x1="451.6801" y1="1136.2179" x2="451.6801" y2="9.0259">
				<stop  offset="0" style="stop-color:#5398AA"/>
				<stop  offset="1" style="stop-color:#1D9CB9"/>
			</linearGradient>
			<path class="st19" d="M534,757.2H369.4c-3.8,0-6.9-3.1-6.9-6.9s3.1-6.9,6.9-6.9H534c3.8,0,6.9,3.1,6.9,6.9S537.8,757.2,534,757.2
				z"/>
		</g>
	</g>
	<g>
		<g>
			<linearGradient id="SVGID_16_" gradientUnits="userSpaceOnUse" x1="522.6773" y1="1136.2179" x2="522.6773" y2="9.0259">
				<stop  offset="0" style="stop-color:#5398AA"/>
				<stop  offset="1" style="stop-color:#1D9CB9"/>
			</linearGradient>
			<path class="st20" d="M601.7,500.7H443.6c-3.8,0-6.9-3.1-6.9-6.9c0-3.8,3.1-6.9,6.9-6.9h158.1c3.8,0,6.9,3.1,6.9,6.9
				C608.6,497.6,605.5,500.7,601.7,500.7z"/>
		</g>
	</g>
	<g>
		<g>
			<linearGradient id="SVGID_17_" gradientUnits="userSpaceOnUse" x1="480.7244" y1="1136.2179" x2="480.7244" y2="9.0259">
				<stop  offset="0" style="stop-color:#5398AA"/>
				<stop  offset="1" style="stop-color:#1D9CB9"/>
			</linearGradient>
			<path class="st21" d="M492,632.2h-22.6c-3.8,0-6.9-3.1-6.9-6.9c0-3.8,3.1-6.9,6.9-6.9H492c3.8,0,6.9,3.1,6.9,6.9
				C498.9,629.1,495.8,632.2,492,632.2z"/>
		</g>
	</g>
	<g>
		<g>
			<linearGradient id="SVGID_18_" gradientUnits="userSpaceOnUse" x1="968.4271" y1="1136.2179" x2="968.4271" y2="9.0259">
				<stop  offset="0" style="stop-color:#5398AA"/>
				<stop  offset="1" style="stop-color:#1D9CB9"/>
			</linearGradient>
			<path class="st22" d="M983.4,794.3h-29.9c-3.8,0-6.9-3.1-6.9-6.9s3.1-6.9,6.9-6.9h29.9c3.8,0,6.9,3.1,6.9,6.9
				S987.1,794.3,983.4,794.3z"/>
		</g>
	</g>
	<g>
		<g>
			<linearGradient id="SVGID_19_" gradientUnits="userSpaceOnUse" x1="1130.9127" y1="1136.2179" x2="1130.9127" y2="9.0259">
				<stop  offset="0" style="stop-color:#5398AA"/>
				<stop  offset="1" style="stop-color:#1D9CB9"/>
			</linearGradient>
			<path class="st23" d="M1337.3,477.7h-196.7c-3.8,0-6.9-3.1-6.9-6.9s3.1-6.9,6.9-6.9h196.7c0.8,0,1.4-0.6,1.4-1.4V316.1
				c0-0.8-0.6-1.4-1.4-1.4H924.5c-0.8,0-1.4,0.6-1.4,1.4v73.2c0,3.8-3.1,6.9-6.9,6.9c-3.8,0-6.9-3.1-6.9-6.9v-73.2
				c0-8.4,6.8-15.2,15.2-15.2h412.8c8.4,0,15.2,6.8,15.2,15.2v146.4C1352.5,470.9,1345.7,477.7,1337.3,477.7z"/>
		</g>
	</g>
	<g>
		<g>
			<linearGradient id="SVGID_20_" gradientUnits="userSpaceOnUse" x1="1202.1818" y1="1136.2179" x2="1202.1818" y2="9.0259">
				<stop  offset="0" style="stop-color:#5398AA"/>
				<stop  offset="1" style="stop-color:#1D9CB9"/>
			</linearGradient>
			<path class="st24" d="M1255,616.4h-114c-3.8,0-6.9-3.1-6.9-6.9s3.1-6.9,6.9-6.9h114c0.8,0,1.4-0.6,1.4-1.4V470.8
				c0-3.8,3.1-6.9,6.9-6.9s6.9,3.1,6.9,6.9v130.5C1270.2,609.6,1263.4,616.4,1255,616.4z"/>
		</g>
	</g>
	<g>
		<g>
			<g>
				<linearGradient id="SVGID_21_" gradientUnits="userSpaceOnUse" x1="1130.5913" y1="1136.2179" x2="1130.5913" y2="9.0259">
					<stop  offset="0" style="stop-color:#5398AA"/>
					<stop  offset="1" style="stop-color:#1D9CB9"/>
				</linearGradient>
				<path class="st25" d="M1278.6,369.1H982.5c-3.8,0-6.9-3.1-6.9-6.9s3.1-6.9,6.9-6.9h296.1c3.8,0,6.9,3.1,6.9,6.9
					S1282.4,369.1,1278.6,369.1z"/>
			</g>
		</g>
		<g>
			<g>
				<linearGradient id="SVGID_22_" gradientUnits="userSpaceOnUse" x1="1229.4227" y1="1136.2179" x2="1229.4227" y2="9.0259">
					<stop  offset="0" style="stop-color:#5398AA"/>
					<stop  offset="1" style="stop-color:#1D9CB9"/>
				</linearGradient>
				<path class="st26" d="M1278.6,424h-98.4c-3.8,0-6.9-3.1-6.9-6.9s3.1-6.9,6.9-6.9h98.4c3.8,0,6.9,3.1,6.9,6.9
					S1282.4,424,1278.6,424z"/>
			</g>
		</g>
	</g>
	<g>
		<g>
			<linearGradient id="SVGID_23_" gradientUnits="userSpaceOnUse" x1="1169.317" y1="1136.2179" x2="1169.317" y2="9.0259">
				<stop  offset="0" style="stop-color:#5398AA"/>
				<stop  offset="1" style="stop-color:#1D9CB9"/>
			</linearGradient>
			<path class="st27" d="M1198,524.1h-57.3c-3.8,0-6.9-3.1-6.9-6.9s3.1-6.9,6.9-6.9h57.3c3.8,0,6.9,3.1,6.9,6.9
				S1201.7,524.1,1198,524.1z"/>
		</g>
	</g>
	<g>
		<g>
			<linearGradient id="SVGID_24_" gradientUnits="userSpaceOnUse" x1="1171.334" y1="1136.2179" x2="1171.334" y2="9.0259">
				<stop  offset="0" style="stop-color:#5398AA"/>
				<stop  offset="1" style="stop-color:#1D9CB9"/>
			</linearGradient>
			<path class="st28" d="M1198,570h-53.2c-3.8,0-6.9-3.1-6.9-6.9s3.1-6.9,6.9-6.9h53.2c3.8,0,6.9,3.1,6.9,6.9S1201.7,570,1198,570z"
				/>
		</g>
	</g>
	<g>
		<g>
			<g>
				<linearGradient id="SVGID_25_" gradientUnits="userSpaceOnUse" x1="366.2871" y1="1136.2179" x2="366.2871" y2="9.0259">
					<stop  offset="0" style="stop-color:#5398AA"/>
					<stop  offset="1" style="stop-color:#1D9CB9"/>
				</linearGradient>
				<path class="st29" d="M288.7,482.1H102.5c-20.8,0-37.6-16.9-37.6-37.6V99.2c0-20.8,16.9-37.6,37.6-37.6h527.7
					c20.8,0,37.6,16.9,37.6,37.6v290.1c0,3.8-3.1,6.9-6.9,6.9s-6.9-3.1-6.9-6.9V99.2c0-13.2-10.7-23.9-23.9-23.9H102.5
					c-13.2,0-23.9,10.7-23.9,23.9v345.3c0,13.2,10.7,23.9,23.9,23.9h186.2c3.8,0,6.9,3.1,6.9,6.9C295.6,479,292.5,482.1,288.7,482.1
					z"/>
			</g>
		</g>
		<g>
			<g>
				<linearGradient id="SVGID_26_" gradientUnits="userSpaceOnUse" x1="367.3708" y1="1136.2179" x2="367.3708" y2="9.0259">
					<stop  offset="0" style="stop-color:#5398AA"/>
					<stop  offset="1" style="stop-color:#1D9CB9"/>
				</linearGradient>
				<path class="st30" d="M661.4,132.8H73.3c-3.8,0-6.9-3.1-6.9-6.9c0-3.8,3.1-6.9,6.9-6.9h588.1c3.8,0,6.9,3.1,6.9,6.9
					C668.3,129.7,665.2,132.8,661.4,132.8z"/>
			</g>
		</g>
		<g>
			<g>
				<linearGradient id="SVGID_27_" gradientUnits="userSpaceOnUse" x1="366.2867" y1="1136.2179" x2="366.2867" y2="9.0259">
					<stop  offset="0" style="stop-color:#5398AA"/>
					<stop  offset="1" style="stop-color:#1D9CB9"/>
				</linearGradient>
				<path class="st31" d="M288.9,426.1H167c-3.8,0-6.9-3.1-6.9-6.9V184.8c0-3.8,3.1-6.9,6.9-6.9h398.5c3.8,0,6.9,3.1,6.9,6.9v206.9
					c0,3.8-3.1,6.9-6.9,6.9c-3.8,0-6.9-3.1-6.9-6.9v-200H173.9v220.7h115c3.8,0,6.9,3.1,6.9,6.9S292.7,426.1,288.9,426.1z"/>
			</g>
		</g>
		<g>
			<g>
				<linearGradient id="SVGID_28_" gradientUnits="userSpaceOnUse" x1="366.2867" y1="1136.2179" x2="366.2867" y2="9.0259">
					<stop  offset="0" style="stop-color:#5398AA"/>
					<stop  offset="1" style="stop-color:#1D9CB9"/>
				</linearGradient>
				<path class="st32" d="M366.3,366.2c-35.4,0-64.2-28.8-64.2-64.2c0-35.4,28.8-64.2,64.2-64.2c35.4,0,64.2,28.8,64.2,64.2
					C430.5,337.4,401.7,366.2,366.3,366.2z M366.3,251.5c-27.9,0-50.5,22.7-50.5,50.5s22.7,50.5,50.5,50.5
					c27.9,0,50.5-22.7,50.5-50.5S394.1,251.5,366.3,251.5z"/>
			</g>
		</g>
		<g>
			<g>
				<linearGradient id="SVGID_29_" gradientUnits="userSpaceOnUse" x1="376.2144" y1="1136.2179" x2="376.2144" y2="9.0259">
					<stop  offset="0" style="stop-color:#5398AA"/>
					<stop  offset="1" style="stop-color:#1D9CB9"/>
				</linearGradient>
				<path class="st33" d="M355.1,343.4c-1,0-2-0.2-2.9-0.7c-2.4-1.1-3.9-3.5-3.9-6.2v-69.1c0-2.7,1.5-5.1,3.9-6.2
					c2.4-1.1,5.2-0.8,7.3,0.9l42.2,34.5c1.6,1.3,2.5,3.3,2.5,5.3c0,2.1-0.9,4-2.5,5.3l-42.2,34.5
					C358.2,342.8,356.7,343.4,355.1,343.4z M362,281.9V322l24.5-20.1L362,281.9z"/>
			</g>
		</g>
	</g>
	<g>
		<g>
			<linearGradient id="SVGID_30_" gradientUnits="userSpaceOnUse" x1="178.5826" y1="1136.2179" x2="178.5826" y2="9.0259">
				<stop  offset="0" style="stop-color:#5398AA"/>
				<stop  offset="1" style="stop-color:#1D9CB9"/>
			</linearGradient>
			<path class="st34" d="M178.6,133.2c-3.8,0-6.9-3.1-6.9-6.9v-20.2c0-3.8,3.1-6.9,6.9-6.9c3.8,0,6.9,3.1,6.9,6.9v20.2
				C185.4,130.1,182.4,133.2,178.6,133.2z"/>
		</g>
	</g>
	<g>
		<g>
			<linearGradient id="SVGID_31_" gradientUnits="userSpaceOnUse" x1="992.2273" y1="1136.2179" x2="992.2273" y2="9.0259">
				<stop  offset="0" style="stop-color:#5398AA"/>
				<stop  offset="1" style="stop-color:#1D9CB9"/>
			</linearGradient>
			<path class="st35" d="M1105.2,133.6H879.3c-3.8,0-6.9-3.1-6.9-6.9c0-3.8,3.1-6.9,6.9-6.9h225.9c3.8,0,6.9,3.1,6.9,6.9
				C1112,130.5,1109,133.6,1105.2,133.6z"/>
		</g>
	</g>
	<g>
		<g>
			<linearGradient id="SVGID_32_" gradientUnits="userSpaceOnUse" x1="1183.8392" y1="1136.2179" x2="1183.8392" y2="9.0259">
				<stop  offset="0" style="stop-color:#5398AA"/>
				<stop  offset="1" style="stop-color:#1D9CB9"/>
			</linearGradient>
			<path class="st36" d="M1278.6,217.5H1089c-3.8,0-6.9-3.1-6.9-6.9c0-3.8,3.1-6.9,6.9-6.9h189.6c3.8,0,6.9,3.1,6.9,6.9
				C1285.5,214.4,1282.4,217.5,1278.6,217.5z"/>
		</g>
	</g>
	<g>
		<g>
			<linearGradient id="SVGID_33_" gradientUnits="userSpaceOnUse" x1="1173.351" y1="1136.2179" x2="1173.351" y2="9.0259">
				<stop  offset="0" style="stop-color:#5398AA"/>
				<stop  offset="1" style="stop-color:#1D9CB9"/>
			</linearGradient>
			<path class="st37" d="M1202,1046.9h-57.3c-3.8,0-6.9-3.1-6.9-6.9c0-3.8,3.1-6.9,6.9-6.9h57.3c3.8,0,6.9,3.1,6.9,6.9
				C1208.8,1043.8,1205.8,1046.9,1202,1046.9z"/>
		</g>
	</g>
	<g>
		<g>
			<linearGradient id="SVGID_34_" gradientUnits="userSpaceOnUse" x1="1287.5114" y1="1136.2179" x2="1287.5114" y2="9.0259">
				<stop  offset="0" style="stop-color:#5398AA"/>
				<stop  offset="1" style="stop-color:#1D9CB9"/>
			</linearGradient>
			<path class="st38" d="M1345.6,925h-116.2c-3.8,0-6.9-3.1-6.9-6.9c0-3.8,3.1-6.9,6.9-6.9h116.2c3.8,0,6.9,3.1,6.9,6.9
				C1352.5,922,1349.4,925,1345.6,925z"/>
		</g>
	</g>
	<g>
		<g>
			<linearGradient id="SVGID_35_" gradientUnits="userSpaceOnUse" x1="219.7288" y1="1136.2179" x2="219.7288" y2="9.0259">
				<stop  offset="0" style="stop-color:#5398AA"/>
				<stop  offset="1" style="stop-color:#1D9CB9"/>
			</linearGradient>
			<path class="st39" d="M308.9,1059.8H130.6c-3.8,0-6.9-3.1-6.9-6.9c0-3.8,3.1-6.9,6.9-6.9h178.3c3.8,0,6.9,3.1,6.9,6.9
				C315.7,1056.7,312.7,1059.8,308.9,1059.8z"/>
		</g>
	</g>
	<g>
		<g>
			<linearGradient id="SVGID_36_" gradientUnits="userSpaceOnUse" x1="122.511" y1="1136.2179" x2="122.511" y2="9.0259">
				<stop  offset="0" style="stop-color:#5398AA"/>
				<stop  offset="1" style="stop-color:#1D9CB9"/>
			</linearGradient>
			<path class="st40" d="M153.2,971.8H91.9c-3.8,0-6.9-3.1-6.9-6.9c0-3.8,3.1-6.9,6.9-6.9h61.3c3.8,0,6.9,3.1,6.9,6.9
				C160,968.7,157,971.8,153.2,971.8z"/>
		</g>
	</g>
	<g>
		<g>
			<g>
				<linearGradient id="SVGID_37_" gradientUnits="userSpaceOnUse" x1="1258.0636" y1="1136.2179" x2="1258.0636" y2="9.0259">
					<stop  offset="0" style="stop-color:#5398AA"/>
					<stop  offset="1" style="stop-color:#1D9CB9"/>
				</linearGradient>
				<path class="st41" d="M1276.2,757.2h-36.3c-3.8,0-6.9-3.1-6.9-6.9s3.1-6.9,6.9-6.9h36.3c3.8,0,6.9,3.1,6.9,6.9
					S1280,757.2,1276.2,757.2z"/>
			</g>
		</g>
		<g>
			<g>
				<linearGradient id="SVGID_38_" gradientUnits="userSpaceOnUse" x1="1258.0635" y1="1136.2179" x2="1258.0635" y2="9.0259">
					<stop  offset="0" style="stop-color:#5398AA"/>
					<stop  offset="1" style="stop-color:#1D9CB9"/>
				</linearGradient>
				<path class="st42" d="M1258.1,775.4c-3.8,0-6.9-3.1-6.9-6.9v-36.3c0-3.8,3.1-6.9,6.9-6.9c3.8,0,6.9,3.1,6.9,6.9v36.3
					C1264.9,772.3,1261.9,775.4,1258.1,775.4z"/>
			</g>
		</g>
	</g>
	<g>
		<g>
			<g>
				<linearGradient id="SVGID_39_" gradientUnits="userSpaceOnUse" x1="196.332" y1="1136.2179" x2="196.332" y2="9.0259">
					<stop  offset="0" style="stop-color:#5398AA"/>
					<stop  offset="1" style="stop-color:#1D9CB9"/>
				</linearGradient>
				<path class="st43" d="M214.5,835.5h-36.3c-3.8,0-6.9-3.1-6.9-6.9c0-3.8,3.1-6.9,6.9-6.9h36.3c3.8,0,6.9,3.1,6.9,6.9
					C221.3,832.4,218.3,835.5,214.5,835.5z"/>
			</g>
		</g>
		<g>
			<g>
				<linearGradient id="SVGID_40_" gradientUnits="userSpaceOnUse" x1="196.3319" y1="1136.2179" x2="196.3319" y2="9.0259">
					<stop  offset="0" style="stop-color:#5398AA"/>
					<stop  offset="1" style="stop-color:#1D9CB9"/>
				</linearGradient>
				<path class="st44" d="M196.3,853.6c-3.8,0-6.9-3.1-6.9-6.9v-36.3c0-3.8,3.1-6.9,6.9-6.9c3.8,0,6.9,3.1,6.9,6.9v36.3
					C203.2,850.6,200.1,853.6,196.3,853.6z"/>
			</g>
		</g>
	</g>
	<g>
		<g>
			<g>
				<linearGradient id="SVGID_41_" gradientUnits="userSpaceOnUse" x1="122.1076" y1="1136.2179" x2="122.1076" y2="9.0259">
					<stop  offset="0" style="stop-color:#5398AA"/>
					<stop  offset="1" style="stop-color:#1D9CB9"/>
				</linearGradient>
				<path class="st45" d="M140.3,597.5H104c-3.8,0-6.9-3.1-6.9-6.9c0-3.8,3.1-6.9,6.9-6.9h36.3c3.8,0,6.9,3.1,6.9,6.9
					C147.1,594.4,144,597.5,140.3,597.5z"/>
			</g>
		</g>
		<g>
			<g>
				<linearGradient id="SVGID_42_" gradientUnits="userSpaceOnUse" x1="122.1075" y1="1136.2179" x2="122.1075" y2="9.0259">
					<stop  offset="0" style="stop-color:#5398AA"/>
					<stop  offset="1" style="stop-color:#1D9CB9"/>
				</linearGradient>
				<path class="st46" d="M122.1,615.6c-3.8,0-6.9-3.1-6.9-6.9v-36.3c0-3.8,3.1-6.9,6.9-6.9s6.9,3.1,6.9,6.9v36.3
					C129,612.6,125.9,615.6,122.1,615.6z"/>
			</g>
		</g>
	</g>
	<g>
		<g>
			<g>
				<linearGradient id="SVGID_43_" gradientUnits="userSpaceOnUse" x1="788.5136" y1="1136.2179" x2="788.5136" y2="9.0259">
					<stop  offset="0" style="stop-color:#5398AA"/>
					<stop  offset="1" style="stop-color:#1D9CB9"/>
				</linearGradient>
				<path class="st47" d="M806.7,233.6h-36.3c-3.8,0-6.9-3.1-6.9-6.9c0-3.8,3.1-6.9,6.9-6.9h36.3c3.8,0,6.9,3.1,6.9,6.9
					C813.5,230.5,810.5,233.6,806.7,233.6z"/>
			</g>
		</g>
		<g>
			<g>
				<linearGradient id="SVGID_44_" gradientUnits="userSpaceOnUse" x1="788.5135" y1="1136.2179" x2="788.5135" y2="9.0259">
					<stop  offset="0" style="stop-color:#5398AA"/>
					<stop  offset="1" style="stop-color:#1D9CB9"/>
				</linearGradient>
				<path class="st48" d="M788.5,251.8c-3.8,0-6.9-3.1-6.9-6.9v-36.3c0-3.8,3.1-6.9,6.9-6.9c3.8,0,6.9,3.1,6.9,6.9v36.3
					C795.4,248.7,792.3,251.8,788.5,251.8z"/>
			</g>
		</g>
	</g>
	<g>
		<g>
			<linearGradient id="SVGID_45_" gradientUnits="userSpaceOnUse" x1="713.4824" y1="1136.2179" x2="713.4824" y2="9.0259">
				<stop  offset="0" style="stop-color:#5398AA"/>
				<stop  offset="1" style="stop-color:#1D9CB9"/>
			</linearGradient>
			<path class="st49" d="M713.5,821.4c-13.6,0-26.3-1.9-35.9-5.3c-16.4-5.9-19.8-14.8-19.8-21.3c0-3.8,3.1-6.9,6.9-6.9
				c3.8,0,6.9,3.1,6.9,6.9c0,6.1,17.2,12.9,42,12.9c24.7,0,42-6.8,42-12.9c0-3.8,3.1-6.9,6.9-6.9c3.8,0,6.9,3.1,6.9,6.9
				C769.2,814.4,739.2,821.4,713.5,821.4z"/>
		</g>
	</g>
	<g>
		<g>
			<linearGradient id="SVGID_46_" gradientUnits="userSpaceOnUse" x1="713.4823" y1="1136.2179" x2="713.4823" y2="9.0259">
				<stop  offset="0" style="stop-color:#5398AA"/>
				<stop  offset="1" style="stop-color:#1D9CB9"/>
			</linearGradient>
			<path class="st50" d="M713.5,873.8c-3.8,0-6.9-3.1-6.9-6.9v-52.4c0-3.8,3.1-6.9,6.9-6.9s6.9,3.1,6.9,6.9v52.4
				C720.3,870.7,717.3,873.8,713.5,873.8z"/>
		</g>
	</g>
</g>
<g id="COACHING">
</g>
</svg>
