<?xml version="1.0" encoding="utf-8"?>
<!-- Generator: Adobe Illustrator 22.0.1, SVG Export Plug-In . SVG Version: 6.00 Build 0)  -->
<svg version="1.1" xmlns="http://www.w3.org/2000/svg" xmlns:xlink="http://www.w3.org/1999/xlink" x="0px" y="0px"
	 viewBox="0 0 1356.9 1153.5" style="enable-background:new 0 0 1356.9 1153.5;" xml:space="preserve">
<style type="text/css">
	.st0{display:none;}
	.st1{display:inline;}
	.st2{fill:#FBD471;}
	.st3{fill:#98E5ED;}
	.st4{fill:#E3EAE5;}
	.st5{fill:url(#SVGID_1_);}
	.st6{fill:url(#SVGID_2_);}
	.st7{fill:url(#SVGID_3_);}
	.st8{fill:url(#SVGID_4_);}
	.st9{fill:url(#SVGID_5_);}
	.st10{fill:url(#SVGID_6_);}
	.st11{fill:url(#SVGID_7_);}
	.st12{fill:url(#SVGID_8_);}
	.st13{fill:url(#SVGID_9_);}
	.st14{fill:url(#SVGID_10_);}
	.st15{fill:url(#SVGID_11_);}
	.st16{fill:url(#SVGID_12_);}
	.st17{fill:url(#SVGID_13_);}
	.st18{fill:url(#SVGID_14_);}
	.st19{fill:url(#SVGID_15_);}
	.st20{fill:url(#SVGID_16_);}
	.st21{fill:url(#SVGID_17_);}
	.st22{fill:url(#SVGID_18_);}
	.st23{fill:url(#SVGID_19_);}
	.st24{fill:url(#SVGID_20_);}
	.st25{fill:url(#SVGID_21_);}
	.st26{fill:url(#SVGID_22_);}
	.st27{fill:url(#SVGID_23_);}
	.st28{fill:url(#SVGID_24_);}
	.st29{fill:url(#SVGID_25_);}
	.st30{fill:url(#SVGID_26_);}
	.st31{fill:url(#SVGID_27_);}
	.st32{fill:url(#SVGID_28_);}
	.st33{fill:url(#SVGID_29_);}
	.st34{fill:url(#SVGID_30_);}
	.st35{fill:url(#SVGID_31_);}
	.st36{fill:url(#SVGID_32_);}
	.st37{fill:url(#SVGID_33_);}
	.st38{fill:url(#SVGID_34_);}
	.st39{fill:url(#SVGID_35_);}
	.st40{fill:url(#SVGID_36_);}
	.st41{fill:url(#SVGID_37_);}
	.st42{fill:url(#SVGID_38_);}
	.st43{fill:url(#SVGID_39_);}
	.st44{fill:url(#SVGID_40_);}
	.st45{fill:url(#SVGID_41_);}
	.st46{fill:url(#SVGID_42_);}
	.st47{fill:url(#SVGID_43_);}
	.st48{fill:url(#SVGID_44_);}
	.st49{fill:url(#SVGID_45_);}
	.st50{fill:url(#SVGID_46_);}
	.st51{fill:url(#SVGID_47_);}
	.st52{fill:url(#SVGID_48_);}
	.st53{fill:url(#SVGID_49_);}
	.st54{fill:url(#SVGID_50_);}
	.st55{fill:url(#SVGID_51_);}
	.st56{fill:url(#SVGID_52_);}
	.st57{fill:url(#SVGID_53_);}
	.st58{fill:url(#SVGID_54_);}
	.st59{fill:url(#SVGID_55_);}
	.st60{fill:url(#SVGID_56_);}
	.st61{fill:url(#SVGID_57_);}
	.st62{fill:url(#SVGID_58_);}
	.st63{fill:url(#SVGID_59_);}
	.st64{fill:url(#SVGID_60_);}
	.st65{fill:url(#SVGID_61_);}
	.st66{fill:url(#SVGID_62_);}
	.st67{fill:url(#SVGID_63_);}
	.st68{fill:url(#SVGID_64_);}
	.st69{fill:url(#SVGID_65_);}
	.st70{fill:url(#SVGID_66_);}
	.st71{fill:url(#SVGID_67_);}
	.st72{fill:url(#SVGID_68_);}
	.st73{fill:url(#SVGID_69_);}
	.st74{fill:url(#SVGID_70_);}
	.st75{fill:url(#SVGID_71_);}
	.st76{fill:url(#SVGID_72_);}
	.st77{fill:url(#SVGID_73_);}
	.st78{fill:url(#SVGID_74_);}
	.st79{fill:url(#SVGID_75_);}
	.st80{fill:url(#SVGID_76_);}
	.st81{fill:url(#SVGID_77_);}
	.st82{fill:url(#SVGID_78_);}
	.st83{fill:url(#SVGID_79_);}
	.st84{fill:url(#SVGID_80_);}
	.st85{fill:url(#SVGID_81_);}
	.st86{fill:url(#SVGID_82_);}
	.st87{fill:url(#SVGID_83_);}
	.st88{fill:url(#SVGID_84_);}
	.st89{fill:url(#SVGID_85_);}
	.st90{fill:url(#SVGID_86_);}
	.st91{fill:url(#SVGID_87_);}
	.st92{fill:url(#SVGID_88_);}
	.st93{fill:url(#SVGID_89_);}
	.st94{fill:url(#SVGID_90_);}
	.st95{fill:url(#SVGID_91_);}
	.st96{fill:url(#SVGID_92_);}
	.st97{fill:url(#SVGID_93_);}
	.st98{fill:url(#SVGID_94_);}
	.st99{fill:url(#SVGID_95_);}
	.st100{fill:url(#SVGID_96_);}
	.st101{fill:url(#SVGID_97_);}
	.st102{fill:url(#SVGID_98_);}
	.st103{fill:url(#SVGID_99_);}
	.st104{fill:url(#SVGID_100_);}
	.st105{fill:url(#SVGID_101_);}
	.st106{fill:url(#SVGID_102_);}
	.st107{fill:url(#SVGID_103_);}
	.st108{fill:url(#SVGID_104_);}
	.st109{fill:url(#SVGID_105_);}
	.st110{fill:url(#SVGID_106_);}
	.st111{fill:url(#SVGID_107_);}
	.st112{fill:url(#SVGID_108_);}
	.st113{fill:url(#SVGID_109_);}
	.st114{fill:url(#SVGID_110_);}
	.st115{fill:url(#SVGID_111_);}
	.st116{fill:url(#SVGID_112_);}
	.st117{fill:url(#SVGID_113_);}
	.st118{fill:url(#SVGID_114_);}
	.st119{fill:url(#SVGID_115_);}
	.st120{fill:url(#SVGID_116_);}
	.st121{fill:url(#SVGID_117_);}
	.st122{fill:url(#SVGID_118_);}
	.st123{fill:url(#SVGID_119_);}
	.st124{fill:url(#SVGID_120_);}
	.st125{fill:url(#SVGID_121_);}
	.st126{fill:url(#SVGID_122_);}
	.st127{fill:url(#SVGID_123_);}
	.st128{fill:url(#SVGID_124_);}
	.st129{fill:url(#SVGID_125_);}
	.st130{fill:url(#SVGID_126_);}
	.st131{fill:url(#SVGID_127_);}
	.st132{fill:url(#SVGID_128_);}
	.st133{fill:url(#SVGID_129_);}
	.st134{fill:url(#SVGID_130_);}
	.st135{fill:url(#SVGID_131_);}
	.st136{fill:url(#SVGID_132_);}
	.st137{fill:url(#SVGID_133_);}
	.st138{fill:url(#SVGID_134_);}
	.st139{fill:url(#SVGID_135_);}
	.st140{fill:url(#SVGID_136_);}
	.st141{fill:url(#SVGID_137_);}
	.st142{fill:url(#SVGID_138_);}
	.st143{fill:url(#SVGID_139_);}
	.st144{fill:url(#SVGID_140_);}
	.st145{fill:url(#SVGID_141_);}
	.st146{fill:url(#SVGID_142_);}
	.st147{fill:url(#SVGID_143_);}
	.st148{fill:url(#SVGID_144_);}
	.st149{fill:url(#SVGID_145_);}
	.st150{fill:url(#SVGID_146_);}
	.st151{fill:url(#SVGID_147_);}
	.st152{fill:url(#SVGID_148_);}
	.st153{fill:url(#SVGID_149_);}
	.st154{fill:url(#SVGID_150_);}
	.st155{fill:url(#SVGID_151_);}
	.st156{fill:url(#SVGID_152_);}
	.st157{fill:url(#SVGID_153_);}
	.st158{fill:url(#SVGID_154_);}
	.st159{fill:url(#SVGID_155_);}
	.st160{fill:url(#SVGID_156_);}
	.st161{fill:url(#SVGID_157_);}
	.st162{fill:url(#SVGID_158_);}
	.st163{fill:url(#SVGID_159_);}
	.st164{fill:url(#SVGID_160_);}
	.st165{fill:url(#SVGID_161_);}
	.st166{fill:url(#SVGID_162_);}
	.st167{fill:url(#SVGID_163_);}
	.st168{fill:url(#SVGID_164_);}
	.st169{fill:url(#SVGID_165_);}
	.st170{fill:url(#SVGID_166_);}
	.st171{fill:url(#SVGID_167_);}
	.st172{fill:url(#SVGID_168_);}
	.st173{fill:url(#SVGID_169_);}
	.st174{fill:url(#SVGID_170_);}
	.st175{fill:url(#SVGID_171_);}
	.st176{fill:url(#SVGID_172_);}
	.st177{fill:url(#SVGID_173_);}
	.st178{fill:url(#SVGID_174_);}
	.st179{fill:url(#SVGID_175_);}
	.st180{fill:url(#SVGID_176_);}
	.st181{fill:url(#SVGID_177_);}
	.st182{fill:url(#SVGID_178_);}
	.st183{fill:url(#SVGID_179_);}
	.st184{fill:url(#SVGID_180_);}
	.st185{fill:url(#SVGID_181_);}
	.st186{fill:url(#SVGID_182_);}
	.st187{fill:url(#SVGID_183_);}
	.st188{fill:url(#SVGID_184_);}
	.st189{fill:url(#SVGID_185_);}
	.st190{fill:url(#SVGID_186_);}
	.st191{fill:url(#SVGID_187_);}
	.st192{fill:url(#SVGID_188_);}
	.st193{fill:url(#SVGID_189_);}
	.st194{fill:url(#SVGID_190_);}
	.st195{fill:url(#SVGID_191_);}
	.st196{fill:url(#SVGID_192_);}
	.st197{fill:url(#SVGID_193_);}
	.st198{fill:url(#SVGID_194_);}
	.st199{fill:url(#SVGID_195_);}
	.st200{fill:url(#SVGID_196_);}
	.st201{fill:url(#SVGID_197_);}
	.st202{fill:url(#SVGID_198_);}
	.st203{fill:url(#SVGID_199_);}
	.st204{fill:url(#SVGID_200_);}
	.st205{fill:url(#SVGID_201_);}
	.st206{fill:url(#SVGID_202_);}
	.st207{fill:url(#SVGID_203_);}
	.st208{fill:url(#SVGID_204_);}
	.st209{fill:url(#SVGID_205_);}
	.st210{fill:url(#SVGID_206_);}
	.st211{fill:url(#SVGID_207_);}
	.st212{fill:url(#SVGID_208_);}
	.st213{fill:url(#SVGID_209_);}
	.st214{fill:url(#SVGID_210_);}
	.st215{fill:url(#SVGID_211_);}
	.st216{fill:url(#SVGID_212_);}
	.st217{fill:url(#SVGID_213_);}
	.st218{fill:url(#SVGID_214_);}
	.st219{fill:url(#SVGID_215_);}
	.st220{fill:url(#SVGID_216_);}
	.st221{fill:url(#SVGID_217_);}
	.st222{fill:url(#SVGID_218_);}
	.st223{fill:url(#SVGID_219_);}
	.st224{fill:url(#SVGID_220_);}
	.st225{fill:url(#SVGID_221_);}
	.st226{fill:url(#SVGID_222_);}
	.st227{fill:url(#SVGID_223_);}
	.st228{fill:url(#SVGID_224_);}
	.st229{fill:url(#SVGID_225_);}
	.st230{fill:url(#SVGID_226_);}
	.st231{fill:url(#SVGID_227_);}
	.st232{fill:url(#SVGID_228_);}
	.st233{fill:url(#SVGID_229_);}
	.st234{fill:url(#SVGID_230_);}
	.st235{fill:url(#SVGID_231_);}
	.st236{fill:url(#SVGID_232_);}
	.st237{fill:url(#SVGID_233_);}
	.st238{fill:url(#SVGID_234_);}
	.st239{fill:url(#SVGID_235_);}
	.st240{fill:url(#SVGID_236_);}
	.st241{fill:url(#SVGID_237_);}
	.st242{fill:url(#SVGID_238_);}
	.st243{fill:url(#SVGID_239_);}
	.st244{fill:url(#SVGID_240_);}
	.st245{fill:url(#SVGID_241_);}
	.st246{fill:url(#SVGID_242_);}
	.st247{fill:url(#SVGID_243_);}
	.st248{fill:url(#SVGID_244_);}
	.st249{fill:url(#SVGID_245_);}
	.st250{fill:url(#SVGID_246_);}
	.st251{fill:url(#SVGID_247_);}
	.st252{fill:url(#SVGID_248_);}
	.st253{fill:url(#SVGID_249_);}
	.st254{fill:url(#SVGID_250_);}
	.st255{fill:url(#SVGID_251_);}
	.st256{fill:url(#SVGID_252_);}
	.st257{fill:url(#SVGID_253_);}
	.st258{fill:url(#SVGID_254_);}
	.st259{fill:url(#SVGID_255_);}
	.st260{fill:url(#SVGID_256_);}
	.st261{fill:url(#SVGID_257_);}
	.st262{fill:url(#SVGID_258_);}
	.st263{fill:url(#SVGID_259_);}
	.st264{fill:url(#SVGID_260_);}
	.st265{fill:url(#SVGID_261_);}
	.st266{fill:url(#SVGID_262_);}
	.st267{fill:url(#SVGID_263_);}
	.st268{fill:url(#SVGID_264_);}
	.st269{fill:url(#SVGID_265_);}
	.st270{fill:url(#SVGID_266_);}
	.st271{fill:url(#SVGID_267_);}
	.st272{fill:url(#SVGID_268_);}
	.st273{fill:url(#SVGID_269_);}
	.st274{fill:url(#SVGID_270_);}
</style>
<g id="Layer_2">
</g>
<g id="Layer_1">
</g>
<g id="Color" class="st0">
</g>
<g id="DEVELOPMENT">
	<g>
		<linearGradient id="SVGID_1_" gradientUnits="userSpaceOnUse" x1="611.4702" y1="1123.0288" x2="611.4702" y2="-75.7193">
			<stop  offset="0" style="stop-color:#5398AA"/>
			<stop  offset="1" style="stop-color:#1D9CB9"/>
		</linearGradient>
		<path class="st5" d="M612.1,901.9h-0.7c-1.2,0-2.3-0.3-3.3-0.9l-145.5-81.3c-0.2-0.1-0.4-0.3-0.6-0.4
			C395.6,771.9,356.1,695,356.1,613.4V358.6c0-1.9,0.8-3.8,2.3-5.1c1.5-1.3,3.4-1.9,5.3-1.7c55.3,6,112.5-19.9,167.9-45
			c25.4-11.5,51.7-23.4,77.8-32.3c0.7-0.2,1.5-0.4,2.2-0.4h0.2c0.7,0,1.5,0.1,2.2,0.4c26.1,8.8,52.4,20.8,77.9,32.3
			c55.3,25,112.4,50.9,167.3,44.9c1.9-0.2,3.9,0.4,5.3,1.7c1.5,1.3,2.3,3.2,2.3,5.1v254.9c0,81.7-39.4,158.6-105.3,205.9
			c-0.2,0.1-0.4,0.3-0.6,0.4L615.4,901C614.4,901.6,613.2,901.9,612.1,901.9z M469.5,807.9l142.2,79.4l142.1-79.4
			c62.2-44.7,99.3-117.3,99.3-194.5V366c-3.2,0.2-7,0.3-10.4,0.3c-52.6,0-105.3-23.9-156.4-47c-24.5-11.1-49.8-22.6-74.6-31.1
			c-24.7,8.5-50,20-74.4,31c-51.2,23.2-104,47.1-156.9,47.1c-3.5,0-7.3-0.1-10.6-0.3v247.4C369.8,690.4,407.1,763.1,469.5,807.9z"/>
	</g>
	<g>
		<linearGradient id="SVGID_2_" gradientUnits="userSpaceOnUse" x1="611.4702" y1="1123.0288" x2="611.4702" y2="-75.7193">
			<stop  offset="0" style="stop-color:#5398AA"/>
			<stop  offset="1" style="stop-color:#1D9CB9"/>
		</linearGradient>
		<path class="st6" d="M612.2,854.3h-0.6c-1.2,0-2.3-0.3-3.4-0.9l-122.9-69c-0.2-0.1-0.4-0.3-0.6-0.4
			c-56.2-40.2-89.8-105.7-89.8-175V394c0-1.9,0.8-3.8,2.3-5.1c1.4-1.3,3.4-1.9,5.3-1.7c45.8,5,93.3-16.3,139.3-36.8
			c22.2-9.9,45.1-20.2,67.9-27.5c0.7-0.2,1.4-0.3,2.1-0.3h0.2c0.7,0,1.4,0.1,2.1,0.3c22.8,7.4,45.8,17.7,68,27.6
			c42.7,19.2,83.3,37.4,124.2,37.4c4.7,0,9.5-0.2,14.2-0.8c1.9-0.2,3.9,0.4,5.3,1.7c1.4,1.3,2.3,3.2,2.3,5.1V609
			c0,69.5-33.4,134.9-89.3,175c-0.2,0.1-0.4,0.3-0.6,0.4l-122.6,69C614.5,854,613.3,854.3,612.2,854.3z M492.3,772.6l119.5,67.1
			l119.3-67.1c52.2-37.5,83.3-98.6,83.3-163.6V401.5c-46.8,2.5-93.1-18.3-138-38.4c-21.2-9.5-43.1-19.3-64.6-26.5
			c-21.4,7.1-43.3,16.9-64.5,26.3c-42.7,19.1-86.7,38.7-131,38.7c-2.6,0-5.4-0.1-7.8-0.2V609C408.6,673.8,439.9,734.9,492.3,772.6z"
			/>
	</g>
	<g>
		<linearGradient id="SVGID_3_" gradientUnits="userSpaceOnUse" x1="611.5897" y1="1123.0288" x2="611.5897" y2="-75.7193">
			<stop  offset="0" style="stop-color:#5398AA"/>
			<stop  offset="1" style="stop-color:#1D9CB9"/>
		</linearGradient>
		<path class="st7" d="M696.3,692.9c-1.1,0-2.2-0.3-3.2-0.8l-81.5-42.8l-81.5,42.8c-2.3,1.2-5.1,1-7.2-0.5c-2.1-1.5-3.2-4.1-2.7-6.7
			l15.6-90.7l-65.9-64.3c-1.9-1.8-2.5-4.5-1.7-7c0.8-2.5,3-4.3,5.5-4.7l91.1-13.2l40.7-82.6c1.2-2.3,3.5-3.8,6.1-3.8s5,1.5,6.1,3.8
			l40.7,82.6l91.1,13.2c2.6,0.4,4.7,2.2,5.5,4.7c0.8,2.5,0.1,5.2-1.7,7l-65.9,64.3l15.6,90.7c0.4,2.6-0.6,5.2-2.7,6.7
			C699.1,692.5,697.7,692.9,696.3,692.9z M611.6,634.7c1.1,0,2.2,0.3,3.2,0.8l72.4,38.1l-13.8-80.6c-0.4-2.2,0.4-4.5,2-6.1
			l58.6-57.1L652.9,518c-2.2-0.3-4.2-1.7-5.2-3.8l-36.2-73.3l-36.2,73.3c-1,2-2.9,3.4-5.2,3.8l-80.9,11.8l58.6,57.1
			c1.6,1.6,2.4,3.8,2,6.1L536,673.5l72.4-38.1C609.4,635,610.5,634.7,611.6,634.7z"/>
	</g>
	<g>
		<g>
			<linearGradient id="SVGID_4_" gradientUnits="userSpaceOnUse" x1="95.1266" y1="1123.0288" x2="95.1266" y2="-75.7193">
				<stop  offset="0" style="stop-color:#5398AA"/>
				<stop  offset="1" style="stop-color:#1D9CB9"/>
			</linearGradient>
			<path class="st8" d="M118.1,452.1c0,3.8-3.1,6.9-6.9,6.9H79c-3.8,0-6.9-3.1-6.9-6.9V93.9c0-3.8,3.1-6.9,6.9-6.9h32.3
				c3.8,0,6.9,3.1,6.9,6.9V452.1z M85.8,445.2h18.6V100.7H85.8V445.2z"/>
		</g>
		<g>
			<linearGradient id="SVGID_5_" gradientUnits="userSpaceOnUse" x1="168.6744" y1="1123.0288" x2="168.6744" y2="-75.7193">
				<stop  offset="0" style="stop-color:#5398AA"/>
				<stop  offset="1" style="stop-color:#1D9CB9"/>
			</linearGradient>
			<path class="st9" d="M180.1,241.5h-68.5c-3.8,0-6.9-3.1-6.9-6.9V120.5c0-3.8,3.1-6.9,6.9-6.9h114.2c3.8,0,6.9,3.1,6.9,6.9v19.8
				c0,3.8-3.1,6.9-6.9,6.9c-3.8,0-6.9-3.1-6.9-6.9v-12.9H118.5v100.4h61.6c3.8,0,6.9,3.1,6.9,6.9
				C186.9,238.4,183.9,241.5,180.1,241.5z"/>
		</g>
		<g>
			<linearGradient id="SVGID_6_" gradientUnits="userSpaceOnUse" x1="257.4208" y1="1123.0288" x2="257.4208" y2="-75.7193">
				<stop  offset="0" style="stop-color:#5398AA"/>
				<stop  offset="1" style="stop-color:#1D9CB9"/>
			</linearGradient>
			<path class="st10" d="M330.6,265.7H184.2c-3.8,0-6.9-3.1-6.9-6.9V144.7c0-3.8,3.1-6.9,6.9-6.9h146.4c2.5,0,4.8,1.4,6,3.6
				c1.2,2.2,1.1,4.9-0.2,7l-34,53.4l34,53.4c1.3,2.1,1.4,4.8,0.2,7C335.4,264.3,333.1,265.7,330.6,265.7z M191.1,252h127.1
				l-29.6-46.5c-1.4-2.2-1.4-5.1,0-7.4l29.6-46.5H191.1V252z"/>
		</g>
	</g>
	<g>
		<g>
			<g>
				<linearGradient id="SVGID_7_" gradientUnits="userSpaceOnUse" x1="1138.3843" y1="1123.0288" x2="1138.3843" y2="-75.7193">
					<stop  offset="0" style="stop-color:#5398AA"/>
					<stop  offset="1" style="stop-color:#1D9CB9"/>
				</linearGradient>
				<path class="st11" d="M1092.9,1081.1c-26.1,0-51.1-5.8-74.3-17.2c-3.4-1.7-4.8-5.8-3.1-9.2c1.7-3.4,5.8-4.8,9.2-3.1
					c21.4,10.5,44.4,15.8,68.3,15.8c85.7,0,155.4-69.7,155.4-155.4c0-24-5.3-46.9-15.8-68.3c-1.7-3.4-0.3-7.5,3.1-9.2
					c3.4-1.7,7.5-0.3,9.2,3.1c11.4,23.3,17.2,48.3,17.2,74.3C1262,1005.3,1186.2,1081.1,1092.9,1081.1z"/>
			</g>
			<g>
				<linearGradient id="SVGID_8_" gradientUnits="userSpaceOnUse" x1="1047.4539" y1="1123.0288" x2="1047.4539" y2="-75.7193">
					<stop  offset="0" style="stop-color:#5398AA"/>
					<stop  offset="1" style="stop-color:#1D9CB9"/>
				</linearGradient>
				<path class="st12" d="M947.2,990.2c-2.5,0-5-1.4-6.2-3.8c-11.4-23.3-17.2-48.3-17.2-74.3c0-93.2,75.9-169.1,169.1-169.1
					c26.1,0,51.1,5.8,74.3,17.2c3.4,1.7,4.8,5.8,3.1,9.2c-1.7,3.4-5.8,4.8-9.2,3.1c-21.4-10.5-44.4-15.8-68.3-15.8
					c-85.7,0-155.4,69.7-155.4,155.4c0,24,5.3,46.9,15.8,68.3c1.7,3.4,0.3,7.5-3.1,9.2C949.2,990,948.2,990.2,947.2,990.2z"/>
			</g>
		</g>
		<g>
			<g>
				<linearGradient id="SVGID_9_" gradientUnits="userSpaceOnUse" x1="1125.6439" y1="1123.0288" x2="1125.6439" y2="-75.7193">
					<stop  offset="0" style="stop-color:#5398AA"/>
					<stop  offset="1" style="stop-color:#1D9CB9"/>
				</linearGradient>
				<path class="st13" d="M1197.8,970.2c-1,0-2-0.2-3-0.7c-3.4-1.7-4.8-5.8-3.1-9.2c7.4-15.1,11.2-31.4,11.2-48.3
					c0-60.6-49.3-109.9-109.9-109.9c-16.9,0-33.2,3.8-48.3,11.2c-3.4,1.7-7.5,0.3-9.2-3.1c-1.7-3.4-0.3-7.5,3.1-9.2
					c17-8.3,35.3-12.6,54.4-12.6c68.2,0,123.6,55.5,123.6,123.6c0,19.1-4.2,37.3-12.6,54.4C1202.8,968.8,1200.4,970.2,1197.8,970.2z
					"/>
			</g>
			<g>
				<linearGradient id="SVGID_10_" gradientUnits="userSpaceOnUse" x1="1060.194" y1="1123.0288" x2="1060.194" y2="-75.7193">
					<stop  offset="0" style="stop-color:#5398AA"/>
					<stop  offset="1" style="stop-color:#1D9CB9"/>
				</linearGradient>
				<path class="st14" d="M1092.9,1035.7c-68.2,0-123.6-55.5-123.6-123.6c0-19.1,4.2-37.3,12.6-54.4c1.7-3.4,5.8-4.8,9.2-3.1
					c3.4,1.7,4.8,5.8,3.1,9.2c-7.4,15.1-11.2,31.4-11.2,48.3c0,60.6,49.3,109.9,109.9,109.9c16.9,0,33.2-3.8,48.3-11.2
					c3.4-1.7,7.5-0.3,9.2,3.1c1.7,3.4,0.3,7.5-3.1,9.2C1130.3,1031.4,1112,1035.7,1092.9,1035.7z"/>
			</g>
		</g>
		<g>
			<g>
				<linearGradient id="SVGID_11_" gradientUnits="userSpaceOnUse" x1="1071.9719" y1="1123.0288" x2="1071.9719" y2="-75.7193">
					<stop  offset="0" style="stop-color:#5398AA"/>
					<stop  offset="1" style="stop-color:#1D9CB9"/>
				</linearGradient>
				<path class="st15" d="M1025.8,951.7c-2.5,0-5-1.4-6.2-3.8c-5.5-11.2-8.3-23.3-8.3-35.9c0-45,36.6-81.6,81.6-81.6
					c12.6,0,24.7,2.8,35.9,8.3c3.4,1.7,4.8,5.8,3.1,9.2c-1.7,3.4-5.8,4.8-9.2,3.1c-9.3-4.6-19.4-6.9-29.8-6.9
					c-37.4,0-67.9,30.5-67.9,67.9c0,10.5,2.3,20.5,6.9,29.8c1.7,3.4,0.3,7.5-3.1,9.2C1027.8,951.5,1026.8,951.7,1025.8,951.7z"/>
			</g>
			<g>
				<linearGradient id="SVGID_12_" gradientUnits="userSpaceOnUse" x1="1113.866" y1="1123.0288" x2="1113.866" y2="-75.7193">
					<stop  offset="0" style="stop-color:#5398AA"/>
					<stop  offset="1" style="stop-color:#1D9CB9"/>
				</linearGradient>
				<path class="st16" d="M1092.9,993.6c-12.6,0-24.7-2.8-35.9-8.3c-3.4-1.7-4.8-5.8-3.1-9.2c1.7-3.4,5.8-4.8,9.2-3.1
					c9.3,4.6,19.4,6.9,29.8,6.9c37.4,0,67.9-30.5,67.9-67.9c0-10.5-2.3-20.5-6.9-29.8c-1.7-3.4-0.3-7.5,3.1-9.2
					c3.4-1.7,7.5-0.3,9.2,3.1c5.5,11.2,8.3,23.3,8.3,35.9C1174.5,957,1137.9,993.6,1092.9,993.6z"/>
			</g>
		</g>
	</g>
	<g>
		<linearGradient id="SVGID_13_" gradientUnits="userSpaceOnUse" x1="172.5425" y1="1123.0288" x2="172.5425" y2="-75.7193">
			<stop  offset="0" style="stop-color:#5398AA"/>
			<stop  offset="1" style="stop-color:#1D9CB9"/>
		</linearGradient>
		<path class="st17" d="M172.5,730.1c-14.7,0-26.7-12-26.7-26.7c0-14.7,12-26.7,26.7-26.7c14.7,0,26.7,12,26.7,26.7
			C199.3,718.1,187.3,730.1,172.5,730.1z M172.5,690.4c-7.2,0-13,5.8-13,13c0,7.2,5.8,13,13,13c7.2,0,13-5.8,13-13
			C185.5,696.2,179.7,690.4,172.5,690.4z"/>
	</g>
	<g>
		<linearGradient id="SVGID_14_" gradientUnits="userSpaceOnUse" x1="286.7386" y1="1123.0288" x2="286.7386" y2="-75.7193">
			<stop  offset="0" style="stop-color:#5398AA"/>
			<stop  offset="1" style="stop-color:#1D9CB9"/>
		</linearGradient>
		<path class="st18" d="M330.3,710.7h-21.8c-3.8,0-6.9-3.1-6.9-6.9c0-3.8,3.1-6.9,6.9-6.9h21.8c3.8,0,6.9,3.1,6.9,6.9
			C337.2,707.6,334.1,710.7,330.3,710.7z M268.2,710.7h-25c-3.8,0-6.9-3.1-6.9-6.9c0-3.8,3.1-6.9,6.9-6.9h25c3.8,0,6.9,3.1,6.9,6.9
			C275,707.6,272,710.7,268.2,710.7z"/>
	</g>
	<g>
		<linearGradient id="SVGID_15_" gradientUnits="userSpaceOnUse" x1="172.5781" y1="1123.0288" x2="172.5781" y2="-75.7193">
			<stop  offset="0" style="stop-color:#5398AA"/>
			<stop  offset="1" style="stop-color:#1D9CB9"/>
		</linearGradient>
		<path class="st19" d="M172.6,641.7c-3.8,0-6.9-3.1-6.9-6.9v-25c0-3.8,3.1-6.9,6.9-6.9c3.8,0,6.9,3.1,6.9,6.9v25
			C179.4,638.6,176.4,641.7,172.6,641.7z M172.6,576.3c-3.8,0-6.9-3.1-6.9-6.9v-21.8c0-3.8,3.1-6.9,6.9-6.9c3.8,0,6.9,3.1,6.9,6.9
			v21.8C179.4,573.3,176.4,576.3,172.6,576.3z"/>
	</g>
	<g>
		<g>
			<linearGradient id="SVGID_16_" gradientUnits="userSpaceOnUse" x1="1098.6748" y1="1123.0288" x2="1098.6748" y2="-75.7193">
				<stop  offset="0" style="stop-color:#5398AA"/>
				<stop  offset="1" style="stop-color:#1D9CB9"/>
			</linearGradient>
			<path class="st20" d="M1098.7,522.5c-14.7,0-26.7-12-26.7-26.7c0-14.7,12-26.7,26.7-26.7c14.7,0,26.7,12,26.7,26.7
				C1125.4,510.5,1113.4,522.5,1098.7,522.5z M1098.7,482.7c-7.2,0-13,5.8-13,13s5.8,13,13,13c7.2,0,13-5.8,13-13
				S1105.8,482.7,1098.7,482.7z"/>
		</g>
		<g>
			<linearGradient id="SVGID_17_" gradientUnits="userSpaceOnUse" x1="984.6093" y1="1123.0288" x2="984.6093" y2="-75.7193">
				<stop  offset="0" style="stop-color:#5398AA"/>
				<stop  offset="1" style="stop-color:#1D9CB9"/>
			</linearGradient>
			<path class="st21" d="M1028.2,502.5h-25c-3.8,0-6.9-3.1-6.9-6.9c0-3.8,3.1-6.9,6.9-6.9h25c3.8,0,6.9,3.1,6.9,6.9
				C1035,499.4,1032,502.5,1028.2,502.5z M962.8,502.5H941c-3.8,0-6.9-3.1-6.9-6.9c0-3.8,3.1-6.9,6.9-6.9h21.8
				c3.8,0,6.9,3.1,6.9,6.9C969.7,499.4,966.6,502.5,962.8,502.5z"/>
		</g>
		<g>
			<linearGradient id="SVGID_18_" gradientUnits="userSpaceOnUse" x1="1098.7695" y1="1123.0288" x2="1098.7695" y2="-75.7193">
				<stop  offset="0" style="stop-color:#5398AA"/>
				<stop  offset="1" style="stop-color:#1D9CB9"/>
			</linearGradient>
			<path class="st22" d="M1098.8,658.6c-3.8,0-6.9-3.1-6.9-6.9V630c0-3.8,3.1-6.9,6.9-6.9c3.8,0,6.9,3.1,6.9,6.9v21.8
				C1105.6,655.5,1102.6,658.6,1098.8,658.6z M1098.8,596.5c-3.8,0-6.9-3.1-6.9-6.9v-25c0-3.8,3.1-6.9,6.9-6.9
				c3.8,0,6.9,3.1,6.9,6.9v25C1105.6,593.4,1102.6,596.5,1098.8,596.5z"/>
		</g>
	</g>
	<g>
		<linearGradient id="SVGID_19_" gradientUnits="userSpaceOnUse" x1="966.86" y1="1123.0288" x2="966.86" y2="-75.7193">
			<stop  offset="0" style="stop-color:#5398AA"/>
			<stop  offset="1" style="stop-color:#1D9CB9"/>
		</linearGradient>
		<path class="st23" d="M1138.7,170.1H795c-3.8,0-6.9-3.1-6.9-6.9c0-3.8,3.1-6.9,6.9-6.9h343.7c3.8,0,6.9,3.1,6.9,6.9
			C1145.6,167,1142.5,170.1,1138.7,170.1z"/>
	</g>
	<g>
		<linearGradient id="SVGID_20_" gradientUnits="userSpaceOnUse" x1="1125.3937" y1="1123.0288" x2="1125.3937" y2="-75.7193">
			<stop  offset="0" style="stop-color:#5398AA"/>
			<stop  offset="1" style="stop-color:#1D9CB9"/>
		</linearGradient>
		<path class="st24" d="M1209.7,287.9h-168.6c-3.8,0-6.9-3.1-6.9-6.9s3.1-6.9,6.9-6.9h168.6c3.8,0,6.9,3.1,6.9,6.9
			S1213.5,287.9,1209.7,287.9z"/>
	</g>
	<g>
		<linearGradient id="SVGID_21_" gradientUnits="userSpaceOnUse" x1="291.9828" y1="1123.0288" x2="291.9828" y2="-75.7193">
			<stop  offset="0" style="stop-color:#5398AA"/>
			<stop  offset="1" style="stop-color:#1D9CB9"/>
		</linearGradient>
		<path class="st25" d="M438.4,1047.9H145.6c-3.8,0-6.9-3.1-6.9-6.9c0-3.8,3.1-6.9,6.9-6.9h292.9c3.8,0,6.9,3.1,6.9,6.9
			C445.3,1044.8,442.2,1047.9,438.4,1047.9z"/>
	</g>
	<g>
		<linearGradient id="SVGID_22_" gradientUnits="userSpaceOnUse" x1="156.4426" y1="1123.0288" x2="156.4426" y2="-75.7193">
			<stop  offset="0" style="stop-color:#5398AA"/>
			<stop  offset="1" style="stop-color:#1D9CB9"/>
		</linearGradient>
		<path class="st26" d="M218.2,901.9H94.7c-3.8,0-6.9-3.1-6.9-6.9c0-3.8,3.1-6.9,6.9-6.9h123.4c3.8,0,6.9,3.1,6.9,6.9
			C225,898.8,221.9,901.9,218.2,901.9z"/>
	</g>
	<g>
		<linearGradient id="SVGID_23_" gradientUnits="userSpaceOnUse" x1="815.9192" y1="1123.0288" x2="815.9192" y2="-75.7193">
			<stop  offset="0" style="stop-color:#5398AA"/>
			<stop  offset="1" style="stop-color:#1D9CB9"/>
		</linearGradient>
		<path class="st27" d="M815.9,952.1c-13,0-23.6-10.6-23.6-23.6c0-13,10.6-23.6,23.6-23.6c13,0,23.6,10.6,23.6,23.6
			C839.5,941.5,828.9,952.1,815.9,952.1z M815.9,918.6c-5.4,0-9.9,4.4-9.9,9.9c0,5.4,4.4,9.9,9.9,9.9c5.4,0,9.9-4.4,9.9-9.9
			C825.8,923,821.4,918.6,815.9,918.6z"/>
	</g>
	<g>
		<linearGradient id="SVGID_24_" gradientUnits="userSpaceOnUse" x1="646.3521" y1="1123.0288" x2="646.3521" y2="-75.7193">
			<stop  offset="0" style="stop-color:#5398AA"/>
			<stop  offset="1" style="stop-color:#1D9CB9"/>
		</linearGradient>
		<path class="st28" d="M646.4,146.5c-13,0-23.6-10.6-23.6-23.6s10.6-23.6,23.6-23.6s23.6,10.6,23.6,23.6S659.4,146.5,646.4,146.5z
			 M646.4,113c-5.4,0-9.9,4.4-9.9,9.9c0,5.4,4.4,9.9,9.9,9.9s9.9-4.4,9.9-9.9C656.2,117.5,651.8,113,646.4,113z"/>
	</g>
	<g>
		<g>
			<linearGradient id="SVGID_25_" gradientUnits="userSpaceOnUse" x1="605.0159" y1="1123.0288" x2="605.0159" y2="-75.7193">
				<stop  offset="0" style="stop-color:#5398AA"/>
				<stop  offset="1" style="stop-color:#1D9CB9"/>
			</linearGradient>
			<path class="st29" d="M605,1046.7c-3.8,0-6.9-3.1-6.9-6.9v-33.1c0-3.8,3.1-6.9,6.9-6.9s6.9,3.1,6.9,6.9v33.1
				C611.9,1043.6,608.8,1046.7,605,1046.7z"/>
		</g>
		<g>
			<linearGradient id="SVGID_26_" gradientUnits="userSpaceOnUse" x1="605.0161" y1="1123.0288" x2="605.0161" y2="-75.7193">
				<stop  offset="0" style="stop-color:#5398AA"/>
				<stop  offset="1" style="stop-color:#1D9CB9"/>
			</linearGradient>
			<path class="st30" d="M621.6,1030.1h-33.1c-3.8,0-6.9-3.1-6.9-6.9s3.1-6.9,6.9-6.9h33.1c3.8,0,6.9,3.1,6.9,6.9
				S625.3,1030.1,621.6,1030.1z"/>
		</g>
	</g>
	<g>
		<g>
			<linearGradient id="SVGID_27_" gradientUnits="userSpaceOnUse" x1="1227.0486" y1="1123.0288" x2="1227.0486" y2="-75.7193">
				<stop  offset="0" style="stop-color:#5398AA"/>
				<stop  offset="1" style="stop-color:#1D9CB9"/>
			</linearGradient>
			<path class="st31" d="M1227,422.2c-3.8,0-6.9-3.1-6.9-6.9v-33.1c0-3.8,3.1-6.9,6.9-6.9c3.8,0,6.9,3.1,6.9,6.9v33.1
				C1233.9,419.2,1230.8,422.2,1227,422.2z"/>
		</g>
		<g>
			<linearGradient id="SVGID_28_" gradientUnits="userSpaceOnUse" x1="1227.0488" y1="1123.0288" x2="1227.0488" y2="-75.7193">
				<stop  offset="0" style="stop-color:#5398AA"/>
				<stop  offset="1" style="stop-color:#1D9CB9"/>
			</linearGradient>
			<path class="st32" d="M1243.6,405.7h-33.1c-3.8,0-6.9-3.1-6.9-6.9s3.1-6.9,6.9-6.9h33.1c3.8,0,6.9,3.1,6.9,6.9
				S1247.4,405.7,1243.6,405.7z"/>
		</g>
	</g>
	<g>
		<g>
			<linearGradient id="SVGID_29_" gradientUnits="userSpaceOnUse" x1="445.2721" y1="1123.0288" x2="445.2721" y2="-75.7193">
				<stop  offset="0" style="stop-color:#5398AA"/>
				<stop  offset="1" style="stop-color:#1D9CB9"/>
			</linearGradient>
			<path class="st33" d="M445.3,214.9c-3.8,0-6.9-3.1-6.9-6.9v-33.1c0-3.8,3.1-6.9,6.9-6.9s6.9,3.1,6.9,6.9V208
				C452.1,211.8,449.1,214.9,445.3,214.9z"/>
		</g>
		<g>
			<linearGradient id="SVGID_30_" gradientUnits="userSpaceOnUse" x1="445.2722" y1="1123.0288" x2="445.2722" y2="-75.7193">
				<stop  offset="0" style="stop-color:#5398AA"/>
				<stop  offset="1" style="stop-color:#1D9CB9"/>
			</linearGradient>
			<path class="st34" d="M461.8,198.3h-33.1c-3.8,0-6.9-3.1-6.9-6.9c0-3.8,3.1-6.9,6.9-6.9h33.1c3.8,0,6.9,3.1,6.9,6.9
				C468.7,195.3,465.6,198.3,461.8,198.3z"/>
		</g>
	</g>
</g>
<g id="EXPERIENCE">
</g>
<g id="CREATIVITY">
</g>
<g id="WEBINAR">
</g>
<g id="COACHING">
</g>
</svg>
