<?xml version="1.0" encoding="utf-8"?>
<!-- Generator: Adobe Illustrator 22.0.1, SVG Export Plug-In . SVG Version: 6.00 Build 0)  -->
<svg version="1.1" xmlns="http://www.w3.org/2000/svg" xmlns:xlink="http://www.w3.org/1999/xlink" x="0px" y="0px"
	 viewBox="0 0 1485.5 1283.9" style="enable-background:new 0 0 1485.5 1283.9;" xml:space="preserve">
<style type="text/css">
	.st0{display:none;}
	.st1{display:inline;}
	.st2{fill:#FBD471;}
	.st3{fill:#98E5ED;}
	.st4{fill:#E3EAE5;}
	.st5{fill:url(#SVGID_1_);}
	.st6{fill:url(#SVGID_2_);}
	.st7{fill:url(#SVGID_3_);}
	.st8{fill:url(#SVGID_4_);}
	.st9{fill:url(#SVGID_5_);}
	.st10{fill:url(#SVGID_6_);}
	.st11{fill:url(#SVGID_7_);}
	.st12{fill:url(#SVGID_8_);}
	.st13{fill:url(#SVGID_9_);}
	.st14{fill:url(#SVGID_10_);}
	.st15{fill:url(#SVGID_11_);}
	.st16{fill:url(#SVGID_12_);}
	.st17{fill:url(#SVGID_13_);}
	.st18{fill:url(#SVGID_14_);}
	.st19{fill:url(#SVGID_15_);}
	.st20{fill:url(#SVGID_16_);}
	.st21{fill:url(#SVGID_17_);}
	.st22{fill:url(#SVGID_18_);}
	.st23{fill:url(#SVGID_19_);}
	.st24{fill:url(#SVGID_20_);}
	.st25{fill:url(#SVGID_21_);}
	.st26{fill:url(#SVGID_22_);}
	.st27{fill:url(#SVGID_23_);}
	.st28{fill:url(#SVGID_24_);}
	.st29{fill:url(#SVGID_25_);}
	.st30{fill:url(#SVGID_26_);}
	.st31{fill:url(#SVGID_27_);}
	.st32{fill:url(#SVGID_28_);}
	.st33{fill:url(#SVGID_29_);}
	.st34{fill:url(#SVGID_30_);}
	.st35{fill:url(#SVGID_31_);}
	.st36{fill:url(#SVGID_32_);}
	.st37{fill:url(#SVGID_33_);}
	.st38{fill:url(#SVGID_34_);}
	.st39{fill:url(#SVGID_35_);}
	.st40{fill:url(#SVGID_36_);}
	.st41{fill:url(#SVGID_37_);}
	.st42{fill:url(#SVGID_38_);}
	.st43{fill:url(#SVGID_39_);}
	.st44{fill:url(#SVGID_40_);}
	.st45{fill:url(#SVGID_41_);}
	.st46{fill:url(#SVGID_42_);}
	.st47{fill:url(#SVGID_43_);}
	.st48{fill:url(#SVGID_44_);}
	.st49{fill:url(#SVGID_45_);}
	.st50{fill:url(#SVGID_46_);}
	.st51{fill:url(#SVGID_47_);}
	.st52{fill:url(#SVGID_48_);}
	.st53{fill:url(#SVGID_49_);}
	.st54{fill:url(#SVGID_50_);}
	.st55{fill:url(#SVGID_51_);}
	.st56{fill:url(#SVGID_52_);}
	.st57{fill:url(#SVGID_53_);}
	.st58{fill:url(#SVGID_54_);}
	.st59{fill:url(#SVGID_55_);}
	.st60{fill:url(#SVGID_56_);}
	.st61{fill:url(#SVGID_57_);}
	.st62{fill:url(#SVGID_58_);}
	.st63{fill:url(#SVGID_59_);}
	.st64{fill:url(#SVGID_60_);}
	.st65{fill:url(#SVGID_61_);}
	.st66{fill:url(#SVGID_62_);}
	.st67{fill:url(#SVGID_63_);}
	.st68{fill:url(#SVGID_64_);}
	.st69{fill:url(#SVGID_65_);}
	.st70{fill:url(#SVGID_66_);}
	.st71{fill:url(#SVGID_67_);}
	.st72{fill:url(#SVGID_68_);}
	.st73{fill:url(#SVGID_69_);}
	.st74{fill:url(#SVGID_70_);}
	.st75{fill:url(#SVGID_71_);}
	.st76{fill:url(#SVGID_72_);}
	.st77{fill:url(#SVGID_73_);}
	.st78{fill:url(#SVGID_74_);}
	.st79{fill:url(#SVGID_75_);}
	.st80{fill:url(#SVGID_76_);}
	.st81{fill:url(#SVGID_77_);}
	.st82{fill:url(#SVGID_78_);}
	.st83{fill:url(#SVGID_79_);}
	.st84{fill:url(#SVGID_80_);}
	.st85{fill:url(#SVGID_81_);}
	.st86{fill:url(#SVGID_82_);}
	.st87{fill:url(#SVGID_83_);}
	.st88{fill:url(#SVGID_84_);}
	.st89{fill:url(#SVGID_85_);}
	.st90{fill:url(#SVGID_86_);}
	.st91{fill:url(#SVGID_87_);}
	.st92{fill:url(#SVGID_88_);}
	.st93{fill:url(#SVGID_89_);}
	.st94{fill:url(#SVGID_90_);}
	.st95{fill:url(#SVGID_91_);}
	.st96{fill:url(#SVGID_92_);}
	.st97{fill:url(#SVGID_93_);}
	.st98{fill:url(#SVGID_94_);}
	.st99{fill:url(#SVGID_95_);}
	.st100{fill:url(#SVGID_96_);}
	.st101{fill:url(#SVGID_97_);}
	.st102{fill:url(#SVGID_98_);}
	.st103{fill:url(#SVGID_99_);}
	.st104{fill:url(#SVGID_100_);}
	.st105{fill:url(#SVGID_101_);}
	.st106{fill:url(#SVGID_102_);}
	.st107{fill:url(#SVGID_103_);}
	.st108{fill:url(#SVGID_104_);}
	.st109{fill:url(#SVGID_105_);}
	.st110{fill:url(#SVGID_106_);}
	.st111{fill:url(#SVGID_107_);}
	.st112{fill:url(#SVGID_108_);}
	.st113{fill:url(#SVGID_109_);}
	.st114{fill:url(#SVGID_110_);}
	.st115{fill:url(#SVGID_111_);}
	.st116{fill:url(#SVGID_112_);}
	.st117{fill:url(#SVGID_113_);}
	.st118{fill:url(#SVGID_114_);}
	.st119{fill:url(#SVGID_115_);}
	.st120{fill:url(#SVGID_116_);}
	.st121{fill:url(#SVGID_117_);}
	.st122{fill:url(#SVGID_118_);}
	.st123{fill:url(#SVGID_119_);}
	.st124{fill:url(#SVGID_120_);}
	.st125{fill:url(#SVGID_121_);}
	.st126{fill:url(#SVGID_122_);}
	.st127{fill:url(#SVGID_123_);}
	.st128{fill:url(#SVGID_124_);}
	.st129{fill:url(#SVGID_125_);}
	.st130{fill:url(#SVGID_126_);}
	.st131{fill:url(#SVGID_127_);}
	.st132{fill:url(#SVGID_128_);}
	.st133{fill:url(#SVGID_129_);}
	.st134{fill:url(#SVGID_130_);}
	.st135{fill:url(#SVGID_131_);}
	.st136{fill:url(#SVGID_132_);}
	.st137{fill:url(#SVGID_133_);}
	.st138{fill:url(#SVGID_134_);}
	.st139{fill:url(#SVGID_135_);}
	.st140{fill:url(#SVGID_136_);}
	.st141{fill:url(#SVGID_137_);}
	.st142{fill:url(#SVGID_138_);}
	.st143{fill:url(#SVGID_139_);}
	.st144{fill:url(#SVGID_140_);}
	.st145{fill:url(#SVGID_141_);}
	.st146{fill:url(#SVGID_142_);}
	.st147{fill:url(#SVGID_143_);}
	.st148{fill:url(#SVGID_144_);}
	.st149{fill:url(#SVGID_145_);}
	.st150{fill:url(#SVGID_146_);}
	.st151{fill:url(#SVGID_147_);}
	.st152{fill:url(#SVGID_148_);}
	.st153{fill:url(#SVGID_149_);}
	.st154{fill:url(#SVGID_150_);}
	.st155{fill:url(#SVGID_151_);}
	.st156{fill:url(#SVGID_152_);}
	.st157{fill:url(#SVGID_153_);}
	.st158{fill:url(#SVGID_154_);}
	.st159{fill:url(#SVGID_155_);}
	.st160{fill:url(#SVGID_156_);}
	.st161{fill:url(#SVGID_157_);}
	.st162{fill:url(#SVGID_158_);}
	.st163{fill:url(#SVGID_159_);}
	.st164{fill:url(#SVGID_160_);}
	.st165{fill:url(#SVGID_161_);}
	.st166{fill:url(#SVGID_162_);}
	.st167{fill:url(#SVGID_163_);}
	.st168{fill:url(#SVGID_164_);}
	.st169{fill:url(#SVGID_165_);}
	.st170{fill:url(#SVGID_166_);}
	.st171{fill:url(#SVGID_167_);}
	.st172{fill:url(#SVGID_168_);}
	.st173{fill:url(#SVGID_169_);}
	.st174{fill:url(#SVGID_170_);}
	.st175{fill:url(#SVGID_171_);}
	.st176{fill:url(#SVGID_172_);}
	.st177{fill:url(#SVGID_173_);}
	.st178{fill:url(#SVGID_174_);}
	.st179{fill:url(#SVGID_175_);}
	.st180{fill:url(#SVGID_176_);}
	.st181{fill:url(#SVGID_177_);}
	.st182{fill:url(#SVGID_178_);}
	.st183{fill:url(#SVGID_179_);}
	.st184{fill:url(#SVGID_180_);}
	.st185{fill:url(#SVGID_181_);}
	.st186{fill:url(#SVGID_182_);}
	.st187{fill:url(#SVGID_183_);}
	.st188{fill:url(#SVGID_184_);}
	.st189{fill:url(#SVGID_185_);}
	.st190{fill:url(#SVGID_186_);}
	.st191{fill:url(#SVGID_187_);}
	.st192{fill:url(#SVGID_188_);}
	.st193{fill:url(#SVGID_189_);}
	.st194{fill:url(#SVGID_190_);}
	.st195{fill:url(#SVGID_191_);}
	.st196{fill:url(#SVGID_192_);}
	.st197{fill:url(#SVGID_193_);}
	.st198{fill:url(#SVGID_194_);}
	.st199{fill:url(#SVGID_195_);}
	.st200{fill:url(#SVGID_196_);}
	.st201{fill:url(#SVGID_197_);}
	.st202{fill:url(#SVGID_198_);}
	.st203{fill:url(#SVGID_199_);}
	.st204{fill:url(#SVGID_200_);}
	.st205{fill:url(#SVGID_201_);}
	.st206{fill:url(#SVGID_202_);}
	.st207{fill:url(#SVGID_203_);}
	.st208{fill:url(#SVGID_204_);}
	.st209{fill:url(#SVGID_205_);}
	.st210{fill:url(#SVGID_206_);}
	.st211{fill:url(#SVGID_207_);}
	.st212{fill:url(#SVGID_208_);}
	.st213{fill:url(#SVGID_209_);}
	.st214{fill:url(#SVGID_210_);}
	.st215{fill:url(#SVGID_211_);}
	.st216{fill:url(#SVGID_212_);}
	.st217{fill:url(#SVGID_213_);}
	.st218{fill:url(#SVGID_214_);}
	.st219{fill:url(#SVGID_215_);}
	.st220{fill:url(#SVGID_216_);}
	.st221{fill:url(#SVGID_217_);}
	.st222{fill:url(#SVGID_218_);}
	.st223{fill:url(#SVGID_219_);}
	.st224{fill:url(#SVGID_220_);}
	.st225{fill:url(#SVGID_221_);}
	.st226{fill:url(#SVGID_222_);}
	.st227{fill:url(#SVGID_223_);}
	.st228{fill:url(#SVGID_224_);}
	.st229{fill:url(#SVGID_225_);}
	.st230{fill:url(#SVGID_226_);}
	.st231{fill:url(#SVGID_227_);}
	.st232{fill:url(#SVGID_228_);}
	.st233{fill:url(#SVGID_229_);}
	.st234{fill:url(#SVGID_230_);}
	.st235{fill:url(#SVGID_231_);}
	.st236{fill:url(#SVGID_232_);}
	.st237{fill:url(#SVGID_233_);}
	.st238{fill:url(#SVGID_234_);}
	.st239{fill:url(#SVGID_235_);}
	.st240{fill:url(#SVGID_236_);}
	.st241{fill:url(#SVGID_237_);}
	.st242{fill:url(#SVGID_238_);}
	.st243{fill:url(#SVGID_239_);}
	.st244{fill:url(#SVGID_240_);}
	.st245{fill:url(#SVGID_241_);}
	.st246{fill:url(#SVGID_242_);}
	.st247{fill:url(#SVGID_243_);}
	.st248{fill:url(#SVGID_244_);}
	.st249{fill:url(#SVGID_245_);}
	.st250{fill:url(#SVGID_246_);}
	.st251{fill:url(#SVGID_247_);}
	.st252{fill:url(#SVGID_248_);}
	.st253{fill:url(#SVGID_249_);}
	.st254{fill:url(#SVGID_250_);}
	.st255{fill:url(#SVGID_251_);}
	.st256{fill:url(#SVGID_252_);}
	.st257{fill:url(#SVGID_253_);}
	.st258{fill:url(#SVGID_254_);}
	.st259{fill:url(#SVGID_255_);}
	.st260{fill:url(#SVGID_256_);}
	.st261{fill:url(#SVGID_257_);}
	.st262{fill:url(#SVGID_258_);}
	.st263{fill:url(#SVGID_259_);}
	.st264{fill:url(#SVGID_260_);}
	.st265{fill:url(#SVGID_261_);}
	.st266{fill:url(#SVGID_262_);}
	.st267{fill:url(#SVGID_263_);}
	.st268{fill:url(#SVGID_264_);}
	.st269{fill:url(#SVGID_265_);}
	.st270{fill:url(#SVGID_266_);}
	.st271{fill:url(#SVGID_267_);}
	.st272{fill:url(#SVGID_268_);}
	.st273{fill:url(#SVGID_269_);}
	.st274{fill:url(#SVGID_270_);}
</style>
<g id="Layer_2">
</g>
<g id="Layer_1">
</g>
<g id="Color" class="st0">
</g>
<g id="DEVELOPMENT">
	<g>
		<linearGradient id="SVGID_1_" gradientUnits="userSpaceOnUse" x1="717.1652" y1="1366.5249" x2="717.1652" y2="-7.9345">
			<stop  offset="0" style="stop-color:#5398AA"/>
			<stop  offset="1" style="stop-color:#1D9CB9"/>
		</linearGradient>
		<path class="st5" d="M1039.6,920.2h-645c-24.1,0-43.7-19.6-43.7-43.7V432.9c0-24.1,19.6-43.7,43.7-43.7h645
			c24.1,0,43.7,19.6,43.7,43.7v443.7C1083.3,900.6,1063.7,920.2,1039.6,920.2z M394.7,402.9c-16.5,0-29.9,13.4-29.9,29.9v443.7
			c0,16.5,13.4,29.9,29.9,29.9h645c16.5,0,29.9-13.4,29.9-29.9V432.9c0-16.5-13.4-29.9-29.9-29.9H394.7z"/>
	</g>
	<g>
		<g>
			<g>
				<linearGradient id="SVGID_2_" gradientUnits="userSpaceOnUse" x1="635.9377" y1="1366.5249" x2="635.9377" y2="-7.9345">
					<stop  offset="0" style="stop-color:#5398AA"/>
					<stop  offset="1" style="stop-color:#1D9CB9"/>
				</linearGradient>
				<path class="st6" d="M635.9,1043c-3.8,0-6.9-3.1-6.9-6.9v-121c0-3.8,3.1-6.9,6.9-6.9s6.9,3.1,6.9,6.9v121
					C642.8,1039.9,639.7,1043,635.9,1043z"/>
			</g>
			<g>
				<linearGradient id="SVGID_3_" gradientUnits="userSpaceOnUse" x1="798.1019" y1="1366.5249" x2="798.1019" y2="-7.9345">
					<stop  offset="0" style="stop-color:#5398AA"/>
					<stop  offset="1" style="stop-color:#1D9CB9"/>
				</linearGradient>
				<path class="st7" d="M798.1,1043c-3.8,0-6.9-3.1-6.9-6.9v-121c0-3.8,3.1-6.9,6.9-6.9c3.8,0,6.9,3.1,6.9,6.9v121
					C805,1039.9,801.9,1043,798.1,1043z"/>
			</g>
		</g>
		<g>
			<linearGradient id="SVGID_4_" gradientUnits="userSpaceOnUse" x1="717.0198" y1="1366.5249" x2="717.0198" y2="-7.9345">
				<stop  offset="0" style="stop-color:#5398AA"/>
				<stop  offset="1" style="stop-color:#1D9CB9"/>
			</linearGradient>
			<path class="st8" d="M867.1,1043.4H567c-3.8,0-6.9-3.1-6.9-6.9c0-3.8,3.1-6.9,6.9-6.9h300.1c3.8,0,6.9,3.1,6.9,6.9
				C873.9,1040.3,870.9,1043.4,867.1,1043.4z"/>
		</g>
	</g>
	<g>
		<linearGradient id="SVGID_5_" gradientUnits="userSpaceOnUse" x1="793.6646" y1="1366.5249" x2="793.6646" y2="-7.9345">
			<stop  offset="0" style="stop-color:#5398AA"/>
			<stop  offset="1" style="stop-color:#1D9CB9"/>
		</linearGradient>
		<path class="st9" d="M1076,840.1H511.3c-3.8,0-6.9-3.1-6.9-6.9s3.1-6.9,6.9-6.9H1076c3.8,0,6.9,3.1,6.9,6.9
			S1079.8,840.1,1076,840.1z"/>
	</g>
	<g>
		<g>
			<linearGradient id="SVGID_6_" gradientUnits="userSpaceOnUse" x1="716.8336" y1="1366.5249" x2="716.8336" y2="-7.9345">
				<stop  offset="0" style="stop-color:#5398AA"/>
				<stop  offset="1" style="stop-color:#1D9CB9"/>
			</linearGradient>
			<path class="st10" d="M716.8,530.4c-29.9,0-58-2.3-79.2-6.3c-26.2-5-37.8-11.8-37.8-21.8c0-10,11.7-16.7,37.8-21.8
				c21.2-4.1,49.4-6.3,79.2-6.3c29.9,0,58,2.3,79.2,6.3c26.2,5,37.8,11.8,37.8,21.8c0,10-11.7,16.7-37.8,21.8
				C774.8,528.2,746.7,530.4,716.8,530.4z M614.4,502.3c2.6,1.8,10.1,5.6,30.4,9.1c19.8,3.4,45.4,5.3,72,5.3c26.6,0,52.2-1.9,72-5.3
				c20.4-3.5,27.8-7.3,30.4-9.1c-2.6-1.8-10.1-5.6-30.4-9.1c-19.8-3.4-45.4-5.3-72-5.3s-52.2,1.9-72,5.3
				C624.5,496.7,617,500.5,614.4,502.3z M820.5,503.7L820.5,503.7L820.5,503.7z"/>
		</g>
		<g>
			<linearGradient id="SVGID_7_" gradientUnits="userSpaceOnUse" x1="716.8336" y1="1366.5249" x2="716.8336" y2="-7.9345">
				<stop  offset="0" style="stop-color:#5398AA"/>
				<stop  offset="1" style="stop-color:#1D9CB9"/>
			</linearGradient>
			<path class="st11" d="M716.8,601.2c-29.9,0-58-2.3-79.2-6.3c-26.2-5-37.8-11.8-37.8-21.8c0-3.8,3.1-6.9,6.9-6.9
				c3.5,0,6.4,2.6,6.8,6c1,1.1,6.9,5.8,31.4,10c19.8,3.4,45.4,5.3,72,5.3c26.6,0,52.2-1.9,72-5.3c24.5-4.2,30.4-8.9,31.4-10
				c0.4-3.4,3.3-6,6.8-6c3.8,0,6.9,3.1,6.9,6.9c0,10-11.7,16.7-37.8,21.8C774.8,599,746.7,601.2,716.8,601.2z"/>
		</g>
		<g>
			<linearGradient id="SVGID_8_" gradientUnits="userSpaceOnUse" x1="717.0157" y1="1366.5249" x2="717.0157" y2="-7.9345">
				<stop  offset="0" style="stop-color:#5398AA"/>
				<stop  offset="1" style="stop-color:#1D9CB9"/>
			</linearGradient>
			<path class="st12" d="M717,672c-29.9,0-58-2.3-79.2-6.3c-26.2-5-37.8-11.8-37.8-21.8c0-3.8,3.1-6.9,6.9-6.9c3.5,0,6.4,2.6,6.8,6
				c1,1.1,6.9,5.8,31.4,10c19.8,3.4,45.4,5.3,72,5.3c26.6,0,52.2-1.9,72-5.3c24.5-4.2,30.4-8.9,31.4-10c0.4-3.4,3.3-6,6.8-6
				c3.8,0,6.9,3.1,6.9,6.9c0,10-11.7,16.7-37.8,21.8C775,669.8,746.9,672,717,672z"/>
		</g>
		<g>
			<linearGradient id="SVGID_9_" gradientUnits="userSpaceOnUse" x1="717.0157" y1="1366.5249" x2="717.0157" y2="-7.9345">
				<stop  offset="0" style="stop-color:#5398AA"/>
				<stop  offset="1" style="stop-color:#1D9CB9"/>
			</linearGradient>
			<path class="st13" d="M717,742.8c-29.9,0-58-2.3-79.2-6.3c-26.2-5-37.8-11.8-37.8-21.8c0-3.8,3.1-6.9,6.9-6.9
				c3.5,0,6.4,2.6,6.8,6c1,1.1,6.9,5.8,31.4,10c19.8,3.4,45.4,5.3,72,5.3c26.6,0,52.2-1.9,72-5.3c24.5-4.2,30.4-8.9,31.4-10
				c0.4-3.4,3.3-6,6.8-6c3.8,0,6.9,3.1,6.9,6.9c0,10-11.7,16.7-37.8,21.8C775,740.6,746.9,742.8,717,742.8z"/>
		</g>
		<g>
			<linearGradient id="SVGID_10_" gradientUnits="userSpaceOnUse" x1="827.9531" y1="1366.5249" x2="827.9531" y2="-7.9345">
				<stop  offset="0" style="stop-color:#5398AA"/>
				<stop  offset="1" style="stop-color:#1D9CB9"/>
			</linearGradient>
			<path class="st14" d="M828,721.9c-3.8,0-6.9-3.1-6.9-6.9v-213c0-3.8,3.1-6.9,6.9-6.9c3.8,0,6.9,3.1,6.9,6.9v213
				C834.8,718.8,831.7,721.9,828,721.9z"/>
		</g>
		<g>
			<linearGradient id="SVGID_11_" gradientUnits="userSpaceOnUse" x1="606.0867" y1="1366.5249" x2="606.0867" y2="-7.9345">
				<stop  offset="0" style="stop-color:#5398AA"/>
				<stop  offset="1" style="stop-color:#1D9CB9"/>
			</linearGradient>
			<path class="st15" d="M606.1,721.9c-3.8,0-6.9-3.1-6.9-6.9v-213c0-3.8,3.1-6.9,6.9-6.9c3.8,0,6.9,3.1,6.9,6.9v213
				C612.9,718.8,609.9,721.9,606.1,721.9z"/>
		</g>
	</g>
	<g>
		<linearGradient id="SVGID_12_" gradientUnits="userSpaceOnUse" x1="692.8162" y1="1366.5249" x2="692.8162" y2="-7.9345">
			<stop  offset="0" style="stop-color:#5398AA"/>
			<stop  offset="1" style="stop-color:#1D9CB9"/>
		</linearGradient>
		<path class="st16" d="M692.8,262.2c-14.7,0-26.7-12-26.7-26.7c0-14.7,12-26.7,26.7-26.7c14.7,0,26.7,12,26.7,26.7
			C719.5,250.2,707.5,262.2,692.8,262.2z M692.8,222.5c-7.2,0-13,5.8-13,13s5.8,13,13,13c7.2,0,13-5.8,13-13S700,222.5,692.8,222.5z
			"/>
	</g>
	<g>
		<linearGradient id="SVGID_13_" gradientUnits="userSpaceOnUse" x1="611.3307" y1="1366.5249" x2="611.3307" y2="-7.9345">
			<stop  offset="0" style="stop-color:#5398AA"/>
			<stop  offset="1" style="stop-color:#1D9CB9"/>
		</linearGradient>
		<path class="st17" d="M611.3,1200.4c-14.7,0-26.7-12-26.7-26.7c0-14.7,12-26.7,26.7-26.7s26.7,12,26.7,26.7
			C638,1188.4,626.1,1200.4,611.3,1200.4z M611.3,1160.7c-7.2,0-13,5.8-13,13s5.8,13,13,13c7.2,0,13-5.8,13-13
			S618.5,1160.7,611.3,1160.7z"/>
	</g>
	<g>
		<linearGradient id="SVGID_14_" gradientUnits="userSpaceOnUse" x1="978.5397" y1="1366.5249" x2="978.5397" y2="-7.9345">
			<stop  offset="0" style="stop-color:#5398AA"/>
			<stop  offset="1" style="stop-color:#1D9CB9"/>
		</linearGradient>
		<path class="st18" d="M978.5,1200.4c-14.7,0-26.7-12-26.7-26.7c0-14.7,12-26.7,26.7-26.7s26.7,12,26.7,26.7
			C1005.3,1188.4,993.3,1200.4,978.5,1200.4z M978.5,1160.7c-7.2,0-13,5.8-13,13s5.8,13,13,13c7.2,0,13-5.8,13-13
			S985.7,1160.7,978.5,1160.7z"/>
	</g>
	<g>
		<linearGradient id="SVGID_15_" gradientUnits="userSpaceOnUse" x1="177.3226" y1="1366.5249" x2="177.3226" y2="-7.9345">
			<stop  offset="0" style="stop-color:#5398AA"/>
			<stop  offset="1" style="stop-color:#1D9CB9"/>
		</linearGradient>
		<path class="st19" d="M177.3,262.2c-14.7,0-26.7-12-26.7-26.7c0-14.7,12-26.7,26.7-26.7c14.7,0,26.7,12,26.7,26.7
			C204,250.2,192.1,262.2,177.3,262.2z M177.3,222.5c-7.2,0-13,5.8-13,13s5.8,13,13,13c7.2,0,13-5.8,13-13S184.5,222.5,177.3,222.5z
			"/>
	</g>
	<g>
		<linearGradient id="SVGID_16_" gradientUnits="userSpaceOnUse" x1="177.3226" y1="1366.5249" x2="177.3226" y2="-7.9345">
			<stop  offset="0" style="stop-color:#5398AA"/>
			<stop  offset="1" style="stop-color:#1D9CB9"/>
		</linearGradient>
		<path class="st20" d="M177.3,828.6c-14.7,0-26.7-12-26.7-26.7c0-14.7,12-26.7,26.7-26.7c14.7,0,26.7,12,26.7,26.7
			C204,816.6,192.1,828.6,177.3,828.6z M177.3,788.9c-7.2,0-13,5.8-13,13c0,7.2,5.8,13,13,13c7.2,0,13-5.8,13-13
			C190.3,794.7,184.5,788.9,177.3,788.9z"/>
	</g>
	<g>
		<g>
			<linearGradient id="SVGID_17_" gradientUnits="userSpaceOnUse" x1="604.8765" y1="1366.5249" x2="604.8765" y2="-7.9345">
				<stop  offset="0" style="stop-color:#5398AA"/>
				<stop  offset="1" style="stop-color:#1D9CB9"/>
			</linearGradient>
			<path class="st21" d="M611.3,242.3h-12.9c-3.8,0-6.9-3.1-6.9-6.9c0-3.8,3.1-6.9,6.9-6.9h12.9c3.8,0,6.9,3.1,6.9,6.9
				C618.2,239.2,615.1,242.3,611.3,242.3z"/>
		</g>
		<g>
			<linearGradient id="SVGID_18_" gradientUnits="userSpaceOnUse" x1="434.6444" y1="1366.5249" x2="434.6444" y2="-7.9345">
				<stop  offset="0" style="stop-color:#5398AA"/>
				<stop  offset="1" style="stop-color:#1D9CB9"/>
			</linearGradient>
			<path class="st22" d="M554.9,242.3h-27.4c-3.8,0-6.9-3.1-6.9-6.9c0-3.8,3.1-6.9,6.9-6.9h27.4c3.8,0,6.9,3.1,6.9,6.9
				C561.7,239.2,558.6,242.3,554.9,242.3z M483.9,242.3h-27.4c-3.8,0-6.9-3.1-6.9-6.9c0-3.8,3.1-6.9,6.9-6.9h27.4
				c3.8,0,6.9,3.1,6.9,6.9C490.7,239.2,487.6,242.3,483.9,242.3z M412.9,242.3h-27.4c-3.8,0-6.9-3.1-6.9-6.9c0-3.8,3.1-6.9,6.9-6.9
				h27.4c3.8,0,6.9,3.1,6.9,6.9C419.7,239.2,416.6,242.3,412.9,242.3z M341.9,242.3h-27.4c-3.8,0-6.9-3.1-6.9-6.9
				c0-3.8,3.1-6.9,6.9-6.9h27.4c3.8,0,6.9,3.1,6.9,6.9C348.7,239.2,345.7,242.3,341.9,242.3z"/>
		</g>
		<g>
			<linearGradient id="SVGID_19_" gradientUnits="userSpaceOnUse" x1="265.6226" y1="1366.5249" x2="265.6226" y2="-7.9345">
				<stop  offset="0" style="stop-color:#5398AA"/>
				<stop  offset="1" style="stop-color:#1D9CB9"/>
			</linearGradient>
			<path class="st23" d="M271.7,242.3h-12.1c-3.8,0-6.9-3.1-6.9-6.9c0-3.8,3.1-6.9,6.9-6.9h12.1c3.8,0,6.9,3.1,6.9,6.9
				C278.5,239.2,275.5,242.3,271.7,242.3z"/>
		</g>
	</g>
	<g>
		<g>
			<linearGradient id="SVGID_20_" gradientUnits="userSpaceOnUse" x1="880.7976" y1="1366.5249" x2="880.7976" y2="-7.9345">
				<stop  offset="0" style="stop-color:#5398AA"/>
				<stop  offset="1" style="stop-color:#1D9CB9"/>
			</linearGradient>
			<path class="st24" d="M887.3,1180.6h-12.9c-3.8,0-6.9-3.1-6.9-6.9c0-3.8,3.1-6.9,6.9-6.9h12.9c3.8,0,6.9,3.1,6.9,6.9
				C894.1,1177.5,891,1180.6,887.3,1180.6z"/>
		</g>
		<g>
			<linearGradient id="SVGID_21_" gradientUnits="userSpaceOnUse" x1="795.2782" y1="1366.5249" x2="795.2782" y2="-7.9345">
				<stop  offset="0" style="stop-color:#5398AA"/>
				<stop  offset="1" style="stop-color:#1D9CB9"/>
			</linearGradient>
			<path class="st25" d="M837.2,1180.6h-23.4c-3.8,0-6.9-3.1-6.9-6.9c0-3.8,3.1-6.9,6.9-6.9h23.4c3.8,0,6.9,3.1,6.9,6.9
				C844.1,1177.5,841,1180.6,837.2,1180.6z M776.7,1180.6h-23.4c-3.8,0-6.9-3.1-6.9-6.9c0-3.8,3.1-6.9,6.9-6.9h23.4
				c3.8,0,6.9,3.1,6.9,6.9C783.6,1177.5,780.5,1180.6,776.7,1180.6z"/>
		</g>
		<g>
			<linearGradient id="SVGID_22_" gradientUnits="userSpaceOnUse" x1="709.3554" y1="1366.5249" x2="709.3554" y2="-7.9345">
				<stop  offset="0" style="stop-color:#5398AA"/>
				<stop  offset="1" style="stop-color:#1D9CB9"/>
			</linearGradient>
			<path class="st26" d="M715.4,1180.6h-12.1c-3.8,0-6.9-3.1-6.9-6.9c0-3.8,3.1-6.9,6.9-6.9h12.1c3.8,0,6.9,3.1,6.9,6.9
				C722.3,1177.5,719.2,1180.6,715.4,1180.6z"/>
		</g>
	</g>
	<g>
		<g>
			<g>
				<linearGradient id="SVGID_23_" gradientUnits="userSpaceOnUse" x1="177.6828" y1="1366.5249" x2="177.6828" y2="-7.9345">
					<stop  offset="0" style="stop-color:#5398AA"/>
					<stop  offset="1" style="stop-color:#1D9CB9"/>
				</linearGradient>
				<path class="st27" d="M177.7,504.1c-3.8,0-6.9-3.1-6.9-6.9v-12.9c0-3.8,3.1-6.9,6.9-6.9c3.8,0,6.9,3.1,6.9,6.9v12.9
					C184.5,501,181.5,504.1,177.7,504.1z"/>
			</g>
			<g>
				<linearGradient id="SVGID_24_" gradientUnits="userSpaceOnUse" x1="177.6828" y1="1366.5249" x2="177.6828" y2="-7.9345">
					<stop  offset="0" style="stop-color:#5398AA"/>
					<stop  offset="1" style="stop-color:#1D9CB9"/>
				</linearGradient>
				<path class="st28" d="M177.7,453.2c-3.8,0-6.9-3.1-6.9-6.9V423c0-3.8,3.1-6.9,6.9-6.9c3.8,0,6.9,3.1,6.9,6.9v23.4
					C184.5,450.2,181.5,453.2,177.7,453.2z M177.7,391.9c-3.8,0-6.9-3.1-6.9-6.9v-23.4c0-3.8,3.1-6.9,6.9-6.9c3.8,0,6.9,3.1,6.9,6.9
					v23.4C184.5,388.9,181.5,391.9,177.7,391.9z"/>
			</g>
			<g>
				<linearGradient id="SVGID_25_" gradientUnits="userSpaceOnUse" x1="177.6828" y1="1366.5249" x2="177.6828" y2="-7.9345">
					<stop  offset="0" style="stop-color:#5398AA"/>
					<stop  offset="1" style="stop-color:#1D9CB9"/>
				</linearGradient>
				<path class="st29" d="M177.7,329c-3.8,0-6.9-3.1-6.9-6.9V310c0-3.8,3.1-6.9,6.9-6.9c3.8,0,6.9,3.1,6.9,6.9v12.1
					C184.5,325.9,181.5,329,177.7,329z"/>
			</g>
		</g>
		<g>
			<g>
				<linearGradient id="SVGID_26_" gradientUnits="userSpaceOnUse" x1="177.6828" y1="1366.5249" x2="177.6828" y2="-7.9345">
					<stop  offset="0" style="stop-color:#5398AA"/>
					<stop  offset="1" style="stop-color:#1D9CB9"/>
				</linearGradient>
				<path class="st30" d="M177.7,734.8c-3.8,0-6.9-3.1-6.9-6.9v-12.9c0-3.8,3.1-6.9,6.9-6.9c3.8,0,6.9,3.1,6.9,6.9V728
					C184.5,731.7,181.5,734.8,177.7,734.8z"/>
			</g>
			<g>
				<linearGradient id="SVGID_27_" gradientUnits="userSpaceOnUse" x1="177.6828" y1="1366.5249" x2="177.6828" y2="-7.9345">
					<stop  offset="0" style="stop-color:#5398AA"/>
					<stop  offset="1" style="stop-color:#1D9CB9"/>
				</linearGradient>
				<path class="st31" d="M177.7,682.4c-3.8,0-6.9-3.1-6.9-6.9v-12.1c0-3.8,3.1-6.9,6.9-6.9c3.8,0,6.9,3.1,6.9,6.9v12.1
					C184.5,679.3,181.5,682.4,177.7,682.4z"/>
			</g>
		</g>
		<g>
			<g>
				<linearGradient id="SVGID_28_" gradientUnits="userSpaceOnUse" x1="186.6299" y1="1366.5249" x2="186.6299" y2="-7.9345">
					<stop  offset="0" style="stop-color:#5398AA"/>
					<stop  offset="1" style="stop-color:#1D9CB9"/>
				</linearGradient>
				<path class="st32" d="M156.8,635.3c-1,0-2-0.2-3-0.7c-2.4-1.1-3.9-3.5-3.9-6.2v-96c0-2.6,1.5-5,3.9-6.2c2.4-1.1,5.2-0.8,7.3,0.8
					l59.6,48c1.6,1.3,2.6,3.3,2.6,5.3s-0.9,4-2.6,5.3l-59.6,48C159.9,634.8,158.4,635.3,156.8,635.3z M163.7,546.7v67.3l41.8-33.7
					L163.7,546.7z"/>
			</g>
			<g>
				<linearGradient id="SVGID_29_" gradientUnits="userSpaceOnUse" x1="177.6828" y1="1366.5249" x2="177.6828" y2="-7.9345">
					<stop  offset="0" style="stop-color:#5398AA"/>
					<stop  offset="1" style="stop-color:#1D9CB9"/>
				</linearGradient>
				<path class="st33" d="M177.7,664.7c-46.5,0-84.3-37.8-84.3-84.3c0-46.5,37.8-84.3,84.3-84.3s84.3,37.8,84.3,84.3
					C262,626.9,224.2,664.7,177.7,664.7z M177.7,509.8c-38.9,0-70.6,31.7-70.6,70.6s31.7,70.6,70.6,70.6s70.6-31.7,70.6-70.6
					S216.6,509.8,177.7,509.8z"/>
			</g>
		</g>
	</g>
	<g>
		<linearGradient id="SVGID_30_" gradientUnits="userSpaceOnUse" x1="350.0215" y1="1366.5249" x2="350.0215" y2="-7.9345">
			<stop  offset="0" style="stop-color:#5398AA"/>
			<stop  offset="1" style="stop-color:#1D9CB9"/>
		</linearGradient>
		<path class="st34" d="M508.8,1262.3H191.2c-3.8,0-6.9-3.1-6.9-6.9V848.7c0-3.8,3.1-6.9,6.9-6.9H350c3.8,0,6.9,3.1,6.9,6.9
			c0,3.8-3.1,6.9-6.9,6.9H198.1v393h303.8V918.4c0-3.8,3.1-6.9,6.9-6.9c3.8,0,6.9,3.1,6.9,6.9v337.1
			C515.7,1259.2,512.6,1262.3,508.8,1262.3z"/>
	</g>
	<g>
		<linearGradient id="SVGID_31_" gradientUnits="userSpaceOnUse" x1="290.0659" y1="1366.5249" x2="290.0659" y2="-7.9345">
			<stop  offset="0" style="stop-color:#5398AA"/>
			<stop  offset="1" style="stop-color:#1D9CB9"/>
		</linearGradient>
		<path class="st35" d="M290.1,1022c-33.6,0-60.9-27.3-60.9-60.9c0-33.6,27.3-60.9,60.9-60.9s60.9,27.3,60.9,60.9
			C351,994.7,323.7,1022,290.1,1022z M290.1,913.9c-26,0-47.2,21.2-47.2,47.2c0,26,21.2,47.2,47.2,47.2c26,0,47.2-21.2,47.2-47.2
			C337.3,935.1,316.1,913.9,290.1,913.9z"/>
	</g>
	<g>
		<linearGradient id="SVGID_32_" gradientUnits="userSpaceOnUse" x1="408.8272" y1="1366.5249" x2="408.8272" y2="-7.9345">
			<stop  offset="0" style="stop-color:#5398AA"/>
			<stop  offset="1" style="stop-color:#1D9CB9"/>
		</linearGradient>
		<path class="st36" d="M430.6,968.4H387c-3.8,0-6.9-3.1-6.9-6.9s3.1-6.9,6.9-6.9h43.6c3.8,0,6.9,3.1,6.9,6.9
			S434.4,968.4,430.6,968.4z"/>
	</g>
	<g>
		<g>
			<linearGradient id="SVGID_33_" gradientUnits="userSpaceOnUse" x1="350.3352" y1="1366.5249" x2="350.3352" y2="-7.9345">
				<stop  offset="0" style="stop-color:#5398AA"/>
				<stop  offset="1" style="stop-color:#1D9CB9"/>
			</linearGradient>
			<path class="st37" d="M430.6,1082.1H270.1c-3.8,0-6.9-3.1-6.9-6.9c0-3.8,3.1-6.9,6.9-6.9h160.6c3.8,0,6.9,3.1,6.9,6.9
				C437.5,1079.1,434.4,1082.1,430.6,1082.1z"/>
		</g>
		<g>
			<linearGradient id="SVGID_34_" gradientUnits="userSpaceOnUse" x1="350.3352" y1="1366.5249" x2="350.3352" y2="-7.9345">
				<stop  offset="0" style="stop-color:#5398AA"/>
				<stop  offset="1" style="stop-color:#1D9CB9"/>
			</linearGradient>
			<path class="st38" d="M430.6,1180.6H270.1c-3.8,0-6.9-3.1-6.9-6.9c0-3.8,3.1-6.9,6.9-6.9h160.6c3.8,0,6.9,3.1,6.9,6.9
				C437.5,1177.5,434.4,1180.6,430.6,1180.6z"/>
		</g>
	</g>
	<g>
		<linearGradient id="SVGID_35_" gradientUnits="userSpaceOnUse" x1="1208.4176" y1="1366.5249" x2="1208.4176" y2="-7.9345">
			<stop  offset="0" style="stop-color:#5398AA"/>
			<stop  offset="1" style="stop-color:#1D9CB9"/>
		</linearGradient>
		<path class="st39" d="M1355.8,1239.9h-294.7c-9.7,0-17.6-7.9-17.6-17.6v-97.2c0-9.7,7.9-17.6,17.6-17.6h20.1l-2.2-33
			c-0.2-2.8,1.3-5.3,3.8-6.6c2.5-1.2,5.4-0.9,7.5,0.9l45.4,38.7h220.1c9.7,0,17.6,7.9,17.6,17.6v97.2
			C1373.3,1232,1365.5,1239.9,1355.8,1239.9z M1061.1,1121.3c-2.1,0-3.8,1.7-3.8,3.8v97.2c0,2.1,1.7,3.8,3.8,3.8h294.7
			c2.1,0,3.8-1.7,3.8-3.8v-97.2c0-2.1-1.7-3.8-3.8-3.8h-222.6c-1.6,0-3.2-0.6-4.4-1.6l-35-29.8l1.6,24.1c0.1,1.9-0.5,3.8-1.8,5.1
			c-1.3,1.4-3.1,2.2-5,2.2H1061.1z"/>
	</g>
	<g>
		<linearGradient id="SVGID_36_" gradientUnits="userSpaceOnUse" x1="1203.9158" y1="1366.5249" x2="1203.9158" y2="-7.9345">
			<stop  offset="0" style="stop-color:#5398AA"/>
			<stop  offset="1" style="stop-color:#1D9CB9"/>
		</linearGradient>
		<path class="st40" d="M1322.1,1161.2h-236.4c-3.8,0-6.9-3.1-6.9-6.9c0-3.8,3.1-6.9,6.9-6.9h236.4c3.8,0,6.9,3.1,6.9,6.9
			C1329,1158.1,1325.9,1161.2,1322.1,1161.2z"/>
	</g>
	<g>
		<linearGradient id="SVGID_37_" gradientUnits="userSpaceOnUse" x1="1144.6169" y1="1366.5249" x2="1144.6169" y2="-7.9345">
			<stop  offset="0" style="stop-color:#5398AA"/>
			<stop  offset="1" style="stop-color:#1D9CB9"/>
		</linearGradient>
		<path class="st41" d="M1203.5,1200.7h-117.8c-3.8,0-6.9-3.1-6.9-6.9c0-3.8,3.1-6.9,6.9-6.9h117.8c3.8,0,6.9,3.1,6.9,6.9
			C1210.4,1197.7,1207.3,1200.7,1203.5,1200.7z"/>
	</g>
	<g>
		<linearGradient id="SVGID_38_" gradientUnits="userSpaceOnUse" x1="1081.2842" y1="1366.5249" x2="1081.2842" y2="-7.9345">
			<stop  offset="0" style="stop-color:#5398AA"/>
			<stop  offset="1" style="stop-color:#1D9CB9"/>
		</linearGradient>
		<path class="st42" d="M1203.5,285.8H959.1c-3.8,0-6.9-3.1-6.9-6.9s3.1-6.9,6.9-6.9h244.5c3.8,0,6.9,3.1,6.9,6.9
			S1207.3,285.8,1203.5,285.8z"/>
	</g>
	<g>
		<linearGradient id="SVGID_39_" gradientUnits="userSpaceOnUse" x1="1255.5502" y1="1366.5249" x2="1255.5502" y2="-7.9345">
			<stop  offset="0" style="stop-color:#5398AA"/>
			<stop  offset="1" style="stop-color:#1D9CB9"/>
		</linearGradient>
		<path class="st43" d="M1366.5,385.1h-221.9c-3.8,0-6.9-3.1-6.9-6.9c0-3.8,3.1-6.9,6.9-6.9h221.9c3.8,0,6.9,3.1,6.9,6.9
			C1373.3,382,1370.3,385.1,1366.5,385.1z"/>
	</g>
	<g>
		<linearGradient id="SVGID_40_" gradientUnits="userSpaceOnUse" x1="486.6822" y1="1366.5249" x2="486.6822" y2="-7.9345">
			<stop  offset="0" style="stop-color:#5398AA"/>
			<stop  offset="1" style="stop-color:#1D9CB9"/>
		</linearGradient>
		<path class="st44" d="M542.8,615.8H430.6c-3.8,0-6.9-3.1-6.9-6.9s3.1-6.9,6.9-6.9h112.1c3.8,0,6.9,3.1,6.9,6.9
			S546.5,615.8,542.8,615.8z"/>
	</g>
	<g>
		<g>
			<linearGradient id="SVGID_41_" gradientUnits="userSpaceOnUse" x1="480.2279" y1="1366.5249" x2="480.2279" y2="-7.9345">
				<stop  offset="0" style="stop-color:#5398AA"/>
				<stop  offset="1" style="stop-color:#1D9CB9"/>
			</linearGradient>
			<path class="st45" d="M536.3,615.8H424.2c-3.8,0-6.9-3.1-6.9-6.9s3.1-6.9,6.9-6.9h112.1c3.8,0,6.9,3.1,6.9,6.9
				S540.1,615.8,536.3,615.8z"/>
		</g>
		<g>
			<linearGradient id="SVGID_42_" gradientUnits="userSpaceOnUse" x1="953.005" y1="1366.5249" x2="953.005" y2="-7.9345">
				<stop  offset="0" style="stop-color:#5398AA"/>
				<stop  offset="1" style="stop-color:#1D9CB9"/>
			</linearGradient>
			<path class="st46" d="M1009.1,615.8H896.9c-3.8,0-6.9-3.1-6.9-6.9s3.1-6.9,6.9-6.9h112.1c3.8,0,6.9,3.1,6.9,6.9
				S1012.9,615.8,1009.1,615.8z"/>
		</g>
	</g>
	<g>
		<linearGradient id="SVGID_43_" gradientUnits="userSpaceOnUse" x1="1188.3969" y1="1366.5249" x2="1188.3969" y2="-7.9345">
			<stop  offset="0" style="stop-color:#5398AA"/>
			<stop  offset="1" style="stop-color:#1D9CB9"/>
		</linearGradient>
		<path class="st47" d="M1188.4,776.3c-13,0-23.6-10.6-23.6-23.6s10.6-23.6,23.6-23.6c13,0,23.6,10.6,23.6,23.6
			S1201.4,776.3,1188.4,776.3z M1188.4,742.8c-5.4,0-9.9,4.4-9.9,9.9s4.4,9.9,9.9,9.9c5.4,0,9.9-4.4,9.9-9.9
			S1193.8,742.8,1188.4,742.8z"/>
	</g>
	<g>
		<linearGradient id="SVGID_44_" gradientUnits="userSpaceOnUse" x1="1285.6034" y1="1366.5249" x2="1285.6034" y2="-7.9345">
			<stop  offset="0" style="stop-color:#5398AA"/>
			<stop  offset="1" style="stop-color:#1D9CB9"/>
		</linearGradient>
		<path class="st48" d="M1285.6,498.8c-13,0-23.6-10.6-23.6-23.6c0-13,10.6-23.6,23.6-23.6c13,0,23.6,10.6,23.6,23.6
			C1309.2,488.2,1298.6,498.8,1285.6,498.8z M1285.6,465.3c-5.4,0-9.9,4.4-9.9,9.9c0,5.4,4.4,9.9,9.9,9.9c5.4,0,9.9-4.4,9.9-9.9
			C1295.5,469.7,1291.1,465.3,1285.6,465.3z"/>
	</g>
	<g>
		<g>
			<linearGradient id="SVGID_45_" gradientUnits="userSpaceOnUse" x1="1196.6547" y1="1366.5249" x2="1196.6547" y2="-7.9345">
				<stop  offset="0" style="stop-color:#5398AA"/>
				<stop  offset="1" style="stop-color:#1D9CB9"/>
			</linearGradient>
			<path class="st49" d="M1196.7,999.4c-3.8,0-6.9-3.1-6.9-6.9v-33.1c0-3.8,3.1-6.9,6.9-6.9s6.9,3.1,6.9,6.9v33.1
				C1203.5,996.4,1200.4,999.4,1196.7,999.4z"/>
		</g>
		<g>
			<linearGradient id="SVGID_46_" gradientUnits="userSpaceOnUse" x1="1196.6547" y1="1366.5249" x2="1196.6547" y2="-7.9345">
				<stop  offset="0" style="stop-color:#5398AA"/>
				<stop  offset="1" style="stop-color:#1D9CB9"/>
			</linearGradient>
			<path class="st50" d="M1213.2,982.9h-33.1c-3.8,0-6.9-3.1-6.9-6.9s3.1-6.9,6.9-6.9h33.1c3.8,0,6.9,3.1,6.9,6.9
				S1217,982.9,1213.2,982.9z"/>
		</g>
	</g>
	<g>
		<g>
			<linearGradient id="SVGID_47_" gradientUnits="userSpaceOnUse" x1="1312.0253" y1="1366.5249" x2="1312.0253" y2="-7.9345">
				<stop  offset="0" style="stop-color:#5398AA"/>
				<stop  offset="1" style="stop-color:#1D9CB9"/>
			</linearGradient>
			<path class="st51" d="M1312,640.4c-3.8,0-6.9-3.1-6.9-6.9v-33.1c0-3.8,3.1-6.9,6.9-6.9c3.8,0,6.9,3.1,6.9,6.9v33.1
				C1318.9,637.4,1315.8,640.4,1312,640.4z"/>
		</g>
		<g>
			<linearGradient id="SVGID_48_" gradientUnits="userSpaceOnUse" x1="1312.0253" y1="1366.5249" x2="1312.0253" y2="-7.9345">
				<stop  offset="0" style="stop-color:#5398AA"/>
				<stop  offset="1" style="stop-color:#1D9CB9"/>
			</linearGradient>
			<path class="st52" d="M1328.6,623.9h-33.1c-3.8,0-6.9-3.1-6.9-6.9s3.1-6.9,6.9-6.9h33.1c3.8,0,6.9,3.1,6.9,6.9
				S1332.4,623.9,1328.6,623.9z"/>
		</g>
	</g>
	<g>
		<g>
			<linearGradient id="SVGID_49_" gradientUnits="userSpaceOnUse" x1="798.1019" y1="1366.5249" x2="798.1019" y2="-7.9345">
				<stop  offset="0" style="stop-color:#5398AA"/>
				<stop  offset="1" style="stop-color:#1D9CB9"/>
			</linearGradient>
			<path class="st53" d="M798.1,333c-3.8,0-6.9-3.1-6.9-6.9v-33.1c0-3.8,3.1-6.9,6.9-6.9c3.8,0,6.9,3.1,6.9,6.9v33.1
				C805,330,801.9,333,798.1,333z"/>
		</g>
		<g>
			<linearGradient id="SVGID_50_" gradientUnits="userSpaceOnUse" x1="798.1019" y1="1366.5249" x2="798.1019" y2="-7.9345">
				<stop  offset="0" style="stop-color:#5398AA"/>
				<stop  offset="1" style="stop-color:#1D9CB9"/>
			</linearGradient>
			<path class="st54" d="M814.6,316.5h-33.1c-3.8,0-6.9-3.1-6.9-6.9s3.1-6.9,6.9-6.9h33.1c3.8,0,6.9,3.1,6.9,6.9
				S818.4,316.5,814.6,316.5z"/>
		</g>
	</g>
</g>
<g id="EXPERIENCE">
</g>
<g id="CREATIVITY">
</g>
<g id="WEBINAR">
</g>
<g id="COACHING">
</g>
</svg>
