<?xml version="1.0" encoding="utf-8"?>
<!-- Generator: Adobe Illustrator 22.0.1, SVG Export Plug-In . SVG Version: 6.00 Build 0)  -->
<svg version="1.1" xmlns="http://www.w3.org/2000/svg" xmlns:xlink="http://www.w3.org/1999/xlink" x="0px" y="0px"
	 viewBox="0 0 1427.4 1122.4" style="enable-background:new 0 0 1427.4 1122.4;" xml:space="preserve">
<style type="text/css">
	.st0{display:none;}
	.st1{display:inline;}
	.st2{fill:#FBD471;}
	.st3{fill:#98E5ED;}
	.st4{fill:#E3EAE5;}
	.st5{fill:url(#SVGID_1_);}
	.st6{fill:url(#SVGID_2_);}
	.st7{fill:url(#SVGID_3_);}
	.st8{fill:url(#SVGID_4_);}
	.st9{fill:url(#SVGID_5_);}
	.st10{fill:url(#SVGID_6_);}
	.st11{fill:url(#SVGID_7_);}
	.st12{fill:url(#SVGID_8_);}
	.st13{fill:url(#SVGID_9_);}
	.st14{fill:url(#SVGID_10_);}
	.st15{fill:url(#SVGID_11_);}
	.st16{fill:url(#SVGID_12_);}
	.st17{fill:url(#SVGID_13_);}
	.st18{fill:url(#SVGID_14_);}
	.st19{fill:url(#SVGID_15_);}
	.st20{fill:url(#SVGID_16_);}
	.st21{fill:url(#SVGID_17_);}
	.st22{fill:url(#SVGID_18_);}
	.st23{fill:url(#SVGID_19_);}
	.st24{fill:url(#SVGID_20_);}
	.st25{fill:url(#SVGID_21_);}
	.st26{fill:url(#SVGID_22_);}
	.st27{fill:url(#SVGID_23_);}
	.st28{fill:url(#SVGID_24_);}
	.st29{fill:url(#SVGID_25_);}
	.st30{fill:url(#SVGID_26_);}
	.st31{fill:url(#SVGID_27_);}
	.st32{fill:url(#SVGID_28_);}
	.st33{fill:url(#SVGID_29_);}
	.st34{fill:url(#SVGID_30_);}
	.st35{fill:url(#SVGID_31_);}
	.st36{fill:url(#SVGID_32_);}
	.st37{fill:url(#SVGID_33_);}
	.st38{fill:url(#SVGID_34_);}
	.st39{fill:url(#SVGID_35_);}
	.st40{fill:url(#SVGID_36_);}
	.st41{fill:url(#SVGID_37_);}
	.st42{fill:url(#SVGID_38_);}
	.st43{fill:url(#SVGID_39_);}
	.st44{fill:url(#SVGID_40_);}
	.st45{fill:url(#SVGID_41_);}
	.st46{fill:url(#SVGID_42_);}
	.st47{fill:url(#SVGID_43_);}
	.st48{fill:url(#SVGID_44_);}
	.st49{fill:url(#SVGID_45_);}
	.st50{fill:url(#SVGID_46_);}
	.st51{fill:url(#SVGID_47_);}
	.st52{fill:url(#SVGID_48_);}
	.st53{fill:url(#SVGID_49_);}
	.st54{fill:url(#SVGID_50_);}
	.st55{fill:url(#SVGID_51_);}
	.st56{fill:url(#SVGID_52_);}
	.st57{fill:url(#SVGID_53_);}
	.st58{fill:url(#SVGID_54_);}
	.st59{fill:url(#SVGID_55_);}
	.st60{fill:url(#SVGID_56_);}
	.st61{fill:url(#SVGID_57_);}
	.st62{fill:url(#SVGID_58_);}
	.st63{fill:url(#SVGID_59_);}
	.st64{fill:url(#SVGID_60_);}
	.st65{fill:url(#SVGID_61_);}
	.st66{fill:url(#SVGID_62_);}
	.st67{fill:url(#SVGID_63_);}
	.st68{fill:url(#SVGID_64_);}
	.st69{fill:url(#SVGID_65_);}
	.st70{fill:url(#SVGID_66_);}
	.st71{fill:url(#SVGID_67_);}
	.st72{fill:url(#SVGID_68_);}
	.st73{fill:url(#SVGID_69_);}
	.st74{fill:url(#SVGID_70_);}
	.st75{fill:url(#SVGID_71_);}
	.st76{fill:url(#SVGID_72_);}
	.st77{fill:url(#SVGID_73_);}
	.st78{fill:url(#SVGID_74_);}
	.st79{fill:url(#SVGID_75_);}
	.st80{fill:url(#SVGID_76_);}
	.st81{fill:url(#SVGID_77_);}
	.st82{fill:url(#SVGID_78_);}
	.st83{fill:url(#SVGID_79_);}
	.st84{fill:url(#SVGID_80_);}
	.st85{fill:url(#SVGID_81_);}
	.st86{fill:url(#SVGID_82_);}
	.st87{fill:url(#SVGID_83_);}
	.st88{fill:url(#SVGID_84_);}
	.st89{fill:url(#SVGID_85_);}
	.st90{fill:url(#SVGID_86_);}
	.st91{fill:url(#SVGID_87_);}
	.st92{fill:url(#SVGID_88_);}
	.st93{fill:url(#SVGID_89_);}
	.st94{fill:url(#SVGID_90_);}
	.st95{fill:url(#SVGID_91_);}
	.st96{fill:url(#SVGID_92_);}
	.st97{fill:url(#SVGID_93_);}
	.st98{fill:url(#SVGID_94_);}
	.st99{fill:url(#SVGID_95_);}
	.st100{fill:url(#SVGID_96_);}
	.st101{fill:url(#SVGID_97_);}
	.st102{fill:url(#SVGID_98_);}
	.st103{fill:url(#SVGID_99_);}
	.st104{fill:url(#SVGID_100_);}
	.st105{fill:url(#SVGID_101_);}
	.st106{fill:url(#SVGID_102_);}
	.st107{fill:url(#SVGID_103_);}
	.st108{fill:url(#SVGID_104_);}
	.st109{fill:url(#SVGID_105_);}
	.st110{fill:url(#SVGID_106_);}
	.st111{fill:url(#SVGID_107_);}
	.st112{fill:url(#SVGID_108_);}
	.st113{fill:url(#SVGID_109_);}
	.st114{fill:url(#SVGID_110_);}
	.st115{fill:url(#SVGID_111_);}
	.st116{fill:url(#SVGID_112_);}
	.st117{fill:url(#SVGID_113_);}
	.st118{fill:url(#SVGID_114_);}
	.st119{fill:url(#SVGID_115_);}
	.st120{fill:url(#SVGID_116_);}
	.st121{fill:url(#SVGID_117_);}
	.st122{fill:url(#SVGID_118_);}
	.st123{fill:url(#SVGID_119_);}
	.st124{fill:url(#SVGID_120_);}
	.st125{fill:url(#SVGID_121_);}
	.st126{fill:url(#SVGID_122_);}
	.st127{fill:url(#SVGID_123_);}
	.st128{fill:url(#SVGID_124_);}
	.st129{fill:url(#SVGID_125_);}
	.st130{fill:url(#SVGID_126_);}
	.st131{fill:url(#SVGID_127_);}
	.st132{fill:url(#SVGID_128_);}
	.st133{fill:url(#SVGID_129_);}
	.st134{fill:url(#SVGID_130_);}
	.st135{fill:url(#SVGID_131_);}
	.st136{fill:url(#SVGID_132_);}
	.st137{fill:url(#SVGID_133_);}
	.st138{fill:url(#SVGID_134_);}
	.st139{fill:url(#SVGID_135_);}
	.st140{fill:url(#SVGID_136_);}
	.st141{fill:url(#SVGID_137_);}
	.st142{fill:url(#SVGID_138_);}
	.st143{fill:url(#SVGID_139_);}
	.st144{fill:url(#SVGID_140_);}
	.st145{fill:url(#SVGID_141_);}
	.st146{fill:url(#SVGID_142_);}
	.st147{fill:url(#SVGID_143_);}
	.st148{fill:url(#SVGID_144_);}
	.st149{fill:url(#SVGID_145_);}
	.st150{fill:url(#SVGID_146_);}
	.st151{fill:url(#SVGID_147_);}
	.st152{fill:url(#SVGID_148_);}
	.st153{fill:url(#SVGID_149_);}
	.st154{fill:url(#SVGID_150_);}
	.st155{fill:url(#SVGID_151_);}
	.st156{fill:url(#SVGID_152_);}
	.st157{fill:url(#SVGID_153_);}
	.st158{fill:url(#SVGID_154_);}
	.st159{fill:url(#SVGID_155_);}
	.st160{fill:url(#SVGID_156_);}
	.st161{fill:url(#SVGID_157_);}
	.st162{fill:url(#SVGID_158_);}
	.st163{fill:url(#SVGID_159_);}
	.st164{fill:url(#SVGID_160_);}
	.st165{fill:url(#SVGID_161_);}
	.st166{fill:url(#SVGID_162_);}
	.st167{fill:url(#SVGID_163_);}
	.st168{fill:url(#SVGID_164_);}
	.st169{fill:url(#SVGID_165_);}
	.st170{fill:url(#SVGID_166_);}
	.st171{fill:url(#SVGID_167_);}
	.st172{fill:url(#SVGID_168_);}
	.st173{fill:url(#SVGID_169_);}
	.st174{fill:url(#SVGID_170_);}
	.st175{fill:url(#SVGID_171_);}
	.st176{fill:url(#SVGID_172_);}
	.st177{fill:url(#SVGID_173_);}
	.st178{fill:url(#SVGID_174_);}
	.st179{fill:url(#SVGID_175_);}
	.st180{fill:url(#SVGID_176_);}
	.st181{fill:url(#SVGID_177_);}
	.st182{fill:url(#SVGID_178_);}
	.st183{fill:url(#SVGID_179_);}
	.st184{fill:url(#SVGID_180_);}
	.st185{fill:url(#SVGID_181_);}
	.st186{fill:url(#SVGID_182_);}
	.st187{fill:url(#SVGID_183_);}
	.st188{fill:url(#SVGID_184_);}
	.st189{fill:url(#SVGID_185_);}
	.st190{fill:url(#SVGID_186_);}
	.st191{fill:url(#SVGID_187_);}
	.st192{fill:url(#SVGID_188_);}
	.st193{fill:url(#SVGID_189_);}
	.st194{fill:url(#SVGID_190_);}
	.st195{fill:url(#SVGID_191_);}
	.st196{fill:url(#SVGID_192_);}
	.st197{fill:url(#SVGID_193_);}
	.st198{fill:url(#SVGID_194_);}
	.st199{fill:url(#SVGID_195_);}
	.st200{fill:url(#SVGID_196_);}
	.st201{fill:url(#SVGID_197_);}
	.st202{fill:url(#SVGID_198_);}
	.st203{fill:url(#SVGID_199_);}
	.st204{fill:url(#SVGID_200_);}
	.st205{fill:url(#SVGID_201_);}
	.st206{fill:url(#SVGID_202_);}
	.st207{fill:url(#SVGID_203_);}
	.st208{fill:url(#SVGID_204_);}
	.st209{fill:url(#SVGID_205_);}
	.st210{fill:url(#SVGID_206_);}
	.st211{fill:url(#SVGID_207_);}
	.st212{fill:url(#SVGID_208_);}
	.st213{fill:url(#SVGID_209_);}
	.st214{fill:url(#SVGID_210_);}
	.st215{fill:url(#SVGID_211_);}
	.st216{fill:url(#SVGID_212_);}
	.st217{fill:url(#SVGID_213_);}
	.st218{fill:url(#SVGID_214_);}
	.st219{fill:url(#SVGID_215_);}
	.st220{fill:url(#SVGID_216_);}
	.st221{fill:url(#SVGID_217_);}
	.st222{fill:url(#SVGID_218_);}
	.st223{fill:url(#SVGID_219_);}
	.st224{fill:url(#SVGID_220_);}
	.st225{fill:url(#SVGID_221_);}
	.st226{fill:url(#SVGID_222_);}
	.st227{fill:url(#SVGID_223_);}
	.st228{fill:url(#SVGID_224_);}
	.st229{fill:url(#SVGID_225_);}
	.st230{fill:url(#SVGID_226_);}
	.st231{fill:url(#SVGID_227_);}
	.st232{fill:url(#SVGID_228_);}
	.st233{fill:url(#SVGID_229_);}
	.st234{fill:url(#SVGID_230_);}
	.st235{fill:url(#SVGID_231_);}
	.st236{fill:url(#SVGID_232_);}
	.st237{fill:url(#SVGID_233_);}
	.st238{fill:url(#SVGID_234_);}
	.st239{fill:url(#SVGID_235_);}
	.st240{fill:url(#SVGID_236_);}
	.st241{fill:url(#SVGID_237_);}
	.st242{fill:url(#SVGID_238_);}
	.st243{fill:url(#SVGID_239_);}
	.st244{fill:url(#SVGID_240_);}
	.st245{fill:url(#SVGID_241_);}
	.st246{fill:url(#SVGID_242_);}
	.st247{fill:url(#SVGID_243_);}
	.st248{fill:url(#SVGID_244_);}
	.st249{fill:url(#SVGID_245_);}
	.st250{fill:url(#SVGID_246_);}
	.st251{fill:url(#SVGID_247_);}
	.st252{fill:url(#SVGID_248_);}
	.st253{fill:url(#SVGID_249_);}
	.st254{fill:url(#SVGID_250_);}
	.st255{fill:url(#SVGID_251_);}
	.st256{fill:url(#SVGID_252_);}
	.st257{fill:url(#SVGID_253_);}
	.st258{fill:url(#SVGID_254_);}
	.st259{fill:url(#SVGID_255_);}
	.st260{fill:url(#SVGID_256_);}
	.st261{fill:url(#SVGID_257_);}
	.st262{fill:url(#SVGID_258_);}
	.st263{fill:url(#SVGID_259_);}
	.st264{fill:url(#SVGID_260_);}
	.st265{fill:url(#SVGID_261_);}
	.st266{fill:url(#SVGID_262_);}
	.st267{fill:url(#SVGID_263_);}
	.st268{fill:url(#SVGID_264_);}
	.st269{fill:url(#SVGID_265_);}
	.st270{fill:url(#SVGID_266_);}
	.st271{fill:url(#SVGID_267_);}
	.st272{fill:url(#SVGID_268_);}
	.st273{fill:url(#SVGID_269_);}
	.st274{fill:url(#SVGID_270_);}
</style>
<g id="Layer_2">
</g>
<g id="Layer_1">
</g>
<g id="Color" class="st0">
	<g class="st1">
		<g>
			<polygon class="st4" points="996.5,560.7 896.5,560.7 896.5,808.2 996.5,808.2 996.5,779.2 1016.5,753.2 996.5,740.2 			"/>
		</g>
	</g>
</g>
<g id="DEVELOPMENT">
	<g>
		<g>
			<g>
				<linearGradient id="SVGID_1_" gradientUnits="userSpaceOnUse" x1="707.7375" y1="1172.0085" x2="707.7375" y2="44.8166">
					<stop  offset="0" style="stop-color:#5398AA"/>
					<stop  offset="1" style="stop-color:#1D9CB9"/>
				</linearGradient>
				<path class="st5" d="M1090.1,793.5H325.4c-26.9,0-48.8-21.9-48.8-48.8V263.8c0-26.9,21.9-48.8,48.8-48.8h764.8
					c26.9,0,48.8,21.9,48.8,48.8v480.8C1138.9,771.6,1117,793.5,1090.1,793.5z M325.4,228.7c-19.4,0-35.1,15.7-35.1,35.1v480.8
					c0,19.4,15.7,35.1,35.1,35.1h764.8c19.4,0,35.1-15.7,35.1-35.1V263.8c0-19.4-15.7-35.1-35.1-35.1H325.4z"/>
			</g>
		</g>
		<g>
			<g>
				<linearGradient id="SVGID_2_" gradientUnits="userSpaceOnUse" x1="707.7375" y1="1172.0085" x2="707.7375" y2="44.8166">
					<stop  offset="0" style="stop-color:#5398AA"/>
					<stop  offset="1" style="stop-color:#1D9CB9"/>
				</linearGradient>
				<path class="st6" d="M1099.8,698.7c-3.8,0-6.9-3.1-6.9-6.9V267.4c0-3.5-2.9-6.4-6.4-6.4H328.9c-3.5,0-6.4,2.9-6.4,6.4v424.5
					c0,3.8-3.1,6.9-6.9,6.9c-3.8,0-6.9-3.1-6.9-6.9V267.4c0-11.1,9-20.1,20.1-20.1h757.7c11.1,0,20.1,9,20.1,20.1v424.5
					C1106.7,695.6,1103.6,698.7,1099.8,698.7z"/>
			</g>
		</g>
		<g>
			<g>
				<linearGradient id="SVGID_3_" gradientUnits="userSpaceOnUse" x1="707.7375" y1="1172.0085" x2="707.7375" y2="44.8166">
					<stop  offset="0" style="stop-color:#5398AA"/>
					<stop  offset="1" style="stop-color:#1D9CB9"/>
				</linearGradient>
				<path class="st7" d="M798.8,951.5H616.7c-3.8,0-6.9-3.1-6.9-6.9v-158c0-3.8,3.1-6.9,6.9-6.9h182.2c3.8,0,6.9,3.1,6.9,6.9v158
					C805.7,948.4,802.6,951.5,798.8,951.5z M623.5,937.7H792V793.5H623.5V937.7z"/>
			</g>
		</g>
		<g>
			<g>
				<linearGradient id="SVGID_4_" gradientUnits="userSpaceOnUse" x1="707.64" y1="1172.0085" x2="707.64" y2="44.8166">
					<stop  offset="0" style="stop-color:#5398AA"/>
					<stop  offset="1" style="stop-color:#1D9CB9"/>
				</linearGradient>
				<path class="st8" d="M874.2,951.1H541c-3.8,0-6.9-3.1-6.9-6.9c0-3.8,3.1-6.9,6.9-6.9h333.2c3.8,0,6.9,3.1,6.9,6.9
					C881.1,948.1,878,951.1,874.2,951.1z"/>
			</g>
		</g>
		<g>
			<g>
				<linearGradient id="SVGID_5_" gradientUnits="userSpaceOnUse" x1="704.0095" y1="1172.0085" x2="704.0095" y2="44.8166">
					<stop  offset="0" style="stop-color:#5398AA"/>
					<stop  offset="1" style="stop-color:#1D9CB9"/>
				</linearGradient>
				<path class="st9" d="M1124.3,700.2H283.7c-3.8,0-6.9-3.1-6.9-6.9s3.1-6.9,6.9-6.9h840.7c3.8,0,6.9,3.1,6.9,6.9
					S1128.1,700.2,1124.3,700.2z"/>
			</g>
		</g>
		<g>
			<g>
				<linearGradient id="SVGID_6_" gradientUnits="userSpaceOnUse" x1="704.0095" y1="1172.0085" x2="704.0095" y2="44.8166">
					<stop  offset="0" style="stop-color:#5398AA"/>
					<stop  offset="1" style="stop-color:#1D9CB9"/>
				</linearGradient>
				<path class="st10" d="M704,762.4c-12.2,0-22.2-10-22.2-22.2c0-12.2,10-22.2,22.2-22.2c12.2,0,22.2,10,22.2,22.2
					C726.2,752.5,716.2,762.4,704,762.4z M704,731.8c-4.7,0-8.5,3.8-8.5,8.5c0,4.7,3.8,8.5,8.5,8.5s8.5-3.8,8.5-8.5
					C712.5,735.6,708.7,731.8,704,731.8z"/>
			</g>
		</g>
	</g>
	<g>
		<g>
			<g>
				<linearGradient id="SVGID_7_" gradientUnits="userSpaceOnUse" x1="708.3503" y1="1172.0085" x2="708.3503" y2="44.8166">
					<stop  offset="0" style="stop-color:#5398AA"/>
					<stop  offset="1" style="stop-color:#1D9CB9"/>
				</linearGradient>
				<path class="st11" d="M708.4,698.8c-59.5,0-115.5-23.2-157.5-65.3c-42.1-42.1-65.3-98-65.3-157.5c0-59.5,23.2-115.5,65.3-157.5
					c42.1-42.1,98-65.3,157.5-65.3c59.5,0,115.5,23.2,157.5,65.3c42.1,42.1,65.3,98,65.3,157.5c0,59.5-23.2,115.5-65.3,157.5
					C823.8,675.7,767.9,698.8,708.4,698.8z M708.4,267c-115.3,0-209.1,93.8-209.1,209.1s93.8,209.1,209.1,209.1
					S917.4,591.3,917.4,476S823.6,267,708.4,267z"/>
			</g>
		</g>
		<g>
			<g>
				<g>
					<linearGradient id="SVGID_8_" gradientUnits="userSpaceOnUse" x1="730.923" y1="1172.0085" x2="730.923" y2="44.8166">
						<stop  offset="0" style="stop-color:#5398AA"/>
						<stop  offset="1" style="stop-color:#1D9CB9"/>
					</linearGradient>
					<path class="st12" d="M708.1,698.9c-1,0-1.9-0.2-2.8-0.6c-3.4-1.6-5-5.6-3.4-9.1c59.7-131.1,59.7-274.7-0.1-426.5
						c-1.4-3.5,0.3-7.5,3.9-8.9c3.5-1.4,7.5,0.3,8.9,3.9c30.6,77.6,46.1,153.8,46.1,226.3c0,72.6-15.6,143.6-46.2,211
						C713.2,697.4,710.7,698.9,708.1,698.9z"/>
				</g>
			</g>
			<g>
				<g>
					<linearGradient id="SVGID_9_" gradientUnits="userSpaceOnUse" x1="680.8511" y1="1172.0085" x2="680.8511" y2="44.8166">
						<stop  offset="0" style="stop-color:#5398AA"/>
						<stop  offset="1" style="stop-color:#1D9CB9"/>
					</linearGradient>
					<path class="st13" d="M703.7,698.9c-2.6,0-5.1-1.5-6.2-4c-30.7-67.4-46.2-138.3-46.2-211c0-72.5,15.5-148.6,46.1-226.3
						c1.4-3.5,5.4-5.3,8.9-3.9c3.5,1.4,5.3,5.4,3.9,8.9c-59.8,151.9-59.9,295.4-0.1,426.5c1.6,3.4,0,7.5-3.4,9.1
						C705.6,698.7,704.6,698.9,703.7,698.9z"/>
				</g>
			</g>
		</g>
		<g>
			<g>
				<g>
					<linearGradient id="SVGID_10_" gradientUnits="userSpaceOnUse" x1="782.8729" y1="1172.0085" x2="782.8729" y2="44.8166">
						<stop  offset="0" style="stop-color:#5398AA"/>
						<stop  offset="1" style="stop-color:#1D9CB9"/>
					</linearGradient>
					<path class="st14" d="M710.9,699c-3.8,0-6.9-3.1-6.9-6.9c0-3.8,3.1-6.9,6.9-6.9c53,0,84.8-34.9,102.1-64.2
						c22.6-38.2,35-89.7,35-145.2s-12.4-107-35-145.2c-17.3-29.3-49.1-64.2-102.1-64.2c-3.8,0-6.9-3.1-6.9-6.9
						c0-3.8,3.1-6.9,6.9-6.9c47,0,86.4,24.5,113.9,70.9c23.8,40.3,37,94.3,37,152.1s-13.1,111.9-37,152.1
						C797.3,674.5,757.9,699,710.9,699z"/>
				</g>
			</g>
			<g>
				<g>
					<linearGradient id="SVGID_11_" gradientUnits="userSpaceOnUse" x1="634.0207" y1="1172.0085" x2="634.0207" y2="44.8166">
						<stop  offset="0" style="stop-color:#5398AA"/>
						<stop  offset="1" style="stop-color:#1D9CB9"/>
					</linearGradient>
					<path class="st15" d="M706,699c-47,0-86.4-24.5-113.9-70.9c-23.8-40.3-37-94.3-37-152.1s13.1-111.9,37-152.1
						c27.5-46.4,66.9-70.9,113.9-70.9c3.8,0,6.9,3.1,6.9,6.9c0,3.8-3.1,6.9-6.9,6.9c-53,0-84.8,34.9-102.1,64.2
						c-22.6,38.2-35,89.7-35,145.2s12.4,107,35,145.2c17.3,29.3,49.1,64.2,102.1,64.2c3.8,0,6.9,3.1,6.9,6.9
						C712.9,695.9,709.8,699,706,699z"/>
				</g>
			</g>
		</g>
		<g>
			<g>
				<linearGradient id="SVGID_12_" gradientUnits="userSpaceOnUse" x1="708.8502" y1="1172.0085" x2="708.8502" y2="44.8166">
					<stop  offset="0" style="stop-color:#5398AA"/>
					<stop  offset="1" style="stop-color:#1D9CB9"/>
				</linearGradient>
				<path class="st16" d="M708.9,483c-56.4,0-109.1-2.2-148.2-6.2c-21.3-2.2-38-4.9-49.7-7.9c-11-2.9-23.5-7.5-23.5-17.5
					c0-3.8,3.1-6.9,6.9-6.9c3.4,0,6.2,2.5,6.8,5.8c1.8,1.7,12.4,8.4,68.1,13.6c37.8,3.5,87.5,5.5,139.8,5.5
					c52.3,0,101.9-1.9,139.8-5.5c55.7-5.2,66.3-11.9,68.1-13.6c0.5-3.3,3.4-5.8,6.8-5.8c3.8,0,6.9,3.1,6.9,6.9
					c0,10-12.6,14.6-23.5,17.5c-11.7,3.1-28.4,5.8-49.7,7.9C817.9,480.8,765.3,483,708.9,483z M916.2,451.3
					C916.2,451.3,916.2,451.3,916.2,451.3C916.2,451.3,916.2,451.3,916.2,451.3z M500.7,451.3C500.7,451.3,500.7,451.3,500.7,451.3
					C500.7,451.3,500.7,451.3,500.7,451.3z"/>
			</g>
		</g>
		<g>
			<g>
				<linearGradient id="SVGID_13_" gradientUnits="userSpaceOnUse" x1="707.8929" y1="1172.0085" x2="707.8929" y2="44.8166">
					<stop  offset="0" style="stop-color:#5398AA"/>
					<stop  offset="1" style="stop-color:#1D9CB9"/>
				</linearGradient>
				<path class="st17" d="M703.2,374.9c-67.8,0-135.5-3.2-177-9.7c-3.7-0.6-6.3-4.1-5.7-7.8c0.6-3.7,4.1-6.3,7.8-5.7
					c85.4,13.4,283.3,12.7,359-1.4c3.7-0.7,7.3,1.8,8,5.5c0.7,3.7-1.8,7.3-5.5,8C849.9,371.1,776.6,374.9,703.2,374.9z"/>
			</g>
		</g>
		<g>
			<g>
				<linearGradient id="SVGID_14_" gradientUnits="userSpaceOnUse" x1="709.1647" y1="1172.0085" x2="709.1647" y2="44.8166">
					<stop  offset="0" style="stop-color:#5398AA"/>
					<stop  offset="1" style="stop-color:#1D9CB9"/>
				</linearGradient>
				<path class="st18" d="M703.6,590.9c-79.1,0-150.2-4.3-187.5-11.5c-3.7-0.7-6.2-4.3-5.4-8c0.7-3.7,4.3-6.2,8-5.4
					c83.5,16.1,314.6,14.7,380.5-2.3c3.7-0.9,7.4,1.3,8.4,4.9c0.9,3.7-1.3,7.4-4.9,8.4c-32.2,8.3-102.4,13.5-187.8,14
					C711,590.9,707.3,590.9,703.6,590.9z"/>
			</g>
		</g>
	</g>
	<g>
		<g>
			<linearGradient id="SVGID_15_" gradientUnits="userSpaceOnUse" x1="859.5176" y1="1172.0085" x2="859.5176" y2="44.8166">
				<stop  offset="0" style="stop-color:#5398AA"/>
				<stop  offset="1" style="stop-color:#1D9CB9"/>
			</linearGradient>
			<path class="st19" d="M773,346.4c-3.8,0-6.9-3.1-6.9-6.9v-15.7c0-3.8,3.1-6.9,6.9-6.9H946c3.8,0,6.9,3.1,6.9,6.9
				c0,3.8-3.1,6.9-6.9,6.9H779.8v8.9C779.8,343.4,776.8,346.4,773,346.4z"/>
		</g>
	</g>
	<g>
		<g>
			<linearGradient id="SVGID_16_" gradientUnits="userSpaceOnUse" x1="533.5757" y1="1172.0085" x2="533.5757" y2="44.8166">
				<stop  offset="0" style="stop-color:#5398AA"/>
				<stop  offset="1" style="stop-color:#1D9CB9"/>
			</linearGradient>
			<path class="st20" d="M616.5,548.1c-3.8,0-6.9-3.1-6.9-6.9v-8.9H450.7c-3.8,0-6.9-3.1-6.9-6.9c0-3.8,3.1-6.9,6.9-6.9h165.8
				c3.8,0,6.9,3.1,6.9,6.9v15.7C623.3,545.1,620.3,548.1,616.5,548.1z"/>
		</g>
	</g>
	<g>
		<g>
			<linearGradient id="SVGID_17_" gradientUnits="userSpaceOnUse" x1="1005.9874" y1="1172.0085" x2="1005.9874" y2="44.8166">
				<stop  offset="0" style="stop-color:#5398AA"/>
				<stop  offset="1" style="stop-color:#1D9CB9"/>
			</linearGradient>
			<path class="st21" d="M1065.3,411.8h-94.4c-3.8,0-6.9-3.1-6.9-6.9v-13.2l-22-20.6c-2.1-2-2.8-5.1-1.6-7.8
				c1.2-2.7,3.9-4.3,6.8-4.1l16.8,1.3v-50.1c0-3.8,3.1-6.9,6.9-6.9h94.4c3.8,0,6.9,3.1,6.9,6.9v94.4
				C1072.1,408.7,1069.1,411.8,1065.3,411.8z M977.7,398.1h80.7v-80.7h-80.7v50.7c0,1.9-0.8,3.7-2.2,5c-1.4,1.3-3.3,2-5.2,1.8
				l-4.7-0.4l9.9,9.2c1.4,1.3,2.2,3.1,2.2,5V398.1z"/>
		</g>
	</g>
	<g>
		<g>
			<g>
				<linearGradient id="SVGID_18_" gradientUnits="userSpaceOnUse" x1="1017.8496" y1="1172.0085" x2="1017.8496" y2="44.8166">
					<stop  offset="0" style="stop-color:#5398AA"/>
					<stop  offset="1" style="stop-color:#1D9CB9"/>
				</linearGradient>
				<path class="st22" d="M1037.2,344.4h-38.7c-3.8,0-6.9-3.1-6.9-6.9s3.1-6.9,6.9-6.9h38.7c3.8,0,6.9,3.1,6.9,6.9
					S1041,344.4,1037.2,344.4z"/>
			</g>
		</g>
		<g>
			<g>
				<linearGradient id="SVGID_19_" gradientUnits="userSpaceOnUse" x1="1017.8496" y1="1172.0085" x2="1017.8496" y2="44.8166">
					<stop  offset="0" style="stop-color:#5398AA"/>
					<stop  offset="1" style="stop-color:#1D9CB9"/>
				</linearGradient>
				<path class="st23" d="M1037.2,384.8h-38.7c-3.8,0-6.9-3.1-6.9-6.9s3.1-6.9,6.9-6.9h38.7c3.8,0,6.9,3.1,6.9,6.9
					S1041,384.8,1037.2,384.8z"/>
			</g>
		</g>
	</g>
	<g>
		<g>
			<linearGradient id="SVGID_20_" gradientUnits="userSpaceOnUse" x1="397.2668" y1="1172.0085" x2="397.2668" y2="44.8166">
				<stop  offset="0" style="stop-color:#5398AA"/>
				<stop  offset="1" style="stop-color:#1D9CB9"/>
			</linearGradient>
			<path class="st24" d="M429.5,657.9h-80.7c-3.8,0-6.9-3.1-6.9-6.9V451.3c0-3.8,3.1-6.9,6.9-6.9h80.7c3.8,0,6.9,3.1,6.9,6.9v141.1
				l13,8.5c1.6,1,2.7,2.7,3,4.6c0.3,1.9-0.2,3.8-1.3,5.3l-14.7,19.1V651C436.4,654.8,433.3,657.9,429.5,657.9z M355.7,644.2h67
				v-16.5c0-1.5,0.5-3,1.4-4.2l11.6-15.1l-9.9-6.4c-1.9-1.3-3.1-3.4-3.1-5.7v-138h-67V644.2z"/>
		</g>
	</g>
	<g>
		<g>
			<linearGradient id="SVGID_21_" gradientUnits="userSpaceOnUse" x1="387.749" y1="1172.0085" x2="387.749" y2="44.8166">
				<stop  offset="0" style="stop-color:#5398AA"/>
				<stop  offset="1" style="stop-color:#1D9CB9"/>
			</linearGradient>
			<path class="st25" d="M402.3,498.5h-29c-3.8,0-6.9-3.1-6.9-6.9c0-3.8,3.1-6.9,6.9-6.9h29c3.8,0,6.9,3.1,6.9,6.9
				C409.1,495.5,406.1,498.5,402.3,498.5z"/>
		</g>
	</g>
	<g>
		<g>
			<linearGradient id="SVGID_22_" gradientUnits="userSpaceOnUse" x1="387.749" y1="1172.0085" x2="387.749" y2="44.8166">
				<stop  offset="0" style="stop-color:#5398AA"/>
				<stop  offset="1" style="stop-color:#1D9CB9"/>
			</linearGradient>
			<path class="st26" d="M402.3,538.1h-29c-3.8,0-6.9-3.1-6.9-6.9s3.1-6.9,6.9-6.9h29c3.8,0,6.9,3.1,6.9,6.9
				S406.1,538.1,402.3,538.1z"/>
		</g>
	</g>
	<g>
		<g>
			<linearGradient id="SVGID_23_" gradientUnits="userSpaceOnUse" x1="387.749" y1="1172.0085" x2="387.749" y2="44.8166">
				<stop  offset="0" style="stop-color:#5398AA"/>
				<stop  offset="1" style="stop-color:#1D9CB9"/>
			</linearGradient>
			<path class="st27" d="M402.3,578.4h-29c-3.8,0-6.9-3.1-6.9-6.9s3.1-6.9,6.9-6.9h29c3.8,0,6.9,3.1,6.9,6.9
				S406.1,578.4,402.3,578.4z"/>
		</g>
	</g>
	<g>
		<g>
			<linearGradient id="SVGID_24_" gradientUnits="userSpaceOnUse" x1="387.749" y1="1172.0085" x2="387.749" y2="44.8166">
				<stop  offset="0" style="stop-color:#5398AA"/>
				<stop  offset="1" style="stop-color:#1D9CB9"/>
			</linearGradient>
			<path class="st28" d="M402.3,617.9h-29c-3.8,0-6.9-3.1-6.9-6.9c0-3.8,3.1-6.9,6.9-6.9h29c3.8,0,6.9,3.1,6.9,6.9
				C409.1,614.9,406.1,617.9,402.3,617.9z"/>
		</g>
	</g>
	<g>
		<g>
			<linearGradient id="SVGID_25_" gradientUnits="userSpaceOnUse" x1="995.2595" y1="1172.0085" x2="995.2595" y2="44.8166">
				<stop  offset="0" style="stop-color:#5398AA"/>
				<stop  offset="1" style="stop-color:#1D9CB9"/>
			</linearGradient>
			<path class="st29" d="M1044.5,644.6H946c-3.8,0-6.9-3.1-6.9-6.9s3.1-6.9,6.9-6.9h98.4c3.8,0,6.9,3.1,6.9,6.9
				S1048.3,644.6,1044.5,644.6z"/>
		</g>
	</g>
	<g>
		<g>
			<linearGradient id="SVGID_26_" gradientUnits="userSpaceOnUse" x1="1031.9684" y1="1172.0085" x2="1031.9684" y2="44.8166">
				<stop  offset="0" style="stop-color:#5398AA"/>
				<stop  offset="1" style="stop-color:#1D9CB9"/>
			</linearGradient>
			<path class="st30" d="M1065.4,576.8h-67c-3.8,0-6.9-3.1-6.9-6.9s3.1-6.9,6.9-6.9h67c3.8,0,6.9,3.1,6.9,6.9
				S1069.2,576.8,1065.4,576.8z"/>
		</g>
	</g>
	<g>
		<g>
			<linearGradient id="SVGID_27_" gradientUnits="userSpaceOnUse" x1="440.1902" y1="1172.0085" x2="440.1902" y2="44.8166">
				<stop  offset="0" style="stop-color:#5398AA"/>
				<stop  offset="1" style="stop-color:#1D9CB9"/>
			</linearGradient>
			<path class="st31" d="M492.6,317.8H387.7c-3.8,0-6.9-3.1-6.9-6.9s3.1-6.9,6.9-6.9h104.9c3.8,0,6.9,3.1,6.9,6.9
				S496.4,317.8,492.6,317.8z"/>
		</g>
	</g>
	<g>
		<g>
			<linearGradient id="SVGID_28_" gradientUnits="userSpaceOnUse" x1="388.1524" y1="1172.0085" x2="388.1524" y2="44.8166">
				<stop  offset="0" style="stop-color:#5398AA"/>
				<stop  offset="1" style="stop-color:#1D9CB9"/>
			</linearGradient>
			<path class="st32" d="M427.3,369.4H349c-3.8,0-6.9-3.1-6.9-6.9c0-3.8,3.1-6.9,6.9-6.9h78.3c3.8,0,6.9,3.1,6.9,6.9
				C434.1,366.4,431.1,369.4,427.3,369.4z"/>
		</g>
	</g>
	<g>
		<g>
			<linearGradient id="SVGID_29_" gradientUnits="userSpaceOnUse" x1="308.7242" y1="1172.0085" x2="308.7242" y2="44.8166">
				<stop  offset="0" style="stop-color:#5398AA"/>
				<stop  offset="1" style="stop-color:#1D9CB9"/>
			</linearGradient>
			<path class="st33" d="M283.4,482.8H88.7c-16,0-28.9-13-28.9-28.9V76.1c0-16,13-28.9,28.9-28.9h440c16,0,28.9,13,28.9,28.9v143.4
				c0,3.8-3.1,6.9-6.9,6.9c-3.8,0-6.9-3.1-6.9-6.9V76.1c0-8.4-6.8-15.2-15.2-15.2h-440c-8.4,0-15.2,6.8-15.2,15.2v377.8
				c0,8.4,6.8,15.2,15.2,15.2h194.7c3.8,0,6.9,3.1,6.9,6.9S287.2,482.8,283.4,482.8z"/>
		</g>
	</g>
	<g>
		<g>
			<linearGradient id="SVGID_30_" gradientUnits="userSpaceOnUse" x1="308.6839" y1="1172.0085" x2="308.6839" y2="44.8166">
				<stop  offset="0" style="stop-color:#5398AA"/>
				<stop  offset="1" style="stop-color:#1D9CB9"/>
			</linearGradient>
			<path class="st34" d="M550.7,116.9H66.6c-3.8,0-6.9-3.1-6.9-6.9s3.1-6.9,6.9-6.9h484.1c3.8,0,6.9,3.1,6.9,6.9
				S554.5,116.9,550.7,116.9z"/>
		</g>
	</g>
	<g>
		<g>
			<linearGradient id="SVGID_31_" gradientUnits="userSpaceOnUse" x1="202.5914" y1="1172.0085" x2="202.5914" y2="44.8166">
				<stop  offset="0" style="stop-color:#5398AA"/>
				<stop  offset="1" style="stop-color:#1D9CB9"/>
			</linearGradient>
			<path class="st35" d="M202.6,115.7c-3.8,0-6.9-3.1-6.9-6.9V88.7c0-3.8,3.1-6.9,6.9-6.9c3.8,0,6.9,3.1,6.9,6.9v20.2
				C209.4,112.6,206.4,115.7,202.6,115.7z"/>
		</g>
	</g>
	<g>
		<g>
			<g>
				<linearGradient id="SVGID_32_" gradientUnits="userSpaceOnUse" x1="182.5945" y1="1172.0085" x2="182.5945" y2="44.8166">
					<stop  offset="0" style="stop-color:#5398AA"/>
					<stop  offset="1" style="stop-color:#1D9CB9"/>
				</linearGradient>
				<path class="st36" d="M159,370.4c-5.9,0-11.8-2.2-16.3-6.7l-18.2-18.2c-9-9-9-23.6,0-32.6l65.4-65.4c4.4-4.4,10.1-6.7,16.3-6.7
					s11.9,2.4,16.3,6.7l18.2,18.2c4.4,4.4,6.7,10.1,6.7,16.3c0,6.2-2.4,11.9-6.7,16.3l-65.4,65.4C170.8,368.1,164.9,370.4,159,370.4
					z M206.2,254.4c-2.5,0-4.8,1-6.6,2.7l-65.4,65.4c-3.6,3.6-3.6,9.5,0,13.2l18.2,18.2c3.6,3.6,9.5,3.6,13.2,0l65.4-65.4
					c1.8-1.8,2.7-4.1,2.7-6.6c0-2.5-1-4.8-2.7-6.6l-18.2-18.2C211,255.4,208.7,254.4,206.2,254.4z"/>
			</g>
		</g>
		<g>
			<g>
				<linearGradient id="SVGID_33_" gradientUnits="userSpaceOnUse" x1="225.4246" y1="1172.0085" x2="225.4246" y2="44.8166">
					<stop  offset="0" style="stop-color:#5398AA"/>
					<stop  offset="1" style="stop-color:#1D9CB9"/>
				</linearGradient>
				<path class="st37" d="M201.8,289.2c-6.2,0-11.9-2.4-16.3-6.7l-18.2-18.2c-4.4-4.4-6.7-10.1-6.7-16.3c0-6.2,2.4-11.9,6.7-16.3
					l65.4-65.4c4.4-4.4,10.1-6.7,16.3-6.7s11.9,2.4,16.3,6.7l18.2,18.2c9,9,9,23.6,0,32.6l-65.4,65.4
					C213.8,286.8,208,289.2,201.8,289.2z M249,173.3c-2.5,0-4.8,1-6.6,2.7L177,241.4c-1.8,1.8-2.7,4.1-2.7,6.6c0,2.5,1,4.8,2.7,6.6
					l18.2,18.2c1.8,1.8,4.1,2.7,6.6,2.7s4.8-1,6.6-2.7l65.4-65.4c3.6-3.6,3.6-9.5,0-13.2L255.6,176l0,0
					C253.9,174.2,251.5,173.3,249,173.3z"/>
			</g>
		</g>
	</g>
	<g>
		<g>
			<linearGradient id="SVGID_34_" gradientUnits="userSpaceOnUse" x1="412.7594" y1="1172.0085" x2="412.7594" y2="44.8166">
				<stop  offset="0" style="stop-color:#5398AA"/>
				<stop  offset="1" style="stop-color:#1D9CB9"/>
			</linearGradient>
			<path class="st38" d="M485.4,163.7H340.1c-3.8,0-6.9-3.1-6.9-6.9c0-3.8,3.1-6.9,6.9-6.9h145.2c3.8,0,6.9,3.1,6.9,6.9
				C492.2,160.6,489.2,163.7,485.4,163.7z"/>
		</g>
	</g>
	<g>
		<g>
			<linearGradient id="SVGID_35_" gradientUnits="userSpaceOnUse" x1="206.6253" y1="1172.0085" x2="206.6253" y2="44.8166">
				<stop  offset="0" style="stop-color:#5398AA"/>
				<stop  offset="1" style="stop-color:#1D9CB9"/>
			</linearGradient>
			<path class="st39" d="M283.7,429.1H129.6c-3.8,0-6.9-3.1-6.9-6.9c0-3.8,3.1-6.9,6.9-6.9h154.1c3.8,0,6.9,3.1,6.9,6.9
				C290.5,426.1,287.5,429.1,283.7,429.1z"/>
		</g>
	</g>
	<g>
		<g>
			<linearGradient id="SVGID_36_" gradientUnits="userSpaceOnUse" x1="254.6292" y1="1172.0085" x2="254.6292" y2="44.8166">
				<stop  offset="0" style="stop-color:#5398AA"/>
				<stop  offset="1" style="stop-color:#1D9CB9"/>
			</linearGradient>
			<path class="st40" d="M283.7,375.1h-58.1c-3.8,0-6.9-3.1-6.9-6.9c0-3.8,3.1-6.9,6.9-6.9h58.1c3.8,0,6.9,3.1,6.9,6.9
				C290.5,372,287.5,375.1,283.7,375.1z"/>
		</g>
	</g>
	<g>
		<g>
			<g>
				<linearGradient id="SVGID_37_" gradientUnits="userSpaceOnUse" x1="1120.2296" y1="1172.0085" x2="1120.2296" y2="44.8166">
					<stop  offset="0" style="stop-color:#5398AA"/>
					<stop  offset="1" style="stop-color:#1D9CB9"/>
				</linearGradient>
				<path class="st41" d="M1213.7,1072.6H921.8c-3.8,0-6.9-3.1-6.9-6.9V936.6c0-3.8,3.1-6.9,6.9-6.9h291.9c1.3,0,2.5,0.4,3.6,1
					l104.9,64.5c2,1.2,3.3,3.5,3.3,5.8c0,2.4-1.2,4.6-3.3,5.8l-104.9,64.5C1216.2,1072.2,1215,1072.6,1213.7,1072.6z M928.7,1058.8
					h283.1l93.7-57.7l-93.7-57.7H928.7V1058.8z"/>
			</g>
		</g>
		<g>
			<g>
				<g>
					<linearGradient id="SVGID_38_" gradientUnits="userSpaceOnUse" x1="979.5272" y1="1172.0085" x2="979.5272" y2="44.8166">
						<stop  offset="0" style="stop-color:#5398AA"/>
						<stop  offset="1" style="stop-color:#1D9CB9"/>
					</linearGradient>
					<path class="st42" d="M979.5,1042.7c-3.8,0-6.9-3.1-6.9-6.9v-69.4c0-3.8,3.1-6.9,6.9-6.9c3.8,0,6.9,3.1,6.9,6.9v69.4
						C986.4,1039.6,983.3,1042.7,979.5,1042.7z"/>
				</g>
			</g>
			<g>
				<g>
					<linearGradient id="SVGID_39_" gradientUnits="userSpaceOnUse" x1="1011.7987" y1="1172.0085" x2="1011.7987" y2="44.8166">
						<stop  offset="0" style="stop-color:#5398AA"/>
						<stop  offset="1" style="stop-color:#1D9CB9"/>
					</linearGradient>
					<path class="st43" d="M1011.8,1042.7c-3.8,0-6.9-3.1-6.9-6.9v-69.4c0-3.8,3.1-6.9,6.9-6.9c3.8,0,6.9,3.1,6.9,6.9v69.4
						C1018.7,1039.6,1015.6,1042.7,1011.8,1042.7z"/>
				</g>
			</g>
			<g>
				<g>
					<linearGradient id="SVGID_40_" gradientUnits="userSpaceOnUse" x1="995.2595" y1="1172.0085" x2="995.2595" y2="44.8166">
						<stop  offset="0" style="stop-color:#5398AA"/>
						<stop  offset="1" style="stop-color:#1D9CB9"/>
					</linearGradient>
					<path class="st44" d="M1030,1024.6h-69.4c-3.8,0-6.9-3.1-6.9-6.9s3.1-6.9,6.9-6.9h69.4c3.8,0,6.9,3.1,6.9,6.9
						S1033.7,1024.6,1030,1024.6z"/>
				</g>
			</g>
			<g>
				<g>
					<linearGradient id="SVGID_41_" gradientUnits="userSpaceOnUse" x1="996.0663" y1="1172.0085" x2="996.0663" y2="44.8166">
						<stop  offset="0" style="stop-color:#5398AA"/>
						<stop  offset="1" style="stop-color:#1D9CB9"/>
					</linearGradient>
					<path class="st45" d="M1030.8,992.3h-69.4c-3.8,0-6.9-3.1-6.9-6.9s3.1-6.9,6.9-6.9h69.4c3.8,0,6.9,3.1,6.9,6.9
						S1034.5,992.3,1030.8,992.3z"/>
				</g>
			</g>
		</g>
		<g>
			<g>
				<linearGradient id="SVGID_42_" gradientUnits="userSpaceOnUse" x1="1106.1927" y1="1172.0085" x2="1106.1927" y2="44.8166">
					<stop  offset="0" style="stop-color:#5398AA"/>
					<stop  offset="1" style="stop-color:#1D9CB9"/>
				</linearGradient>
				<path class="st46" d="M1134.8,986.6h-57.3c-3.8,0-6.9-3.1-6.9-6.9s3.1-6.9,6.9-6.9h57.3c3.8,0,6.9,3.1,6.9,6.9
					S1138.6,986.6,1134.8,986.6z"/>
			</g>
		</g>
		<g>
			<g>
				<linearGradient id="SVGID_43_" gradientUnits="userSpaceOnUse" x1="1134.8337" y1="1172.0085" x2="1134.8337" y2="44.8166">
					<stop  offset="0" style="stop-color:#5398AA"/>
					<stop  offset="1" style="stop-color:#1D9CB9"/>
				</linearGradient>
				<path class="st47" d="M1192.1,1030.2h-114.6c-3.8,0-6.9-3.1-6.9-6.9c0-3.8,3.1-6.9,6.9-6.9h114.6c3.8,0,6.9,3.1,6.9,6.9
					C1199,1027.1,1195.9,1030.2,1192.1,1030.2z"/>
			</g>
		</g>
	</g>
	<g>
		<g>
			<linearGradient id="SVGID_44_" gradientUnits="userSpaceOnUse" x1="314.7348" y1="1172.0085" x2="314.7348" y2="44.8166">
				<stop  offset="0" style="stop-color:#5398AA"/>
				<stop  offset="1" style="stop-color:#1D9CB9"/>
			</linearGradient>
			<path class="st48" d="M359.5,951.1H270c-3.8,0-6.9-3.1-6.9-6.9c0-3.8,3.1-6.9,6.9-6.9h89.6c3.8,0,6.9,3.1,6.9,6.9
				C366.4,948.1,363.3,951.1,359.5,951.1z"/>
		</g>
	</g>
	<g>
		<g>
			<linearGradient id="SVGID_45_" gradientUnits="userSpaceOnUse" x1="219.1305" y1="1172.0085" x2="219.1305" y2="44.8166">
				<stop  offset="0" style="stop-color:#5398AA"/>
				<stop  offset="1" style="stop-color:#1D9CB9"/>
			</linearGradient>
			<path class="st49" d="M308.7,1056H129.6c-3.8,0-6.9-3.1-6.9-6.9c0-3.8,3.1-6.9,6.9-6.9h179.1c3.8,0,6.9,3.1,6.9,6.9
				C315.5,1052.9,312.5,1056,308.7,1056z"/>
		</g>
	</g>
	<g>
		<g>
			<linearGradient id="SVGID_46_" gradientUnits="userSpaceOnUse" x1="1191.3087" y1="1172.0085" x2="1191.3087" y2="44.8166">
				<stop  offset="0" style="stop-color:#5398AA"/>
				<stop  offset="1" style="stop-color:#1D9CB9"/>
			</linearGradient>
			<path class="st50" d="M1276.8,163.7h-171c-3.8,0-6.9-3.1-6.9-6.9c0-3.8,3.1-6.9,6.9-6.9h171c3.8,0,6.9,3.1,6.9,6.9
				C1283.7,160.6,1280.6,163.7,1276.8,163.7z"/>
		</g>
	</g>
	<g>
		<g>
			<linearGradient id="SVGID_47_" gradientUnits="userSpaceOnUse" x1="1303.0487" y1="1172.0085" x2="1303.0487" y2="44.8166">
				<stop  offset="0" style="stop-color:#5398AA"/>
				<stop  offset="1" style="stop-color:#1D9CB9"/>
			</linearGradient>
			<path class="st51" d="M1348.6,312.2h-91.2c-3.8,0-6.9-3.1-6.9-6.9c0-3.8,3.1-6.9,6.9-6.9h91.2c3.8,0,6.9,3.1,6.9,6.9
				C1355.5,309.1,1352.4,312.2,1348.6,312.2z"/>
		</g>
	</g>
	<g>
		<g>
			<linearGradient id="SVGID_48_" gradientUnits="userSpaceOnUse" x1="1199.3766" y1="1172.0085" x2="1199.3766" y2="44.8166">
				<stop  offset="0" style="stop-color:#5398AA"/>
				<stop  offset="1" style="stop-color:#1D9CB9"/>
			</linearGradient>
			<path class="st52" d="M1206.6,698.6h-14.5c-3.8,0-6.9-3.1-6.9-6.9s3.1-6.9,6.9-6.9h14.5c3.8,0,6.9,3.1,6.9,6.9
				S1210.4,698.6,1206.6,698.6z"/>
		</g>
	</g>
	<g>
		<g>
			<linearGradient id="SVGID_49_" gradientUnits="userSpaceOnUse" x1="92.8684" y1="1172.0085" x2="92.8684" y2="44.8166">
				<stop  offset="0" style="stop-color:#5398AA"/>
				<stop  offset="1" style="stop-color:#1D9CB9"/>
			</linearGradient>
			<path class="st53" d="M111,731.7H74.7c-3.8,0-6.9-3.1-6.9-6.9c0-3.8,3.1-6.9,6.9-6.9H111c3.8,0,6.9,3.1,6.9,6.9
				C117.9,728.6,114.8,731.7,111,731.7z"/>
		</g>
	</g>
	<g>
		<g>
			<g>
				<linearGradient id="SVGID_50_" gradientUnits="userSpaceOnUse" x1="1287.7198" y1="1172.0085" x2="1287.7198" y2="44.8166">
					<stop  offset="0" style="stop-color:#5398AA"/>
					<stop  offset="1" style="stop-color:#1D9CB9"/>
				</linearGradient>
				<path class="st54" d="M1305.9,504.2h-36.3c-3.8,0-6.9-3.1-6.9-6.9c0-3.8,3.1-6.9,6.9-6.9h36.3c3.8,0,6.9,3.1,6.9,6.9
					C1312.7,501.1,1309.7,504.2,1305.9,504.2z"/>
			</g>
		</g>
		<g>
			<g>
				<linearGradient id="SVGID_51_" gradientUnits="userSpaceOnUse" x1="1287.7198" y1="1172.0085" x2="1287.7198" y2="44.8166">
					<stop  offset="0" style="stop-color:#5398AA"/>
					<stop  offset="1" style="stop-color:#1D9CB9"/>
				</linearGradient>
				<path class="st55" d="M1287.7,522.3c-3.8,0-6.9-3.1-6.9-6.9v-36.3c0-3.8,3.1-6.9,6.9-6.9c3.8,0,6.9,3.1,6.9,6.9v36.3
					C1294.6,519.3,1291.5,522.3,1287.7,522.3z"/>
			</g>
		</g>
	</g>
	<g>
		<g>
			<g>
				<linearGradient id="SVGID_52_" gradientUnits="userSpaceOnUse" x1="468.8311" y1="1172.0085" x2="468.8311" y2="44.8166">
					<stop  offset="0" style="stop-color:#5398AA"/>
					<stop  offset="1" style="stop-color:#1D9CB9"/>
				</linearGradient>
				<path class="st56" d="M487,1030.2h-36.3c-3.8,0-6.9-3.1-6.9-6.9c0-3.8,3.1-6.9,6.9-6.9H487c3.8,0,6.9,3.1,6.9,6.9
					C493.8,1027.1,490.8,1030.2,487,1030.2z"/>
			</g>
		</g>
		<g>
			<g>
				<linearGradient id="SVGID_53_" gradientUnits="userSpaceOnUse" x1="468.8311" y1="1172.0085" x2="468.8311" y2="44.8166">
					<stop  offset="0" style="stop-color:#5398AA"/>
					<stop  offset="1" style="stop-color:#1D9CB9"/>
				</linearGradient>
				<path class="st57" d="M468.8,1048.4c-3.8,0-6.9-3.1-6.9-6.9v-36.3c0-3.8,3.1-6.9,6.9-6.9c3.8,0,6.9,3.1,6.9,6.9v36.3
					C475.7,1045.3,472.6,1048.4,468.8,1048.4z"/>
			</g>
		</g>
	</g>
	<g>
		<g>
			<g>
				<linearGradient id="SVGID_54_" gradientUnits="userSpaceOnUse" x1="202.5914" y1="1172.0085" x2="202.5914" y2="44.8166">
					<stop  offset="0" style="stop-color:#5398AA"/>
					<stop  offset="1" style="stop-color:#1D9CB9"/>
				</linearGradient>
				<path class="st58" d="M220.7,590.5h-36.3c-3.8,0-6.9-3.1-6.9-6.9s3.1-6.9,6.9-6.9h36.3c3.8,0,6.9,3.1,6.9,6.9
					S224.5,590.5,220.7,590.5z"/>
			</g>
		</g>
		<g>
			<g>
				<linearGradient id="SVGID_55_" gradientUnits="userSpaceOnUse" x1="202.5914" y1="1172.0085" x2="202.5914" y2="44.8166">
					<stop  offset="0" style="stop-color:#5398AA"/>
					<stop  offset="1" style="stop-color:#1D9CB9"/>
				</linearGradient>
				<path class="st59" d="M202.6,608.7c-3.8,0-6.9-3.1-6.9-6.9v-36.3c0-3.8,3.1-6.9,6.9-6.9c3.8,0,6.9,3.1,6.9,6.9v36.3
					C209.4,605.6,206.4,608.7,202.6,608.7z"/>
			</g>
		</g>
	</g>
	<g>
		<g>
			<g>
				<linearGradient id="SVGID_56_" gradientUnits="userSpaceOnUse" x1="731.0368" y1="1172.0085" x2="731.0368" y2="44.8166">
					<stop  offset="0" style="stop-color:#5398AA"/>
					<stop  offset="1" style="stop-color:#1D9CB9"/>
				</linearGradient>
				<path class="st60" d="M749.2,145.2h-36.3c-3.8,0-6.9-3.1-6.9-6.9c0-3.8,3.1-6.9,6.9-6.9h36.3c3.8,0,6.9,3.1,6.9,6.9
					C756,142.1,753,145.2,749.2,145.2z"/>
			</g>
		</g>
		<g>
			<g>
				<linearGradient id="SVGID_57_" gradientUnits="userSpaceOnUse" x1="731.0368" y1="1172.0085" x2="731.0368" y2="44.8166">
					<stop  offset="0" style="stop-color:#5398AA"/>
					<stop  offset="1" style="stop-color:#1D9CB9"/>
				</linearGradient>
				<path class="st61" d="M731,163.3c-3.8,0-6.9-3.1-6.9-6.9v-36.3c0-3.8,3.1-6.9,6.9-6.9s6.9,3.1,6.9,6.9v36.3
					C737.9,160.2,734.8,163.3,731,163.3z"/>
			</g>
		</g>
	</g>
</g>
<g id="EXPERIENCE">
</g>
<g id="CREATIVITY">
</g>
<g id="WEBINAR">
</g>
<g id="COACHING">
</g>
</svg>
