<?xml version="1.0" encoding="utf-8"?>
<svg xmlns="http://www.w3.org/2000/svg" xmlns:xlink="http://www.w3.org/1999/xlink">
    <symbol id="ic-lisence" viewBox="0 0 36.3 34"><path d="M21.1 33.5c-.1 0-.2 0-.3-.1L15.9 31c-.2-.1-.3-.2-.3-.4s0-.4.1-.5l2.4-4.4c-.2-.4-.4-.8-.5-1.2l-13.9-.2c-1 0-1.8-.8-1.8-1.8V2.8c0-1 .8-1.8 1.8-1.8h22.6c.4 0 .7.3.7.7s-.3.7-.7.7H3.7c-.3 0-.5.2-.5.5v19.7c0 .3.2.5.5.5l13.7.1V23c0-3.5 2.8-6.3 6.3-6.3S30 19.5 30 23v.2l2.6-.1c.3 0 .5-.2.5-.5V9.4c0-.4.3-.7.7-.7s.7.3.7.7v13.1c0 1-.8 1.8-1.8 1.8l-2.8.1h-.1c-.1.3-.2.7-.3 1l2.5 4.8c.1.2.1.4 0 .5-.1.2-.2.3-.3.4l-5 2.4c-.3.1-.7 0-.9-.2l-2-3.3-2.1 3.2c-.1.2-.3.3-.6.3zm3.7-4.4l1.9 2.9 3.8-1.8-1.8-3.4c-1 1.2-2.4 2-3.9 2.3zm-7.7 1l3.8 1.8 1.9-2.9c-1.5-.2-2.9-1-3.9-2.2l-1.8 3.3zm6.6-12.2c-2.7 0-5 2.2-5 5s2.2 5 5 5 5-2.2 5-5-2.3-5-5-5zm0 8.3c-1.9 0-3.4-1.5-3.4-3.4s1.5-3.4 3.4-3.4 3.4 1.5 3.4 3.4-1.5 3.4-3.4 3.4zm0-5.4c-1.1 0-2 .9-2 2s.9 2 2 2 2-.9 2-2-.9-2-2-2zm-1.4-6.3H6.6c-.4 0-.7-.3-.7-.7s.3-.7.7-.7h15.7c.4 0 .7.3.7.7s-.4.7-.7.7zm0-3.6H6.6c-.4 0-.7-.3-.7-.7s.3-.7.7-.7h15.7c.4 0 .7.3.7.7s-.4.7-.7.7zm0-3.6H6.6c-.4 0-.7-.3-.7-.7 0-.4.3-.7.7-.7h15.7c.4 0 .7.3.7.7-.1.4-.4.7-.7.7z"></path><path d="M33.8 9.7h-6.3c-1 0-1.8-.8-1.8-1.8V1.6c0-.3.2-.5.4-.6.3-.1.5 0 .7.1l7.4 7.4c.2.2.3.5.1.7 0 .4-.2.5-.5.5zM27 3.2v4.7c0 .3.2.5.5.5h4.7L27 3.2z"></path></symbol>
    <symbol id="ic-chart" viewBox="0 0 20.2 15.6"><path d="M11.7 2.3v9.5c0 .4.3.7.7.7.4 0 .7-.3.7-.7V2.3c0-.4-.3-.7-.7-.7-.4 0-.7.3-.7.7zM15.6 9.5v2.3c0 .4.3.7.7.7.4 0 .7-.3.7-.7V9.5c0-.4-.3-.7-.7-.7-.4 0-.7.3-.7.7zM7.9 4.5v7.3c0 .4.3.7.7.7.4 0 .7-.3.7-.7V4.5c0-.4-.3-.7-.7-.7-.4 0-.7.3-.7.7zM4 8.9v2.9c0 .4.3.7.7.7.4 0 .7-.3.7-.7V8.9c0-.4-.3-.7-.7-.7-.4 0-.7.3-.7.7z"></path><path d="M19.1 13.9H1.8V1c0-.4-.3-.7-.7-.7C.8.4.5.7.5 1v13.5c0 .1 0 .2.1.3l.3.3c.1 0 .2.1.3.1h17.9c.4 0 .7-.3.7-.7-.1-.3-.4-.6-.7-.6z"></path></symbol>
    <symbol id="ic-chat" viewBox="0 0 24.7 20.2"><path d="M21.7.5H10.5C9.1.5 8 1.6 8 2.9v.7H3C1.6 3.6.5 4.7.5 6.1v8c0 1.2.9 2.3 2.1 2.4v2.7c0 .3.2.5.4.6h.2c.2 0 .4-.1.5-.3l2.1-3h8.3c1.4 0 2.5-1.1 2.5-2.5v-.7h2.1l2.1 3c.1.2.3.3.5.3h.2c.3-.1.4-.3.4-.6v-2.7c1.2-.2 2.1-1.2 2.1-2.4v-8c.1-1.3-.9-2.4-2.3-2.4zM15.5 14c0 .7-.6 1.2-1.2 1.2H5.6c-.2 0-.4.1-.5.3l-1.2 1.7v-1.4c0-.3-.3-.6-.6-.6H3c-.7 0-1.2-.5-1.2-1.2V6c0-.7.6-1.2 1.2-1.2h11.2c.7 0 1.2.5 1.2 1.2v8zm7.4-3.1c0 .7-.6 1.2-1.2 1.2h-.3c-.3 0-.6.3-.6.6v1.4l-1.2-1.7c-.1-.2-.3-.3-.5-.3h-2.4v-6c0-1.4-1.1-2.5-2.5-2.5h-5v-.7c0-.7.6-1.2 1.2-1.2h11.2c.7 0 1.2.5 1.2 1.2v8z"></path></symbol>
    <symbol id="ic-close" viewBox="0 0 9.9 9.8"><path d="M.6 9.2c.1.1.2.2.4.2s.3-.1.4-.2L5 5.6l3.6 3.6c.1.1.2.2.4.2.1 0 .3-.1.4-.2.2-.2.2-.5 0-.7L5.7 4.9l3.6-3.6c.2-.2.2-.5 0-.7-.3-.2-.6-.2-.8 0L4.9 4.2 1.3.6C1.1.4.8.4.6.6c-.2.2-.2.5 0 .7l3.6 3.6L.6 8.5c-.2.2-.2.5 0 .7z"></path></symbol>
    <symbol id="ic-download" viewBox="0 0 13.1 17.1"><path d="M11.9 15.3H1.2c-.3 0-.6.3-.6.6s.3.6.6.6H12c.3 0 .6-.3.6-.6-.1-.3-.3-.6-.7-.6zM11.7 6.3L7.2 9.8V1.1c0-.3-.3-.6-.6-.6s-.6.3-.6.6v8.7L1.4 6.3c-.3-.2-.7-.1-.9.2-.2.2-.1.6.1.8l5.5 4.3h.2c.1 0 .2.1.2.1.1 0 .2 0 .2-.1h.1l5.5-4.3c.3-.2.3-.6.1-.9-.1-.2-.5-.3-.7-.1z"></path></symbol>
    <symbol id="ic-exit" viewBox="0 0 20.7 13.9"><path d="M12.5 10.5c-.4 0-.7.3-.7.7v1h-10V1.7h10v.1c0 .4.3.7.7.7.4 0 .7-.3.7-.7v-.7c0-.4-.3-.7-.7-.7H1.2C.8.4.5.7.5 1.1v11.7c0 .4.3.7.7.7h11.3c.4 0 .7-.3.7-.7v-1.7c0-.3-.3-.6-.7-.6z"></path><path class="st0" d="M14.6 3.4l2.2 2.8H7.6c-.4 0-.7.3-.7.7 0 .4.3.7.7.7h9.3l-2 2.5c-.2.3-.2.7.1.9.3.2.7.2.9-.1l2.8-3.5v-.1-.1c0-.1.1-.2.1-.3 0-.1 0-.2-.1-.3 0 0 0-.1-.1-.1l-3.1-3.9c-.2-.3-.6-.3-.9-.1-.1.2-.2.6 0 .9z"></path></symbol>
    <symbol id="ic-fb" viewBox="0 0 29.1 29.1"><path d="M27.2.4H27h.2z"></path><path d="M25.7.4H3.4c-1.7 0-3 1.4-3 3v22.4c0 1.6 1.3 3 3 3h12.1v-.1-10.6c0-.2 0-.2-.2-.2h-3.4c-.1 0-.2 0-.2-.2v-4c0-.2 0-.2.2-.2h3.6v-.2-2.8c0-.5 0-1.1.1-1.6.2-.8.5-1.6 1-2.3 1-1.3 2.3-1.8 3.9-1.9h1.4c.8 0 1.6.1 2.4.1.1 0 .1.1.1.2v3.6c0 .1 0 .2-.2.2h-2c-.3 0-.7 0-1 .1-.6.1-1 .5-1.2 1.1V13.5h4.2v.4c-.1.7-.2 1.3-.3 2-.1.6-.2 1.2-.2 1.8 0 .1-.1.2-.2.2h-3.3c-.2 0-.2 0-.2.2v10.7h5.8c1.7 0 3-1.4 3-3V3.4c-.1-1.7-1.4-3-3.1-3z"></path></symbol>
    <symbol id="ic-home" viewBox="0 0 56.3 48.4"><path d="M41.7 47.6c-.4 0-.9-.1-1.3-.3-.6-.3-1-.9-1.2-1.5L29.7 10v35.1c0 1.4-1.1 2.5-2.5 2.5H18c-.6 0-1.2-.2-1.6-.6-.4.4-1 .6-1.6.6H5.6c-1.4 0-2.5-1.1-2.5-2.5V4.6c0-1.4 1.1-2.5 2.5-2.5h9.2c.6 0 1.2.2 1.6.6.4-.4 1-.6 1.6-.6h9.2c1.2 0 2.2.8 2.5 2 .3-.2.6-.4 1-.5l8.8-2.4c1.3-.4 2.7.4 3.1 1.8L53 42.1c.2.7.1 1.3-.3 1.9-.3.6-.9 1-1.5 1.2l-8.8 2.4h-.7zM31.1 5.5c-.2 0-.3.2-.3.2 0 .1-.1.2 0 .4l10.5 39.1c0 .2.2.3.2.3.1 0 .2.1.4 0l8.8-2.4c.2 0 .3-.2.3-.2 0-.1.1-.2.1-.4l-10.5-39c-.1-.3-.3-.4-.6-.3l-8.9 2.3zM18 4.1c-.3 0-.5.2-.5.5v40.5c0 .3.2.5.5.5h9.2c.3 0 .5-.2.5-.5V4.6c0-.3-.2-.5-.5-.5H18zm-12.4 0c-.3 0-.5.2-.5.5v40.5c0 .3.2.5.5.5h9.2c.3 0 .5-.2.5-.5V4.6c0-.3-.2-.5-.5-.5H5.6zm19.8 37.6h-5.7c-.6 0-1-.5-1-1 0-.6.5-1 1-1h5.7c.6 0 1 .5 1 1 .1.5-.4 1-1 1zm-12.3 0H7.3c-.6 0-1-.5-1-1 0-.6.5-1 1-1H13c.6 0 1 .5 1 1 .1.5-.4 1-.9 1zm29.1-.3c-.5 0-.9-.3-1-.8-.1-.5.2-1.1.7-1.3l5.6-1.5c.5-.1 1.1.2 1.3.7.1.5-.2 1.1-.7 1.3l-5.6 1.5c-.1.1-.2.1-.3.1zm-16.8-3.7h-5.7c-.6 0-1-.5-1-1s.5-1 1-1h5.7c.6 0 1 .5 1 1s-.4 1-1 1zm-12.3 0H7.3c-.6 0-1-.5-1-1s.5-1 1-1H13c.6 0 1 .5 1 1s-.4 1-.9 1zm28.1-.2c-.5 0-.9-.3-1-.8-.1-.5.2-1.1.7-1.3l5.6-1.5c.5-.1 1.1.2 1.3.7.1.5-.2 1.1-.7 1.3l-5.6 1.5c-.2.1-.2.1-.3.1zm-6.4-23.7c-.5 0-.9-.3-1-.8-.1-.5.2-1.1.7-1.3l5.6-1.5c.5-.1 1.1.2 1.3.7.1.5-.2 1.1-.7 1.3l-5.6 1.5c-.1.1-.2.1-.3.1zm-9.4-.6h-5.7c-.6 0-1-.5-1-1 0-.6.5-1 1-1h5.7c.6 0 1 .5 1 1 .1.5-.4 1-1 1zm-12.3 0H7.3c-.6 0-1-.5-1-1 0-.6.5-1 1-1H13c.6 0 1 .5 1 1 .1.5-.4 1-.9 1zM33.8 10c-.5 0-.9-.3-1-.8-.1-.5.2-1.1.7-1.2l5.6-1.5c.5-.1 1.1.2 1.3.7.1.5-.2 1.1-.7 1.3L34.1 10h-.3zm-8.4-.8h-5.7c-.6 0-1-.5-1-1s.5-1 1-1h5.7c.6 0 1 .5 1 1s-.4 1-1 1zm-12.3 0H7.3c-.6 0-1-.5-1-1s.5-1 1-1H13c.6 0 1 .5 1 1s-.4 1-.9 1z"></path></symbol>
    <symbol id="ic-insta" viewBox="0 0 29.2 29.2"><path d="M25.8.4H3.4c-1.6 0-3 1.4-3 3v22.4c0 1.6 1.4 3 3 3h22.4c1.6 0 3-1.4 3-3V3.4c0-1.6-1.4-3-3-3zM14.6 9.1c3 0 5.4 2.4 5.5 5.4 0 3-2.4 5.4-5.4 5.5-3 0-5.5-2.4-5.5-5.4-.1-3 2.3-5.4 5.4-5.5zm10.9 15.3c0 .6-.3 1-.9 1.1H4.8c-.8 0-1.2-.4-1.2-1.2V12.7v-.3H6c-.8 4.1.4 7.4 4 9.6 3.1 1.9 6.3 1.8 9.3-.2 3.3-2.2 4.4-5.5 3.7-9.4h2.4v.1c.1 4 .1 7.9.1 11.9zm0-16.4c0 .7-.5 1.1-1.1 1.1h-3.1c-.8 0-1.3-.4-1.3-1.1V4.9c0-.7.5-1.2 1.2-1.2h3c.8 0 1.2.4 1.2 1.2v1.5c.1.5.1 1.1.1 1.6z"></path></symbol>
    <symbol id="ic-learn" viewBox="0 0 57.4 55.3"><path d="M50 43c.3-.5.5-1 .5-1.6V26.1c0-.5-.4-1-1-1s-1 .4-1 1v15.3c0 .5-.5 1-1 1H34.6l.5-4.5v-.5c0-1.6-1.4-2.7-2.8-3-1.9-.4-4.1-1-4.7-1.5-.1-.1-.3-.1-.4-.2h-.1c-.5-.1-1 .3-1.1.8-.1.4.1.8.5 1 1.3.8 4.4 1.6 5.4 1.8.5.1 1.3.5 1.3 1.1v.4l-.5 4.6H14.1l-.5-4.5v-.5c0-.6.8-1 1.3-1.1.9-.2 3.9-.9 5.3-1.7.4-.2.7-.6.6-1.1-.1-.5-.6-.9-1.2-.8-.1 0-.3.1-.4.2-.6.5-2.8 1.1-4.7 1.5-1.4.3-2.8 1.3-2.8 3l.5 5h-1.3c-.5 0-1-.5-1-1V17.5c0-.6.5-1 1-1H25c.5 0 1-.4 1-1 0-.5-.4-1-1-1H10.8c-1.6 0-3 1.3-3 3v23.9c.1.6.2 1.2.5 1.6l-5.1 7.2c-.3.4-.3.9-.1 1.3.3.6 1.1.9 1.6.9h48.8c.6 0 1.3-.3 1.6-1 .2-.4.2-.9-.1-1.3L50 43zM5.4 50.5l4.4-6.2c.3.1.6.2 1 .2h36.6c.3 0 .7-.1 1-.2l4.4 6.3-47.4-.1z"></path><path d="M22.2 19.7c-.2.1-.4.2-.5.3-2 .1-3.6 1.9-3.6 4v1c-.4.3-.6.9-.5 1.5l.3 1.8c.1.4.3.8.6 1l.6.3c.8 2.1 2.5 3.6 4.4 3.6 1.8-.1 3.5-1.6 4.3-3.7.2-.1.3-.1.4-.2.3-.2.6-.6.6-1l.3-1.8c.1-.6-.1-1.1-.6-1.5v-1c0-1.6-.9-3-2.3-3.6-.3-.1-.6-.3-.9-.4-1.2-.6-2.4-.7-3.1-.3zm4.4 4.3v.7c0 .2 0 .4-.1.6-.1.3 0 .6.1.8.1.2.3.3.5.4l-.2 1.2c-.4 0-.7.3-.9.7-.5 1.8-1.8 2.9-2.6 2.9-1 0-2.2-1.2-2.7-3-.1-.4-.5-.7-.9-.7l-.2-1.1c.2-.1.4-.2.5-.4.1-.2.2-.5.1-.8-.1-.2-.1-.4-.1-.6V24c0-1.1.9-2 1.9-2h.3c.3 0 .5-.1.7-.3.1-.1.1-.1.1-.2.3 0 .8.1 1.4.3.2.1.5.2.7.3.9.3 1.4 1.1 1.4 1.9zM44.3 14.5H34.1c-.5 0-1 .4-1 1 0 .5.4 1 1 1h10.2c.5 0 1-.4 1-1-.1-.6-.5-1-1-1zM48.7 10.3H34.1c-.5 0-1 .4-1 1s.4 1 1 1h14.6c.5 0 1-.4 1-1s-.5-1-1-1z"></path><path d="M41.4 1.2c-7.7 0-13.9 5.3-13.9 11.9 0 3.1 1.4 6.1 4 8.3v5.1c0 .3.2.6.5.8.2.1.3.1.5.1.1 0 .3 0 .4-.1 2.5-1.2 3.4-1.7 4.7-2.8 1.2.3 2.5.5 3.8.5 7.7 0 13.9-5.3 13.9-11.9S49.1 1.2 41.4 1.2zm0 21.8c-1.3 0-2.6-.2-3.8-.5-.3-.1-.7 0-.9.2-1.1 1-1.8 1.4-3.3 2.2v-4c0-.3-.1-.6-.4-.8-2.3-1.9-3.6-4.4-3.6-7.1 0-5.5 5.4-10 12-10s12 4.5 12 10-5.4 10-12 10z"></path></symbol>
    <symbol id="ic-lessons" viewBox="0 0 56 52.2"><path d="M49.2 42.5h-43c-2 0-3.7-1.7-3.7-3.7V10.3c0-2 1.7-3.7 3.7-3.7h11c.5 0 1 .4 1 1s-.4 1-1 1h-11c-1 0-1.7.8-1.7 1.7v28.5c0 1 .8 1.7 1.7 1.7h4.7l-.8-9.1v-.9c0-2.2 2-3.7 4-4.1 2.9-.6 6.4-1.6 7.5-2.4.1-.1.3-.1.4-.2.5-.1 1.1.3 1.2.8.1.5-.2.9-.6 1.1-1.9 1.2-6.6 2.3-8 2.6-.9.2-2.4.9-2.4 2.2v.8l.8 9.1v.1h11.2v-.1l1.7-10.7-1.5-3.7c-.1-.3-.1-.6.1-.9.2-.3.5-.4.8-.4H30c.3 0 .6.2.8.4.2.3.2.6.1.9l-1.4 3.7 1.6 10.7v.1h11.3v-.1l.8-9.2v-.7c0-1.3-1.5-2-2.4-2.2-1.5-.3-6.3-1.4-8.2-2.7-.4-.2-.6-.6-.5-1 .1-.5.5-.9 1.1-.8h.1c.2 0 .3.1.4.2 1.1.8 4.5 1.8 7.5 2.4 2 .4 4 1.8 4 4.1v.8l-.8 9.2h4.7c1 0 1.7-.8 1.7-1.7V10.3c0-1-.8-1.7-1.7-1.7h-11c-.5 0-1-.4-1-1s.4-1 1-1h11.1c2 0 3.7 1.7 3.7 3.7v28.5c0 2-1.7 3.7-3.7 3.7zm-23.1-2h3.2l-1.6-10.3-1.6 10.3zm.7-13.8l1 2.6 1-2.6h-2zm.9-3.2c-2.7-.1-5.2-2.4-6.4-5.6-.3 0-.7-.1-1-.4-.4-.3-.7-.8-.8-1.3l-.4-2.9c-.1-.8.2-1.5.9-1.9v-.1-1.7c0-3.1 2.4-5.6 5.3-5.7.1-.2.4-.4.7-.6 1-.4 2.7-.3 4.5.4.5.2.9.4 1.3.6 2 .8 3.3 2.9 3.3 5.2V11c.1.1.1.3.1.4.5.4.8 1.1.7 1.8l-.4 2.8c-.1.5-.4 1-.8 1.3-.2.2-.5.3-.8.3-1 3.5-3.6 5.8-6.2 5.9zm-5.6-7.6c.4 0 .8.3.9.7.7 2.7 2.8 4.9 4.7 5 1.8-.1 3.9-2.2 4.6-4.9.1-.5.6-.8 1.1-.7h.2l.3-2.8h-.2c-.3 0-.5-.2-.7-.5-.2-.2-.2-.5-.1-.8 0-.1.1-.2.1-.3-.4-.8-1.2-1.8-2.1-2.2-1.9 1.7-4.1 1.5-5.8 1.3-1.9-.2-2.7-.2-3.1.9 0 .1.1.2.1.3.1.3 0 .6-.1.8-.2.2-.4.4-.7.5l-.3.1.5 2.8.3-.1c.2-.1.2-.1.3-.1zM25.5 6c-1.6 0-3 1.2-3.4 2.8 1-.4 2.3-.3 3.3-.2 1.7.3 3.3.4 4.6-1 .2-.3.6-.4 1-.3.7.2 1.4.5 1.9 1-.4-.9-1-1.6-1.9-1.9-.4-.2-.8-.4-1.2-.5-1.4-.5-2.4-.6-2.8-.5 0 .2-.1.3-.2.5-.2 0-.5.1-.7.1h-.6zM27 5zm.7 14.4c-.7 0-1.4-.2-1.9-.7-.4-.4-.4-1 0-1.4.4-.4 1-.4 1.4 0 .3.2.9.3 1.3-.1.4-.3 1-.3 1.4.2.3.4.3 1-.2 1.4-.7.3-1.4.6-2 .6zm2.4-4.6c-.5 0-1-.4-1-1v-.7c0-.5.4-1 1-1s1 .4 1 1v.7c0 .5-.5 1-1 1zm-4.8 0c-.5 0-1-.4-1-1v-.7c0-.5.4-1 1-1s1 .4 1 1v.7c0 .5-.4 1-1 1zM51 47H4.5c-.5 0-1 .4-1 1s.4 1 1 1H51c.5 0 1-.4 1-1s-.5-1-1-1zm-36.7 1.5c-.4 0-.7-.3-.7-.7 0-.4.3-.7.7-.7.4 0 .7.3.7.7 0 .4-.3.7-.7.7z"></path><path d="M14.3 45.2c-1.5 0-2.6 1.2-2.6 2.6 0 1.5 1.2 2.6 2.6 2.6 1.5 0 2.6-1.2 2.6-2.6.1-1.4-1.1-2.6-2.6-2.6zm0 3.3c-.4 0-.7-.3-.7-.7 0-.4.3-.7.7-.7.4 0 .7.3.7.7 0 .4-.3.7-.7.7z"></path></symbol>
    <symbol id="ic-literature" viewBox="0 0 55.5 53.8"><path d="M52.1 41.1H3.7c-.5 0-1-.4-1-1V10.8c0-.5.4-1 1-1h3.4c.5 0 1 .4 1 1 0 .5-.4 1-1 1H4.7v27.3h46.5V11.8h-2.4c-.5 0-1-.4-1-1 0-.5.4-1 1-1h3.4c.5 0 1 .4 1 1v29.3c-.1.5-.5 1-1.1 1z"></path><path d="M39.7 50H16.2c-.5 0-1-.4-1-1s.4-1 1-1H23v-6.8c0-.5.4-1 1-1 .5 0 1 .4 1 1V48h6v-6.8c0-.5.4-1 1-1 .5 0 1 .4 1 1V48h6.8c.5 0 1 .4 1 1s-.5 1-1.1 1zM27.8 35.3c-.3 0-.5-.1-.7-.3L25 32.6H8.1c-.5 0-1-.4-1-1V5c0-.5.4-1 1-1h17.3c.3 0 .5.1.7.3l1.8 2 1.8-2c.1-.1.2-.2.3-.2.2 0 .3-.1.4-.1h17.3c.5 0 1 .4 1 1v26.6c0 .5-.4 1-1 1H30.9l-2.1 2.3c-.2.2-.5.4-.8.3-.1.1-.1.1-.2.1zm1-27V32l.9-1c.1-.1.2-.2.3-.2.1-.1.3-.1.4-.1h16.4V6H30.9l-2.1 2.3zM9.1 30.7h16.4c.3 0 .5.1.7.3l.7.8V8L25 6H9.1v24.7zM23 27.2H12.9c-.5 0-1-.4-1-1 0-.5.4-1 1-1H23c.5 0 1 .4 1 1 0 .5-.5 1-1 1zm0-5.3H12.9c-.5 0-1-.4-1-1 0-.5.4-1 1-1H23c.5 0 1 .4 1 1s-.5 1-1 1zm0-5.3H12.9c-.5 0-1-.4-1-1s.4-1 1-1H23c.5 0 1 .4 1 1s-.5 1-1 1zm0-5.2H12.9c-.5 0-1-.4-1-1 0-.5.4-1 1-1H23c.5 0 1 .4 1 1 0 .5-.5 1-1 1z"></path><path d="M47.8 36.8H8.1c-.5 0-1-.4-1-1v-3.9c0-.5.4-1 1-1s1 .4 1 1v2.9h37.8V32c0-.5.4-1 1-1 .5 0 1 .4 1 1v3.8c-.1.6-.5 1-1.1 1zM43 21.9H32.9c-.5 0-1-.4-1-1 0-.5.4-1 1-1H43c.5 0 1 .4 1 1s-.5 1-1 1zm0-5.3H32.9c-.5 0-1-.4-1-1s.4-1 1-1H43c.5 0 1 .4 1 1s-.5 1-1 1zm0-5.2H32.9c-.5 0-1-.4-1-1 0-.5.4-1 1-1H43c.5 0 1 .4 1 1 0 .5-.5 1-1 1z"></path></symbol>
    <symbol id="ic-ok" viewBox="0 0 23.5 23.5"><path d="M16.8 7.7L10.5 14l-2.9-2.9c-.3-.3-.9-.3-1.2 0-.3.3-.3.9 0 1.2l3.5 3.5c.2.2.4.2.6.2.2 0 .4-.1.6-.2L18 8.9c.3-.3.3-.9 0-1.2-.3-.3-.8-.3-1.2 0z"></path><path d="M11.8 22.7c6.1 0 11-4.9 11-11s-4.9-11-11-11-11 4.9-11 11 4.9 11 11 11zm0-20.2c5.1 0 9.3 4.2 9.3 9.3 0 5.1-4.2 9.3-9.3 9.3s-9.3-4.2-9.3-9.3c0-5.2 4.1-9.3 9.3-9.3z"></path></symbol>
    <symbol id="ic-refresh" viewBox="0 0 25.7 19.5"><path d="M25 7.9c-.2-.3-.7-.4-1-.1l-1.8 1.5C21.9 4.4 17.9.5 12.9.5 9.3.5 6.2 2.6 4.6 5.6c-.2.4 0 .8.3 1 .3.2.7 0 .9-.3 1.3-2.6 4-4.3 7-4.3 4.2 0 7.6 3.2 7.8 7.3L19 7.8c-.3-.2-.8-.2-1 .1-.2.3-.2.8.1 1l2.9 2.3s.1 0 .1.1h.1c.1 0 .2.1.3.1.1 0 .2 0 .3-.1 0 0 .1 0 .1-.1l3-2.4c.3-.2.3-.6.1-.9zM20.9 12.7c-.4-.1-.8 0-.9.3-1.2 2.7-4 4.6-7.2 4.6-4.3 0-7.8-3.5-7.8-7.8l1.7 1.4c.3.2.8.2 1-.1.2-.3.2-.8-.1-1L4.7 7.7s-.1 0-.1-.1h-.1c-.1 0-.2-.1-.3-.1-.1 0-.2 0-.3.1 0 0-.1 0-.1.1l-3 2.4c-.3.2-.4.7-.1 1 .2.3.7.4 1 .1l1.8-1.5c0 5.1 4.2 9.3 9.3 9.3 3.7 0 7-2.2 8.4-5.4.3-.3.1-.8-.3-.9z"></path></symbol>
    <symbol id="ic-settings" viewBox="0 0 17.2 17.2"><path d="M15.3 6.5h-.8c-.1-.2-.1-.4-.2-.5l.6-.6c.3-.3.5-.7.5-1.1 0-.4-.2-.8-.5-1.1l-.7-.7c-.6-.6-1.6-.6-2.2 0l-.8.5c-.2-.1-.3-.1-.5-.2V2c0-.9-.7-1.6-1.6-1.6h-1c-.9 0-1.6.7-1.6 1.6v.8c-.2.1-.3.2-.5.2l-.6-.6c-.6-.6-1.6-.6-2.2 0l-.8.8c-.6.6-.6 1.6 0 2.2L3 6c-.1.2-.1.3-.2.5H2c-.4 0-.8.2-1.1.5-.3.3-.5.7-.5 1.1v1c0 .9.7 1.6 1.6 1.6h.8c.1.2.1.4.2.6l-.5.5c-.6.6-.6 1.6 0 2.2l.7.7c.6.6 1.6.6 2.2 0l.5-.5c.2.1.4.2.6.2v.8c0 .9.7 1.6 1.6 1.6h1c.9 0 1.6-.7 1.6-1.6v-.8c.2-.1.4-.2.6-.2l.5.5c.6.6 1.6.6 2.2 0l.7-.7c.3-.3.5-.7.5-1.1 0-.4-.2-.8-.5-1.1l-.5-.5c.1-.2.2-.4.2-.6h.8c.4 0 .8-.2 1.1-.5.3-.3.5-.7.5-1.1v-1c0-.9-.7-1.6-1.5-1.6zm.4 2.6c0 .1 0 .2-.1.3-.1.1-.2.1-.3.1h-1.2c-.3 0-.5.2-.5.4-.1.4-.3.8-.4 1.1-.1.2-.1.5.1.7l.8.8c.1.1.1.2.1.3 0 .1 0 .2-.1.3l-.8.9c-.2.2-.5.2-.7 0l-.8-.8c-.2-.2-.5-.2-.7-.1-.3.2-.7.4-1.1.5-.2.1-.4.3-.4.5v1.2c0 .1 0 .2-.1.3-.1.1-.2.1-.3.1h-1c-.3 0-.5-.2-.5-.5V14c0-.3-.2-.5-.4-.5-.4-.1-.8-.3-1.1-.5h-.4c-.1 0-.3.1-.4.2l-.8.8c-.2.2-.5.2-.7 0l-.7-.7c-.2-.2-.2-.5 0-.7l.8-.8c.2-.2.2-.4.1-.7-.1-.3-.3-.7-.4-1.1-.1-.2-.3-.4-.5-.4H2c-.3 0-.5-.2-.5-.5v-1c0-.1 0-.2.1-.3.1-.1.3-.2.4-.2h1.2c.2 0 .5-.2.5-.4.1-.3.3-.7.5-1 .1-.2.1-.5-.1-.7l-.9-.9c-.2-.2-.2-.5 0-.6l.8-.8c.2-.2.5-.2.7 0l.9.9c.2.2.4.2.7.1.2-.2.5-.3.9-.4.2-.1.4-.3.4-.5V2.1c0-.3.2-.5.5-.5h1c.3 0 .5.2.5.5v1.2c0 .2.2.5.4.5.4.1.7.3 1.1.4.2.1.5.1.7-.1l.9-.9c.2-.2.5-.2.7 0l.6.8c.1.1.1.2.1.3 0 .1 0 .2-.1.3l-.9.9c-.1.2-.2.4-.1.7.2.3.3.7.5 1.1.1.2.3.4.5.4h1.2c.3 0 .5.2.5.5v.9z"></path><path d="M8.6 5.7c-1.6 0-2.9 1.4-2.9 3s1.3 2.9 2.9 2.9c.8 0 1.5-.3 2.1-.9.5-.6.9-1.3.9-2.1-.1-1.5-1.4-2.9-3-2.9zm1.3 4.2c-.3.3-.8.5-1.3.5-1 0-1.8-.8-1.8-1.8s.8-1.8 1.8-1.8 1.8.8 1.8 1.8c0 .5-.2 1-.5 1.3z"></path></symbol>
    <symbol id="ic-star-empty" viewBox="0 0 24.4 23.4"><path d="M22.6 7.8l-6-1.1-2.9-5.4c-.3-.5-.9-.9-1.5-.9s-1.2.3-1.5.9L7.8 6.7l-6 1.1c-.6.1-1.1.5-1.3 1.1-.2.6 0 1.2.4 1.7L5.1 15l-.8 6c-.1.6.2 1.2.7 1.6.3.2.6.3 1 .3.2 0 .5-.1.7-.2l5.5-2.7 5.5 2.7c.2.1.5.2.7.2.3 0 .7-.1 1-.3.5-.4.8-1 .7-1.6l-.8-6 4.2-4.4c.4-.4.6-1.1.4-1.7-.2-.6-.7-1-1.3-1.1zm-5.1 6.6l.9 6.9-6.2-3-6.2 3 .9-6.9-4.8-5 6.8-1.2 3.3-6.1 3.3 6.1 6.8 1.2-4.8 5z"></path></symbol>
    <symbol id="ic-star-full" viewBox="0 0 24.9 23.6"><path d="M22.9 7.9l-6-1.1L14 1.4c-.3-.5-.9-.9-1.5-.9s-1.2.3-1.5.9L8.2 6.8l-6 1.1C1.6 8 1.1 8.4.9 9c-.2.6 0 1.2.4 1.7l4.2 4.4-.8 6c-.1.6.2 1.2.7 1.6.2.2.6.3.9.3.2 0 .5-.1.7-.2l5.5-2.7 5.5 2.7c.2.1.5.2.7.2.3 0 .7-.1 1-.3.5-.4.8-1 .7-1.6l-.8-6 4.2-4.4c.4-.4.6-1.1.4-1.7-.2-.6-.7-1-1.3-1.1z"></path></symbol>
    <symbol id="ic-tel" viewBox="0 0 22.3 22.4"><path d="M13.2 21.7c-1.9 0-3.9-.7-5.3-2.2l-5-5C0 11.6 0 6.8 2.9 3.8l.8-.8c.3-.3.7-.3 1 0l4.1 4.1c.2.1.3.3.3.5s-.1.4-.2.5L7.4 9.6c-.8.8-.8 2.1 0 3L9.9 15c.8.8 2.1.8 3 0l1.4-1.4c.3-.3.7-.3 1 0l4 4c.1.1.2.3.2.5s-.1.4-.2.5l-.9.9c-1.4 1.5-3.3 2.2-5.2 2.2zm-9-17.2l-.3.4c-2.4 2.4-2.4 6.3 0 8.7l5 5c2.4 2.4 6.3 2.4 8.7 0l.4-.4-3-3-1.1.8c-1.4 1.4-3.6 1.4-5 0l-2.5-2.5c-1.4-1.4-1.4-3.6 0-5l.9-.9-3.1-3.1zM20.8 13.4c-.4 0-.7-.4-.7-.8.2-2.8-.9-5.5-2.8-7.5-1.9-1.9-4.4-2.9-7-2.9-.4 0-.7-.3-.7-.7 0-.4.3-.7.7-.7h.1c3 0 5.8 1.2 7.9 3.3 2.3 2.3 3.4 5.4 3.3 8.6-.1.4-.4.7-.8.7z"></path><path d="M18 13.3s-.1 0 0 0c-.4 0-.7-.4-.7-.8.1-2-.6-4-2-5.4-1.3-1.3-3.1-2-5-2-.4 0-.7-.3-.7-.7 0-.4.3-.7.7-.7 2.3 0 4.4.9 6 2.5 1.7 1.7 2.6 4.1 2.4 6.6 0 .2-.4.5-.7.5z"></path></symbol>
    <symbol id="ic-test" viewBox="0 0 54.5 52.5"><path d="M41.6 51.4c-1.7 0-3.3-.5-4.8-1.4l-11.4-7.4c-.7-.5-1.2-1.2-1.4-2.1-.2-.9 0-1.8.6-2.5.1-.1.3-.3.4-.3 1.3-.5 3.6-.6 5 0l-4-9.4c-.3-.8-.3-1.6 0-2.4.3-.9 1-1.6 1.9-1.9 1.7-.7 3.6 0 4.4 1.7l2 4.4c.2-.2.5-.3.7-.4 1-.4 2.2-.3 3.1.2.4-.4.8-.7 1.3-.9 1-.4 2.2-.3 3.1.2.4-.4.8-.7 1.3-.9.9-.4 1.9-.4 2.8 0 .8.4 1.4 1 1.6 1.7l3 8.7c1.3 3.7-.1 7.9-3.5 10.6-1.9 1.3-4 2.1-6.1 2.1zm-15.5-12c-.1.2-.1.5-.1.7.1.3.2.6.5.8l11.4 7.4c3.1 2 6.4.9 8.6-.7 2.1-1.6 4.1-4.8 2.9-8.3l-3-8.7c-.1-.3-.4-.5-.6-.6-.4-.2-.8-.2-1.2 0-.4.2-.7.5-.9 1-.1.4-.4.7-.8.7-.4.1-.8-.1-1-.5-.3-.5-1.1-.7-1.7-.5-.4.2-.7.5-.9 1-.1.4-.4.7-.8.7-.4.1-.8-.1-1-.5-.3-.5-1.1-.7-1.7-.5-.4.2-.7.4-.8.8-.2.4-.5.6-.9.6s-.8-.2-.9-.6l-2.7-5.8c-.3-.7-1.1-1-1.8-.7-.4.2-.7.5-.8.8-.1.3-.1.6 0 .9l5.4 12.3c.2.4.1.9-.3 1.2-.3.3-.8.3-1.2.1l-2.2-1.4c-.7-.4-2.4-.5-3.5-.2zM10.5 22.5c-.3 0-.6-.1-.8-.4L8 19.9c-.3-.4-.3-1.1.2-1.4.4-.3 1.1-.3 1.4.2l.9 1.2 2.7-3.6c.3-.4 1-.5 1.4-.2.4.3.5 1 .2 1.4l-3.5 4.6c-.2.3-.5.4-.8.4zM29.3 20.7H18c-.6 0-1-.4-1-1s.4-1 1-1h11.4c.6 0 1 .4 1 1-.1.5-.5 1-1.1 1zM10.5 29.8c-.3 0-.6-.1-.8-.4L8 27.1c-.3-.4-.3-1.1.2-1.4.4-.3 1.1-.3 1.4.2l.9 1.2 2.7-3.6c.3-.4 1-.5 1.4-.2.4.3.5 1 .2 1.4l-3.5 4.6c-.2.3-.5.5-.8.5z"></path><path d="M26.8 27.9H18c-.6 0-1-.4-1-1s.4-1 1-1h8.8c.6 0 1 .4 1 1s-.5 1-1 1zM10.4 36.9c-.3 0-.6-.1-.8-.4l-1.7-2.3c-.3-.4-.3-1.1.2-1.4.4-.3 1.1-.3 1.4.2l.9 1.2 2.7-3.6c.3-.4 1-.5 1.4-.2.4.3.5 1 .2 1.4l-3.5 4.6c-.2.4-.4.5-.8.5zM29.3 35.1H17.9c-.6 0-1-.4-1-1s.4-1 1-1h11.4c.6 0 1 .4 1 1s-.5 1-1 1zm-9.9-24.2H8.1c-.6 0-1-.4-1-1s.4-1 1-1h11.4c.6 0 1 .4 1 1s-.5 1-1.1 1z"></path><path d="M36.4 13.2c0-.3-.1-.5-.3-.7l-11-11-.1-.1c-.2-.1-.4-.2-.6-.2h-20c-1.5 0-2.7 1.2-2.7 2.7V45c0 1.5 1.2 2.7 2.7 2.7h29.3c.6 0 1-.4 1-1s-.4-1-1-1H4.4c-.4 0-.7-.3-.7-.7V3.9c0-.4.3-.7.7-.7h19v8.3c0 1.5 1.2 2.7 2.7 2.7h8.3v15.5c0 .6.4 1 1 1s1-.4 1-1V13.2zm-10.3-.9c-.4 0-.7-.3-.7-.7v-7l7.6 7.6h-6.9z"></path></symbol>
    <symbol id="ic-timer" viewBox="0 0 22.4 27.1"><path d="M11.2 23.8c-4.4 0-8-3.6-8-8 0-3.2 1.9-6.1 4.9-7.3l.4 1C6 10.6 4.4 13 4.4 15.8c0 3.8 3.1 6.8 6.8 6.8s6.8-3.1 6.8-6.8c0-2.8-1.6-5.2-4.2-6.3l.4-1c3 1.2 4.9 4.1 4.9 7.3 0 4.4-3.5 8-7.9 8zM14.6 3.9h-2.9V2.7h1.8V1.6H8.9v1.1h1.7v1.2H7.8V.5h6.8z"></path><path d="M11.2 26.6C5.2 26.6.4 21.8.4 15.8.4 10.5 4.3 6 9.5 5.1v-.7h1.1v1.7l-.5.1c-4.9.5-8.6 4.7-8.6 9.6 0 5.3 4.3 9.7 9.7 9.7s9.7-4.3 9.7-9.7c0-4.9-3.7-9.1-8.6-9.6l-.5-.1V4.4h1.1v.7c5.2.9 9.1 5.4 9.1 10.7 0 6-4.9 10.8-10.8 10.8z"></path><path d="M11.2 18.1c-1.3 0-2.3-1-2.3-2.3s1-2.3 2.3-2.3 2.3 1 2.3 2.3-1.1 2.3-2.3 2.3zm0-3.4c-.6 0-1.1.5-1.1 1.1s.5 1.1 1.1 1.1 1.1-.5 1.1-1.1-.5-1.1-1.1-1.1z"></path><path d="M10.6 7.8h1.1v6.3h-1.1zM10.6 17.5h1.1v1.7h-1.1z"></path><path transform="rotate(-45.001 19.425 5.855)" d="M18.9 4.6H20V7h-1.1z"></path><path transform="rotate(-45.001 18.287 6.993)" d="M17.1 6.4h2.4v1.1h-2.4z"></path><path transform="rotate(-45.001 2.933 5.855)" d="M1.7 5.3h2.4v1.1H1.7z"></path><path transform="rotate(-45.001 4.07 6.993)"  d="M3.5 5.8h1.1v2.4H3.5z"></path></symbol>
    <symbol id="ic-twitter" viewBox="0 0 29.5 29.5"><path d="M25.9.6H3.6c-1.7 0-3 1.4-3 3V26c0 1.6 1.3 3 3 3H26c1.7 0 3-1.4 3-3V3.6c-.1-1.7-1.4-3-3.1-3zm-1.1 9.1c-.4.5-.9 1-1.5 1.4-.1.1-.1.1-.1.3v.8c0 .5-.1.9-.2 1.4-.2 1.2-.6 2.3-1.1 3.4-.5 1-1.1 1.8-1.8 2.6-1 1.1-2.1 1.9-3.4 2.6-.6.3-1.2.5-1.9.7-.7.2-1.3.3-2 .4-.5.1-1.1.1-1.6.1-1.1 0-2.2-.2-3.3-.5-.9-.3-1.8-.7-2.6-1.2 0 0-.1 0-.1-.1v-.1c2.2.2 4.1-.4 5.9-1.6-.9-.1-1.6-.4-2.3-.9-.7-.5-1.2-1.2-1.4-2 .6.1 1.1.1 1.7 0-.9-.3-1.7-.8-2.3-1.5-.5-.7-.8-1.6-.8-2.6.6.2 1.1.5 1.7.5C6.6 12.5 6 11.3 6 9.9c0-.6.3-1.6.6-2 2.2 2.6 5 4 8.4 4.3 0-.1 0-.3-.1-.4-.1-.5 0-.9.1-1.4.3-1.6 1.6-2.9 3.2-3.2 1.4-.3 2.6.1 3.7 1.1.1.1.2.2.4.1.7-.2 1.4-.4 2.1-.8.1-.1.2-.1.3-.1-.2.9-.8 1.6-1.5 2.2.4 0 .7-.1 1.1-.2.3-.1.7-.2 1.1-.3-.3.2-.4.3-.6.5z"></path></symbol>
    <symbol id="ic-vk" viewBox="0 0 28.9 28.9"><path d="M25.6.3H3.3c-1.6 0-3 1.4-3 3v22.4c0 1.6 1.4 3 3 3h22.4c1.7 0 3-1.4 3-3V3.3c-.1-1.7-1.4-3-3.1-3zM21 15.1c.1.2.3.3.5.5l1.3 1.3c.3.3.6.7.9 1.1.1.2.2.3.2.6 0 .2 0 .3-.2.5-.2.1-.3.2-.5.2H20.6c-.2 0-.4 0-.6-.1-.3-.1-.6-.2-.8-.4l-.9-.9c-.3-.3-.5-.6-.8-.8-.1-.1-.3-.2-.4-.3-.2-.1-.3 0-.5.1s-.2.3-.3.5c-.1.4-.1.7-.1 1.1 0 .2 0 .4-.2.5-.1.1-.3.2-.5.2h-1c-.7 0-1.3-.1-2-.3-.5-.2-1-.4-1.5-.7-.6-.4-1-.8-1.5-1.3-.4-.4-.7-.8-1-1.3-.5-.6-.9-1.3-1.3-2-.5-.6-.9-1.3-1.2-2-.2-.5-.4-.9-.7-1.4-.1-.2-.1-.3-.2-.4 0-.1-.1-.2-.1-.3 0-.2.1-.3.3-.4.1 0 .3-.1.4-.1h2.5c.3 0 .7.2.8.5.3.9.8 1.7 1.2 2.5.2.4.5.8.8 1.2.1.2.3.4.5.5.1 0 .1.1.2.1.2.1.4 0 .5-.2.1-.2.1-.4.2-.6.1-.6.1-1.2.1-1.7v-.6c0-.2-.1-.4-.1-.5-.1-.3-.3-.5-.6-.6-.1 0-.2-.1-.3-.1-.1 0-.1-.1-.1-.1l.3-.3c.2-.2.4-.2.7-.3.5-.1 1.1-.1 1.7-.1h.9c.2 0 .5.1.7.1.1 0 .3.2.4.5.1.3 0 .6 0 .9v2.5c0 .2 0 .4.1.6 0 .1.1.2.2.3.1.1.3.2.4.1.1-.1.3-.2.4-.3.4-.4.7-.8.9-1.3.5-.8.9-1.6 1.3-2.5 0-.1.1-.2.2-.3.1-.2.3-.3.5-.3h3.3c.1 0 .3 0 .4.1.2.1.3.2.2.4 0 .3-.1.5-.2.7-.2.5-.5.9-.8 1.3-.5.6-.9 1.3-1.4 1.9-.2.2-.3.4-.4.6-.1.1-.1.3-.2.4-.2.3-.2.5 0 .7z"></path></symbol>
    <symbol id="ic-webinar" viewBox="0 0 57.8 52.5"><path d="M15.3 48.9c-1.5 0-2.6-1.2-2.6-2.6 0-1.5 1.2-2.6 2.6-2.6s2.6 1.2 2.6 2.6c.1 1.4-1.1 2.6-2.6 2.6zm0-3.3c-.4 0-.7.3-.7.7 0 .4.3.7.7.7.4 0 .7-.3.7-.7 0-.4-.3-.7-.7-.7zM50.2 5h-43c-2 0-3.7 1.7-3.7 3.7v28.5c0 2 1.7 3.7 3.7 3.7h43c2 0 3.7-1.7 3.7-3.7V8.7c0-2-1.7-3.7-3.7-3.7zm1.7 32.2c0 .9-.8 1.7-1.7 1.7h-43c-1 0-1.7-.8-1.7-1.7V8.7c0-1 .8-1.7 1.7-1.7h43c1 0 1.7.8 1.7 1.7v28.5z"></path><path d="M37.4 17.9c-2.8-4.8-9-6.5-13.8-3.7-4.8 2.8-6.5 9-3.7 13.8 1.9 3.2 5.3 5 8.8 5 1.7 0 3.4-.4 5-1.3 4.8-2.8 6.5-9 3.7-13.8zM32.7 30c-3.9 2.2-8.9.9-11.1-3-2.2-3.9-.9-8.9 3-11.1 1.9-1.1 4.1-1.4 6.2-.8 2.1.6 3.8 1.9 4.9 3.8 2.3 3.9.9 8.9-3 11.1z"></path><path d="M34.4 22.4l-8.2-4.7c-.3-.2-.7-.2-1 0-.3.2-.5.5-.5.9V28c0 .4.2.7.5.9.2.1.3.1.5.1s.3 0 .5-.1l8.2-4.7c.3-.2.5-.5.5-.9s-.2-.7-.5-.9zm-7.7 3.9v-6l5.2 3-5.2 3zM51.9 45.4H5.4c-.5 0-1 .4-1 1s.4 1 1 1h46.5c.5 0 1-.4 1-1s-.4-1-1-1zm-36.6 1.5c-.4 0-.7-.3-.7-.7 0-.4.3-.7.7-.7.4 0 .7.3.7.7 0 .4-.3.7-.7.7z"></path></symbol>
    <symbol id="ic-youtube" viewBox="0 0 29.2 29.2"><path d="M14.7 17.7h-.9v3.5c0 .1 0 .2-.1.3-.1.1-.3.3-.5.3s-.3-.1-.3-.2v-.3V18v-.2H12v4.4c0 .3.2.5.5.5.1 0 .3 0 .4-.1.3-.1.5-.2.7-.4 0 0 .1 0 .1-.1v.5h.9v-.1-4.6c.1-.1.1-.1.1-.2zM17.1 17.7c-.2.1-.4.2-.5.3 0 0-.1 0-.1.1v-.3-1.6-.2h-.9v6.6h.9c0-.1 0-.2.1-.3.3.3.5.4.9.4s.7-.1.8-.5c.1-.2.1-.4.1-.6v-2.7c0-.2 0-.5-.1-.7-.3-.5-.8-.7-1.2-.5zm.2 3.6v.3c0 .2-.2.3-.4.3s-.3-.1-.4-.2c-.1-.1-.1-.1-.1-.2v-1.4-1.4c0-.2.1-.3.3-.4.3-.1.5.1.5.4v.2c.1.9.1 1.7.1 2.4zM10.9 15.9H8.2v.9h1.1v5.7h1.1v-5.7h1.1v-.9h-.6zM14.2 10.4c0 .3.2.4.5.4s.4-.2.4-.4V8.9 8v-.6c0-.1 0-.2-.1-.3-.2-.1-.4-.1-.6 0-.2.1-.2.2-.2.4v2.9z"></path><path d="M25.8.4H3.4c-1.6 0-3 1.4-3 3v22.4c0 1.6 1.4 3 3 3h22.4c1.7 0 3-1.4 3-3V3.4c0-1.6-1.4-3-3-3zm-8.7 5.9c0-.1 0-.1.1-.1h.9c.1 0 .1.1.1.1v4.2c0 .2.2.3.4.2.2-.1.4-.2.5-.3v-.2-2.6-1.1c0-.2 0-.2.2-.2h.7c.2 0 .2 0 .2.2v5.1c0 .2 0 .2-.2.2h-.7c-.2 0-.2 0-.2-.2v-.4l-.3.3c-.3.2-.5.3-.9.3s-.7-.2-.8-.6v-.4-4.3-.2zm-3.2-.1c.5-.2 1-.2 1.5 0s.8.7.8 1.2v2.8c0 .2 0 .4-.1.6-.2.5-.6.8-1.1.9h-.7c-.8-.1-1.3-.7-1.3-1.4V7.4c0-.6.5-1 .9-1.2zM9 4.3h.9c.2 0 .2 0 .2.2l.3 1.2.3 1.2c0 .1.1.3.2.4 0-.2.1-.2.1-.3.1-.5.3-1.1.4-1.6.1-.3.2-.7.3-1 0-.1.1-.1.2-.1H13c0 .1 0 .2-.1.2-.3 1-.7 2-1 3l-.3.9v3c0 .2 0 .2-.2.2h-.8c-.2 0-.2 0-.2-.2V9.1c0-.3-.1-.7-.2-1-.5-1.1-.9-2.4-1.4-3.7v-.1H9zm14.2 17.2c-.1.7-.2 1.4-.4 2.1-.2.5-.5.7-1 .8-.6.1-1.1.2-1.7.3-.4.1-.8.1-1.1.1-.7 0-1.4.1-2.1.1h-3c-.8 0-1.5 0-2.3-.1-.6 0-1.3-.1-1.9-.2l-1.5-.3c-.1 0-.2-.1-.3-.1-.3-.1-.5-.3-.6-.5-.2-.4-.3-.7-.3-1.1-.1-.6-.2-1.3-.2-1.9 0-.7-.1-1.4 0-2.1 0-.3 0-.7.1-1 .1-.8.1-1.5.3-2.2.1-.2.1-.4.2-.6.1-.2.3-.3.5-.4.3-.1.6-.2.9-.2.7-.1 1.3-.2 2-.2.7-.1 1.4-.1 2.1-.1 1.3-.1 2.7 0 4 0 .6 0 1.3 0 1.9.1.7.1 1.5.1 2.2.2.4.1.9.1 1.3.3.4.1.6.4.7.7.1.4.2.8.3 1.1 0 .3.1.5.1.8.1.8.1 1.6.1 2.5-.2.5-.3 1.2-.3 1.9z"></path><path d="M20.8 17.6c-.2-.1-.5-.1-.7-.1-.5.1-.9.3-1.1.7-.1.3-.2.5-.2.8v1.9c0 .2 0 .5.1.7.1.4.3.7.8.9.3.1.7.1 1 .1.4-.1.7-.3.9-.7.1-.3.1-.6.1-.9h-.9v.6c0 .2-.2.3-.4.3s-.4-.1-.4-.3v-.3-.8c0-.2 0-.2.2-.2h1.7v-1.6c-.3-.5-.6-.9-1.1-1.1zm-.3 1.9h-.6c-.1 0-.1 0-.1-.1v-.6c0-.3.2-.4.4-.4.3 0 .4.1.4.4v.6c.1.1 0 .1-.1.1z"></path></symbol>
    <symbol id="ic-menu" viewBox="0 0 40.8 33.2"><path d="M35.3 10.8H5.4c-1.1 0-2-.9-2-2s.9-2 2-2h29.9c1.1 0 2 .9 2 2s-.8 2-2 2zM35.3 19.8H5.4c-1.1 0-2-.9-2-2s.9-2 2-2h29.9c1.1 0 2 .9 2 2s-.8 2-2 2zM35.3 28.8H5.4c-1.1 0-2-.9-2-2s.9-2 2-2h29.9c1.1 0 2 .9 2 2s-.8 2-2 2z"></path></symbol>
    <symbol id="ic-play" viewBox="0 0 294.7 289.6"><path d="M146 273.1c-68.7 0-124.6-55.9-124.6-124.6S77.2 23.8 146 23.8s124.6 55.9 124.6 124.6S214.7 273.1 146 273.1zm0-243.3C80.6 29.8 27.3 83 27.3 148.4S80.6 267.1 146 267.1s118.6-53.2 118.6-118.6S211.4 29.8 146 29.8z"></path><path class="st0" d="M134.4 180.6c-.5 0-1-.1-1.5-.4-.9-.5-1.5-1.5-1.5-2.6v-58.4c0-1.1.6-2.1 1.5-2.6s2.1-.5 3 0l50.5 29.2c.9.5 1.5 1.5 1.5 2.6s-.6 2.1-1.5 2.6l-50.5 29.2c-.5.3-1 .4-1.5.4zm3-56.2v48l41.5-24-41.5-24z"></path></symbol>
    <symbol id="ic-user" viewBox="0 0 34.8 33.3"><path d="M17.5,2.4c-8.3,0-15,6.7-15,15s6.7,15,15,15s15-6.7,15-15S25.8,2.4,17.5,2.4z M9.2,27c1.6-0.7,4.1-1.8,4.9-2.5 c1.1-0.9,1.3-2.2,1.2-2.9v-0.2l-0.1-0.2c-0.5-0.7-1.1-1.6-1.2-1.8c-0.1-0.1-0.2-0.5-0.2-0.7c-0.2-0.8-0.4-1.2-0.7-1.5 c-0.2-0.2-0.4-0.9-0.4-1.1c0-0.1,0.1-0.4,0.2-0.6c0.2-0.4,0.3-0.8,0.3-1.1v-3.7c0-0.5,1.2-3.1,4.5-3.1s4.5,2.6,4.5,3.1v3.7 c0,0.4,0.1,0.8,0.3,1.1c0.1,0.2,0.2,0.5,0.2,0.6c0,0.2-0.3,0.9-0.4,1.1c-0.3,0.3-0.5,0.7-0.7,1.5c-0.1,0.3-0.2,0.6-0.2,0.7 c-0.1,0.2-0.7,1.1-1.2,1.8l-0.1,0.2v0.2c-0.1,0.6,0.1,2,1.2,2.9c0.8,0.6,3.3,1.8,4.9,2.5c-2.2,1.9-5.1,3.1-8.3,3.1 C14.4,30.1,11.5,28.9,9.2,27z M27.1,25.7c-1.9-0.8-4.5-2-5.1-2.5c-0.4-0.3-0.5-0.8-0.6-1.1c0.3-0.5,1-1.4,1.2-1.8 c0.1-0.2,0.2-0.6,0.4-1c0.1-0.2,0.2-0.6,0.3-0.7c0.5-0.5,1-1.7,1-2.4c0-0.4-0.2-0.9-0.3-1.3c-0.1-0.2-0.2-0.4-0.2-0.5v-3.7 c0-1.4-1.9-4.9-6.2-4.9s-6.2,3.5-6.2,4.9v3.7c0,0.1-0.1,0.3-0.2,0.5c-0.2,0.4-0.3,0.8-0.3,1.3c0,0.6,0.5,1.9,1,2.4 c0.1,0.2,0.2,0.5,0.3,0.7c0.1,0.4,0.2,0.7,0.4,1c0.2,0.4,0.9,1.3,1.2,1.8c0,0.3-0.1,0.7-0.6,1.1c-0.6,0.5-3.3,1.7-5.1,2.5 C6.2,23.5,5,20.6,5,17.4c0-7,5.7-12.7,12.7-12.7s12.7,5.7,12.7,12.7C30.2,20.5,29,23.4,27.1,25.7z"/></symbol>
    <symbol id="ic-slider-next" viewBox="0 0 39.7 61"><path d="M8.9,3.8c1,0,1.9,0.4,2.7,1.2l22.6,24.1c1.3,1.4,1.3,3.6,0,5L11.5,57.4c-1.4,1.4-3.7,1.5-5.2,0.1 c-1.4-1.4-1.5-3.7-0.1-5.2l20.2-20.8L6.2,9.9C4.8,8.5,4.9,6.2,6.4,4.8C7.1,4.1,8,3.8,8.9,3.8z"/></symbol>
    <symbol id="ic-slider-prev" viewBox="0 0 39.7 61"><path d="M30.5,58.5c-1,0-1.9-0.4-2.7-1.2L5.2,33.2c-1.3-1.4-1.3-3.6,0-5L27.8,4.9c1.4-1.4,3.7-1.5,5.2-0.1 c1.4,1.4,1.5,3.7,0.1,5.2L12.9,30.8l20.2,21.6c1.4,1.5,1.3,3.8-0.2,5.2C32.3,58.2,31.4,58.5,30.5,58.5z"/></symbol>
    <symbol id="ic-login" viewBox="0 0 60.6 75"><path d="M20.3,19.2c0-1.8,1.5-3.3,3.3-3.3H38c1.8,0,3.3,1.5,3.3,3.3v12.4h6.5V19.2c0-5.4-4.4-9.8-9.8-9.8H23.6 c-5.4,0-9.8,4.4-9.8,9.8v12.4h6.5V19.2z"/><path d="M48.8,35.5h-36c-2.9,0-5.2,2.3-5.2,5.2v23.8c0,2.9,2.3,5.2,5.2,5.2h36c2.9,0,5.2-2.3,5.2-5.2V40.7 C54,37.8,51.7,35.5,48.8,35.5z M33.4,52.8v6.6c0,0.7-0.6,1.3-1.3,1.3h-2.6c-0.7,0-1.3-0.6-1.3-1.3v-6.6c-1-0.8-1.6-2-1.6-3.3 c0-2.3,1.9-4.2,4.2-4.2c2.3,0,4.2,1.9,4.2,4.2C35,50.9,34.4,52,33.4,52.8z"/></symbol>
    <symbol id="ic-play-materials" viewBox="0 0 32.1 40.5"><path d="M6.7,37.8c-0.3,0-0.6-0.1-0.9-0.2c-0.7-0.3-1.1-1-1.1-1.8v-32c0-0.8,0.4-1.4,1.1-1.8c0.7-0.3,1.5-0.3,2.1,0.2 l21.4,16c0.5,0.4,0.8,1,0.8,1.6s-0.3,1.2-0.8,1.6l-21.4,16C7.5,37.7,7.1,37.8,6.7,37.8z M8.7,7.8v24l16-12L8.7,7.8z"/></symbol>
    <symbol id="ic-book" viewBox="0 0 45.1 41.1"><path d="M41.5,8.5h-2.4V7.7c0-0.6-0.4-1.1-1-1.2c-5.7-1.2-11.9,0.8-15.6,3.4C19,7.5,13,5.2,7,6.5C6.5,6.6,6,7.1,6,7.7 v0.8H3.6C3,8.5,2.4,9,2.4,9.7v24.1C2.4,34.5,3,35,3.6,35h37.9c0.7,0,1.2-0.5,1.2-1.2V9.7C42.7,9,42.2,8.5,41.5,8.5z M40.3,10.9v21.7 H29.5c2.6-0.8,5.3-1.3,8.3-1c0.3,0,0.7-0.1,0.9-0.3c0.3-0.2,0.4-0.6,0.4-0.9V10.9H40.3z M23.8,12c1.7-1.2,3.8-2.2,6-2.8 C30.2,9.1,30.6,9,31.1,9c0,0,1.9-0.3,3.6-0.3l0.3,0c0.4,0,0.8,0,1.3,0c0.2,0,0.3,0,0.5,0.1v20.4c-4.7-0.1-9.2,1.5-12.9,2.9V12z  M21.3,12v20c-3.7-1.4-7.8-2.9-12.3-2.9c-0.2,0-0.4,0-0.6,0V8.7C13.2,8.1,18.3,9.9,21.3,12z M6.4,31.3c0.3,0.2,0.6,0.3,0.9,0.3 c2.9-0.3,5.7,0.2,8.3,1H4.8V10.9H6v19.5C6,30.7,6.2,31.1,6.4,31.3z"/></symbol>
    <symbol id="ic-clock" viewBox="0 0 29.6 30.4"><path d="M14.9,28.8c7.2,0,13.1-5.9,13.1-13.1c0-7.2-5.9-13.1-13.1-13.1C7.7,2.6,1.8,8.5,1.8,15.7 C1.8,22.9,7.7,28.8,14.9,28.8z M14.9,4.6c6.1,0,11.1,5,11.1,11.1c0,6.1-5,11.1-11.1,11.1s-11.1-5-11.1-11.1 C3.8,9.6,8.8,4.6,14.9,4.6z"/><path d="M14.9,16.7l4.2,0c0.6,0,1-0.4,1-1c0-0.6-0.4-1-1-1l-3.2,0V9.3c0-0.6-0.4-1-1-1c-0.6,0-1,0.4-1,1v6.3 C13.9,16.2,14.3,16.7,14.9,16.7z"/></symbol>
    <symbol id="ic-calendar" viewBox="0 0 39.4 38.5"><path d="M34.3,33.8H5.4c-1.5,0-2.7-1.2-2.7-2.7V8c0-1.5,1.2-2.7,2.7-2.7h3.7V3.8c0-0.4,0.3-0.7,0.7-0.7 s0.7,0.3,0.7,0.7v1.5h5.2V3.8c0-0.4,0.3-0.7,0.7-0.7s0.7,0.3,0.7,0.7v1.5h5.2V3.8c0-0.4,0.3-0.7,0.7-0.7s0.7,0.3,0.7,0.7v1.5h5.2 V3.8c0-0.4,0.3-0.7,0.7-0.7s0.7,0.3,0.7,0.7v1.5h3.7C35.8,5.3,37,6.5,37,8v23C37,32.6,35.8,33.8,34.3,33.8z M5.4,6.8 C4.7,6.8,4.1,7.3,4.1,8v23c0,0.7,0.6,1.3,1.3,1.3h28.9c0.7,0,1.3-0.6,1.3-1.3V8c0-0.7-0.6-1.3-1.3-1.3h-3.7v1.7 c0,0.4-0.3,0.7-0.7,0.7s-0.7-0.3-0.7-0.7V6.8h-5.2v1.7c0,0.4-0.3,0.7-0.7,0.7s-0.7-0.3-0.7-0.7V6.8h-5.2v1.7c0,0.4-0.3,0.7-0.7,0.7 s-0.7-0.3-0.7-0.7V6.8h-5.2v1.7c0,0.4-0.3,0.7-0.7,0.7S9.1,8.8,9.1,8.4V6.8H5.4z M19.8,29.3c-0.4,0-0.7-0.3-0.7-0.7v-1.2 c0-0.4,0.3-0.7,0.7-0.7s0.7,0.3,0.7,0.7v1.2C20.5,29,20.2,29.3,19.8,29.3z M14.5,29.3c-0.4,0-0.7-0.3-0.7-0.7v-1.2 c0-0.4,0.3-0.7,0.7-0.7s0.7,0.3,0.7,0.7v1.2C15.3,29,14.9,29.3,14.5,29.3z M9.3,29.3c-0.4,0-0.7-0.3-0.7-0.7v-1.2 c0-0.4,0.3-0.7,0.7-0.7S10,27,10,27.4v1.2C10,29,9.7,29.3,9.3,29.3z M26.2,25h-2.3c-0.9,0-1.7-0.8-1.7-1.7V21 c0-0.9,0.8-1.7,1.7-1.7h2.3c0.9,0,1.7,0.8,1.7,1.7v2.3C27.9,24.2,27.1,25,26.2,25z M23.9,20.8c-0.1,0-0.2,0.1-0.2,0.2v2.3 c0,0.1,0.1,0.2,0.2,0.2h2.3c0.1,0,0.2-0.1,0.2-0.2V21c0-0.1-0.1-0.2-0.2-0.2H23.9z M30.3,23.4c-0.4,0-0.7-0.3-0.7-0.7v-1.2 c0-0.4,0.3-0.7,0.7-0.7s0.7,0.3,0.7,0.7v1.2C31.1,23.1,30.7,23.4,30.3,23.4z M19.8,23.4c-0.4,0-0.7-0.3-0.7-0.7v-1.2 c0-0.4,0.3-0.7,0.7-0.7s0.7,0.3,0.7,0.7v1.2C20.5,23.1,20.2,23.4,19.8,23.4z M14.5,23.4c-0.4,0-0.7-0.3-0.7-0.7v-1.2 c0-0.4,0.3-0.7,0.7-0.7s0.7,0.3,0.7,0.7v1.2C15.2,23.1,14.9,23.4,14.5,23.4z M9.3,23.4c-0.4,0-0.7-0.3-0.7-0.7v-1.2 c0-0.4,0.3-0.7,0.7-0.7s0.7,0.3,0.7,0.7v1.2C10,23.1,9.7,23.4,9.3,23.4z M25.1,17.6c-0.4,0-0.7-0.3-0.7-0.7v-1.2 c0-0.4,0.3-0.7,0.7-0.7s0.7,0.3,0.7,0.7v1.2C25.8,17.3,25.5,17.6,25.1,17.6z M19.8,17.6c-0.4,0-0.7-0.3-0.7-0.7v-1.2 c0-0.4,0.3-0.7,0.7-0.7s0.7,0.3,0.7,0.7v1.2C20.5,17.3,20.2,17.6,19.8,17.6z M14.5,17.6c-0.4,0-0.7-0.3-0.7-0.7v-1.2 c0-0.4,0.3-0.7,0.7-0.7s0.7,0.3,0.7,0.7v1.2C15.3,17.3,14.9,17.6,14.5,17.6z M9.3,17.6c-0.4,0-0.7-0.3-0.7-0.7v-1.2 c0-0.4,0.3-0.7,0.7-0.7s0.7,0.3,0.7,0.7v1.2C10,17.3,9.7,17.6,9.3,17.6z M30.3,17.6c-0.4,0-0.7-0.3-0.7-0.7v-1.2 c0-0.4,0.3-0.7,0.7-0.7s0.7,0.3,0.7,0.7v1.2C31.1,17.3,30.7,17.6,30.3,17.6z"/><rect x="3.4" y="10.5" width="32.9" height="1.4"/></symbol>
    <symbol id="ic-desc-course" viewBox="0 0 40.5 38.5"><path  d="M37.9,29.8H2.5c-0.4,0-0.7-0.3-0.7-0.7V7.7c0-0.4,0.3-0.7,0.7-0.7h2.5c0.4,0,0.7,0.3,0.7,0.7S5.3,8.4,4.9,8.4 H3.2v20h34v-20h-1.7c-0.4,0-0.7-0.3-0.7-0.7s0.3-0.7,0.7-0.7h2.5c0.4,0,0.7,0.3,0.7,0.7v21.4C38.6,29.5,38.3,29.8,37.9,29.8z"/><path d="M28.8,36.4H11.6c-0.4,0-0.7-0.3-0.7-0.7s0.3-0.7,0.7-0.7h5v-5c0-0.4,0.3-0.7,0.7-0.7s0.7,0.3,0.7,0.7v5h4.5v-5 c0-0.4,0.3-0.7,0.7-0.7s0.7,0.3,0.7,0.7v5h5c0.4,0,0.7,0.3,0.7,0.7S29.2,36.4,28.8,36.4z M20.1,25.6c-0.2,0-0.4-0.1-0.5-0.2 L18,23.7H5.6c-0.4,0-0.7-0.3-0.7-0.7V3.4c0-0.4,0.3-0.7,0.7-0.7h12.7c0.2,0,0.4,0.1,0.5,0.2l1.3,1.4L21.5,3c0,0,0,0,0,0 c0,0,0,0,0,0s0,0,0,0c0.1-0.1,0.1-0.1,0.2-0.2c0.1,0,0.2-0.1,0.3-0.1c0,0,0,0,0,0c0,0,0,0,0,0c0,0,0,0,0,0h0h12.7 c0.4,0,0.7,0.3,0.7,0.7v19.5c0,0.4-0.3,0.7-0.7,0.7H22.3l-1.5,1.7C20.6,25.5,20.4,25.6,20.1,25.6C20.1,25.6,20.1,25.6,20.1,25.6z  M20.8,5.8v17.4l0.7-0.7c0,0,0,0,0,0c0,0,0,0,0,0s0,0,0,0c0.1-0.1,0.1-0.1,0.2-0.2c0.1,0,0.2-0.1,0.3-0.1c0,0,0,0,0,0h12V4.2H22.3 L20.8,5.8z M6.4,22.2h12c0.2,0,0.4,0.1,0.5,0.2l0.5,0.6V5.6L18,4.2H6.4V22.2z M16.6,19.7H9.2c-0.4,0-0.7-0.3-0.7-0.7 s0.3-0.7,0.7-0.7h7.4c0.4,0,0.7,0.3,0.7,0.7S17,19.7,16.6,19.7z M16.6,15.8H9.2c-0.4,0-0.7-0.3-0.7-0.7s0.3-0.7,0.7-0.7h7.4 c0.4,0,0.7,0.3,0.7,0.7S17,15.8,16.6,15.8z M16.6,11.9H9.2c-0.4,0-0.7-0.3-0.7-0.7s0.3-0.7,0.7-0.7h7.4c0.4,0,0.7,0.3,0.7,0.7 S17,11.9,16.6,11.9z M16.6,8.1H9.2c-0.4,0-0.7-0.3-0.7-0.7s0.3-0.7,0.7-0.7h7.4c0.4,0,0.7,0.3,0.7,0.7S17,8.1,16.6,8.1z"/><path d="M34.7,26.7H5.6c-0.4,0-0.7-0.3-0.7-0.7v-2.9c0-0.4,0.3-0.7,0.7-0.7s0.7,0.3,0.7,0.7v2.1H34v-2.1 c0-0.4,0.3-0.7,0.7-0.7s0.7,0.3,0.7,0.7V26C35.4,26.4,35.1,26.7,34.7,26.7z"/><path d="M31.2,15.8h-7.4c-0.4,0-0.7-0.3-0.7-0.7s0.3-0.7,0.7-0.7h7.4c0.4,0,0.7,0.3,0.7,0.7S31.6,15.8,31.2,15.8z  M31.2,11.9h-7.4c-0.4,0-0.7-0.3-0.7-0.7s0.3-0.7,0.7-0.7h7.4c0.4,0,0.7,0.3,0.7,0.7S31.6,11.9,31.2,11.9z M31.2,8.1h-7.4 c-0.4,0-0.7-0.3-0.7-0.7s0.3-0.7,0.7-0.7h7.4c0.4,0,0.7,0.3,0.7,0.7S31.6,8.1,31.2,8.1z"/></symbol>
    <symbol id="ic-btn-download" viewBox="0 0 108.46 100.11"><path d="M123.63,90.57a6,6,0,0,0-4.43-1.83H89l-8.86,8.87a12.6,12.6,0,0,1-17.73,0l-8.8-8.87H23.26A6.23,6.23,0,0,0,17,95v20.86a6.23,6.23,0,0,0,6.26,6.25H119.2a6.23,6.23,0,0,0,6.26-6.25V95a6,6,0,0,0-1.82-4.43h0Zm-24.44,22a4.09,4.09,0,1,1,1.24-2.93,4,4,0,0,1-1.24,2.93h0Zm16.68,0a4.09,4.09,0,1,1,1.24-2.93,4,4,0,0,1-1.24,2.93h0Zm0,0" transform="translate(-17 -22)"/><path d="M68.3,91.68a4.09,4.09,0,0,0,5.86,0l29.2-29.2a3.76,3.76,0,0,0,.91-4.56,3.89,3.89,0,0,0-3.84-2.54H83.74V26.17A4.23,4.23,0,0,0,79.57,22H62.89a4.23,4.23,0,0,0-4.17,4.17v29.2H42a3.89,3.89,0,0,0-3.84,2.54,3.76,3.76,0,0,0,.91,4.56Zm0,0" transform="translate(-17 -22)"/></symbol>
</svg>